<?xml version="1.0" encoding="utf-8"?>
<!-- Generator: Adobe Illustrator 25.2.3, SVG Export Plug-In . SVG Version: 6.00 Build 0)  -->
<svg version="1.1" id="レイヤー_1" xmlns="http://www.w3.org/2000/svg" xmlns:xlink="http://www.w3.org/1999/xlink" x="0px"
	 y="0px" viewBox="0 0 595.28 841.89" style="enable-background:new 0 0 595.28 841.89;" xml:space="preserve">
<style type="text/css">
	.st0{fill:#9FA0A0;}
	.st1{fill:#FFFFFF;}
	.st2{fill:#757575;}
	.st3{fill:#030303;}
	.st4{fill:#010101;}
	.st5{fill:#060606;}
	.st6{fill:#050505;}
	.st7{fill:#282828;}
	.st8{fill:#070707;}
	.st9{fill:#151515;}
	.st10{fill:#2D2D2D;}
	.st11{fill:#252525;}
	.st12{fill:#1A1A1A;}
	.st13{fill:#0F0F0F;}
	.st14{fill:#222222;}
	.st15{fill:#212121;}
	.st16{fill:#272727;}
	.st17{fill:#202020;}
	.st18{fill:#232323;}
	.st19{fill:#1F1F1F;}
	.st20{fill:#2B2B2B;}
	.st21{fill:#191919;}
	.st22{fill:#242424;}
	.st23{fill:#1D1D1D;}
	.st24{fill:#292929;}
	.st25{fill:#1C1C1C;}
	.st26{fill:#2F2F2F;}
	.st27{fill:#1B1B1B;}
	.st28{fill:#1E1E1E;}
	.st29{fill:#262626;}
	.st30{fill:#2E2E2E;}
	.st31{fill:#0E0E0E;}
	.st32{fill:#0D0D0D;}
	.st33{fill:#3B3B3B;}
	.st34{fill:#3E3E3E;}
	.st35{fill:#3C3C3C;}
	.st36{fill:#171717;}
	.st37{fill:#4C4C4C;}
	.st38{fill:#515151;}
	.st39{fill:#565656;}
	.st40{fill:#555555;}
	.st41{fill:#A7A7A7;}
	.st42{fill:#737373;}
	.st43{fill:#4D4D4D;}
	.st44{fill:#727272;}
	.st45{fill:#646464;}
	.st46{fill:#FEFEFE;}
	.st47{fill:#FDFDFD;}
	.st48{fill:#FCFCFC;}
	.st49{fill:#F9F9F9;}
	.st50{fill:#F7F7F7;}
	.st51{fill:#F3F3F3;}
	.st52{fill:#FBFBFB;}
	.st53{fill:#F6F6F6;}
	.st54{fill:#E3E3E3;}
	.st55{fill:#141414;}
	.st56{fill:#161616;}
	.st57{fill:#181818;}
	.st58{fill:#0B0B0B;}
	.st59{fill:#0C0C0C;}
	.st60{fill:#080808;}
	.st61{fill:#393939;}
	.st62{fill:#DDDDDD;}
	.st63{fill:#DEDEDE;}
	.st64{fill:#7C7C7C;}
	.st65{fill:#525252;}
	.st66{fill:#EEEEEE;}
	.st67{fill:#828282;}
	.st68{fill:#A6A6A6;}
	.st69{fill:#9B9B9B;}
	.st70{fill:#EDEDED;}
	.st71{fill:#8A8A8A;}
	.st72{fill:#6B6B6B;}
	.st73{fill:#EFEFEF;}
	.st74{fill:#111111;}
	.st75{fill:#2C2C2C;}
	.st76{fill:#090909;}
	.st77{fill:#040404;}
	.st78{fill:#363636;}
	.st79{fill:#303030;}
	.st80{fill:#414141;}
	.st81{fill:#131313;}
	.st82{fill:#585858;}
	.st83{fill:#3A3A3A;}
	.st84{fill:#A4A4A4;}
	.st85{fill:#9F9F9F;}
	.st86{fill:#818181;}
	.st87{fill:#A0A0A0;}
	.st88{fill:#9D9D9D;}
	.st89{fill:#2A2A2A;}
	.st90{fill:#949494;}
	.st91{fill:#A8A8A8;}
	.st92{fill:#D9D9D9;}
</style>
<g>
	<path class="st0" d="M457.32,258.01l32.41,29.26l27.34,40.75l13.17,41.81l17.33,42.39l-3.47,39.36l-2.08,38.74l-9.7,40.95
		l-11.09,21.42l-9.7,6.19l-9.56-24.75c0,0-14.43-41.54-14.57-44c-0.13-2.46-13.25-38.54-13.25-38.54l-12.36-14.67l-17.14-8.2
		l-16.71-8.29l1.79-30l-13.85-17.89l22.33-34.69l15.09-25.57L457.32,258.01z"/>
	<path class="st1" d="M134.23,260.52l14.88-30.33l23.7-15.2l23.71-3.08l16.79-6.51c0,0,8.32-14,9.93-14.74
		c1.62-0.75,23.76-5.96,23.76-5.96l17.42-17.93l16.95-20.81c0,0,22.91-19.04,24.04-20.42c1.13-1.38,25.98-11.77,25.98-11.77
		l21.73,12.81l17.88,37.94l17.71,14.26l47.07,13.43l23.34,24.35l5.55,7.22l2.23,27.85l-3.96,54.93l-34.11,63.7l-100.11,38.87
		l-74.27,4.43l-49.64-12.17l-26.57-35.39l-20.08-27.04l-21.79-48.7L134.23,260.52z"/>
	<g>
		<path class="st2" d="M288.05,697.36c-0.04-0.14-0.07-0.28-0.07-0.43c0.75-0.92,1.83-0.9,2.85-0.91c4.74-0.05,9.49-0.05,14.23,0
			c1.02,0.01,2.1-0.01,2.85,0.92c0.01,0.15-0.02,0.29-0.08,0.42C301.23,697.36,294.64,697.36,288.05,697.36z"/>
		<path d="M307.9,696.94c-6.64,0-13.29,0-19.93,0c-57.89-2.49-109.11-22.34-153.58-59.41c-28.44-23.71-50.47-52.5-66.34-85.96
			c-0.83-1.76-1.34-2.01-3.09-0.97c-7.61,4.53-14.83,9.52-21.26,15.69c-2.46,2.36-5.88,3.71-9.22,4.58
			c-6.26,1.62-11.44-3.87-9.61-10.07c1.81-6.14,3.82-12.22,5.13-18.51c0.72-3.47,0.96-7.02,1.98-10.45
			c3.25-10.94,5.87-22.06,9.6-32.85c1.58-4.56,3.51-9,4.8-13.67c0.5-1.8,0.26-3.45,0.01-5.13c-3-20.44-3.49-40.93-1.56-61.5
			c4.01-42.57,18-81.59,41.65-117.16c10.12-15.22,21.83-29.13,34.98-41.83c1.06-1.02,2.22-1.95,2.27-3.62
			c0.24-7.51,3.16-14.23,6.76-20.55c7.6-13.34,19.14-22.74,32.41-29.86c7.16-3.84,15.31-5.21,23.45-6.19
			c3.55-0.43,7.05-0.67,10.6-0.42c0.79,0.06,1.42-0.1,1.72-0.82c3.03-7.31,9.55-10.95,15.71-14.96c6.51-4.23,13.47-7.45,20.96-9.52
			c2.19-0.6,4.39-1.24,6.64-0.87c1.6,0.26,2.59-0.28,3.63-1.38c2.71-2.87,3.92-6.75,6.64-9.59c9.01-9.39,14.79-21.31,24.19-30.44
			c5.24-5.09,10.49-10.03,16.64-14.02c6.82-4.43,13.96-8.28,21.19-11.94c11.68-5.91,21.68-3.92,31,4.12
			c5.87,5.06,10.08,11.29,13.12,18.41c3.77,8.81,7.83,17.51,11.63,26.31c1.43,3.31,3.18,6.59,2.7,10.43
			c-0.11,0.87,0.39,1.22,1.22,1.31c14.89,1.59,28.66,6.58,42.16,12.96c8.44,3.99,16.56,8.29,23.95,13.95
			c3.68,2.82,6.18,6.76,9.08,10.32c3.73,4.55,7.93,8.72,11.1,13.72c2.68,4.23,1.68,8.47-2.56,11.14c-1.68,1.06-3.76,1.22-5.36,2.52
			c-0.66,0.53-1.65,0.19-2.13-0.42c-2.57-3.29-6.58-5.25-8.34-9.35c-0.66-1.53-1.78-3.14-4.04-3.24c-1.09-0.05-1.94-0.93-2.08-2.3
			c-0.32-3.21-1.19-3.98-4.44-4.18c-1.66-0.1-2.65-1.72-1.82-3.1c0.39-0.65,1.34-1.28,0.29-1.87c-1.25-0.7-1.77-2.79-3.85-2.01
			c-2.51,0.93-3.46,0.16-3.39-2.58c0.05-2.04-1.88-2.11-3.01-2.69c-5.89-3.02-11.89-5.81-17.82-8.76c-1.09-0.54-1.82-0.72-2.65,0.4
			c-0.59,0.79-1.55,1.16-2.55,0.58c-0.92-0.54-1.81-1.15-1.37-2.46c0.49-1.45-0.72-1.68-1.53-1.88c-8.87-2.16-17.46-5.45-26.91-4.9
			c-9.33,0.54-17.32,3.64-23.95,10.21c-3.94,3.91-8.15,7.54-12.47,11c-5.13,4.11-7.26,9.99-9.94,15.59c-2.22,4.63-6.7,6.56-11.2,5
			c-4.42-1.53-6.49-5.82-4.89-10.22c0.47-1.3,1.02-2.58,1.64-3.81c0.71-1.41,1.52-2.59-0.2-4.05c-1.06-0.9,0.14-2.8,1.96-2.94
			c0.94-0.07,1.59-0.09,2.11-1.01c2.82-5.01,7.19-8.65,11.41-12.35c3.39-2.97,6.87-5.83,10.04-9.04c4.07-4.13,8.83-7.23,14.33-9.16
			c1.1-0.38,2.16-0.63,2-2.44c-0.14-1.65,2.11-2.64,3.43-1.46c1.67,1.49,2.86,0.21,4.23-0.2c0.57-0.17,0.88-0.9,0.56-1.26
			c-1.82-2.06-0.64-5.06-2.35-7.18c-0.67-0.83-0.93-1.71-2.03-0.53c-0.5,0.53-1.22,0.63-1.94,0.38c-0.68-0.24-1.4-0.68-1.49-1.33
			c-0.13-0.97,0.91-0.97,1.49-1.04c2.6-0.29,2.14-1.18,1.21-3.15c-1.94-4.12-3.24-8.54-5-12.76c-1.53-3.66-3.11-7.33-5.06-10.79
			c-2.64-4.7-6.61-8.2-11.35-10.76c-2.21-1.19-4.54-0.57-6.5,0.47c-8.95,4.73-18.23,9.06-25.99,15.65
			c-7.74,6.57-14.39,14.25-20.14,22.68c-1.46,2.14-2.81,4.39-4.54,6.3c-5.01,5.55-8.34,12.43-13.52,17.74
			c-7.18,7.36-12.31,16.28-19.06,23.92c-1.47,1.66-1.93,3.85-2.68,5.87c-1.15,3.05-2.75,5.81-5.15,8
			c-4.65,4.25-11.84,2.62-13.94-3.05c-0.83-2.24-0.43-4.39,0.77-6.23c2.03-3.1,3-6.61,4.45-9.94c0.8-1.27,1.78-2.4,2.61-3.64
			c-0.62-1.66-1.6-0.38-2.12-0.08c-7.03,4.21-11.27,10.58-13.99,18.17c-1.06,2.97-3.38,4.8-6.53,5.33
			c-3.42,0.57-6.48-0.32-8.51-3.21c-1.08-1.53-2.14-1.95-3.9-1.63c-6,1.12-12.13,1.57-17.92,3.77c-2.54,0.96-4.99,1.97-7.06,3.75
			c-7.01,6-14.96,11.03-19.53,19.49c-2.52,4.67-4.72,9.43-5.28,14.8c-0.14,1.35-0.1,2.39,1.35,3.24c1.77,1.04,1.47,2.54-0.25,3.36
			c-1.36,0.65-1.63,1.51-1.59,2.84c0.09,2.56-0.86,5.32,2.21,7.07c0.95,0.54,0.41,1.83-0.45,2.42c-1.12,0.77-0.94,1.56-0.58,2.67
			c2.19,6.61,7.38,10.48,12.77,14.18c1.07,0.73,2.22,1.35,3.34,2.01c3.17,1.89,3.16,1.89,4.64-1.58c1.96-4.61,3.93-9.22,5.93-13.81
			c0.42-0.97,0.36-1.58-0.73-2.05c-1.04-0.45-2.19-1.2-1.64-2.52c0.51-1.21,1.56-2.23,3.1-1.49c1.24,0.6,1.65-0.23,1.9-1.03
			c2.23-7.36,7.81-12.81,11.12-19.56c1.14-2.33,2.26-4.72,4.29-6.54c2.55-2.29,5.36-3.52,8.79-2.71c5.46,1.29,7.88,6.68,5.03,11.52
			c-3.55,6.04-7.22,12-10.99,17.9c-1.57,2.46-2.3,5.22-3.36,7.86c-5.42,13.35-11.18,26.54-17.56,39.46
			c-2.03,4.11-3.77,8.35-4.28,12.99c-0.17,1.53,0.06,2.31,1.9,1.91c1.49-0.32,2.9,0.32,4.23,0.98c8.72,4.32,17.95,7.17,27.35,9.56
			c5.29,1.34,10.42,3.26,15.48,5.29c2.97,1.19,5.96,1.68,9.1,1.82c11.38,0.48,22.64-1.26,33.95-1.85
			c13.93-0.73,27.27-4.29,40.66-7.72c5.74-1.47,10.9-4.43,16.35-6.62c2.28-0.92,4.45-1.4,6.66,0.07c2.48,1.66,2.84,4.8,0.72,6.89
			c-0.55,0.54-1.17,1.05-1.86,1.39c-10.15,4.98-20.78,8.53-31.81,10.97c-6.66,1.47-13.31,2.97-20.07,3.92
			c-4.8,0.67-9.65,1.01-14.47,1.3c-10.71,0.64-21.39,1.99-32.17,1.33c-3.77-0.23-7.32-0.85-10.83-2.33c-8.15-3.44-16.72-5.6-25.22-8
			c-5.48-1.55-10.84-3.44-15.86-6.14c-0.76,1.11,0.07,1.67,0.37,2.3c2.38,5.09,5.15,10.03,8.49,14.48
			c6.76,9.02,15.02,16.34,25.41,21.23c5.3,2.49,10.63,4.45,16.37,5.47c5.21,0.93,10.15,2.85,15.23,4.28
			c5.72,1.61,11.45,3.27,17.49,3.25c0.76,0,1.3-0.28,1.89-0.67c0.98-0.64,1.99-0.62,2.85,0.23c2.52,2.51,5.85,1.61,8.84,2.12
			c0.9,0.15,1.02-0.8,1.49-1.24c1.28-1.21,3.13-1.59,3.68,0.07c0.93,2.77,3.14,2.65,5.1,3.12c1.66,0.4,3.4,0.44,5.32,0.66
			c-0.49-1.53-1.19-2.86,0.43-3.89c0.84-0.54,1.52-0.61,2.39-0.1c1.71,1,1.2,2.42,0.57,4.1c3.1,0,5.95-0.02,8.8,0.01
			c0.99,0.01,1.4-0.2,1.17-1.36c-0.32-1.62,0.69-2.56,2.17-2.54c1.41,0.02,2.64,0.9,2.28,2.49c-0.33,1.48,0.4,1.48,1.33,1.39
			c3.16-0.31,6.66,0.47,8.87-2.9c0.49-0.74,1.51-1.08,2.29-0.33c1.22,1.16,2.46,0.77,3.83,0.42c3.44-0.87,6.88-1.72,10.48-0.77
			c1.35,0.36,2.48-0.59,3.7-1c0.73-0.24,0.55-0.76,0.14-1.19c-1.28-1.34-0.34-2.24,0.69-2.95c1.26-0.86,2.52-0.39,3.05,0.85
			c0.75,1.75,1.61,1.36,3.04,0.89c4.1-1.36,8.27-2.48,12.45-3.59c0.97-0.26,1.63-0.28,1.19-1.58c-0.42-1.27,0.61-1.87,1.54-2.37
			c1.07-0.58,1.81,0.08,2.49,0.78c1.99,2.07,4.4,2.49,7.1,1.44c2.89-1.13,5.84-2.12,8.75-3.18c0.98-0.36,2.05-0.62,1.13-2.12
			c-0.66-1.08,0.22-1.72,1.03-2.31c0.95-0.7,1.91-0.57,2.52,0.3c1.1,1.58,2.2,1.23,3.7,0.56c5.27-2.37,9.83-5.78,14.31-9.36
			c5.77-4.6,11.91-8.59,19.03-10.84c1.15-0.36,2.47-0.54,1.25-2.38c-0.68-1.02,0.57-1.7,1.29-2.21c1.05-0.75,2.26-0.3,2.66,0.69
			c0.85,2.12,2.22,1.52,3.71,1.12c0.91-0.24,1.87-0.37,2.81-0.43c3.25-0.2,5.91-1.12,6.87-4.73c0.31-1.15,1.22-2.08,2.13-2.91
			c1.55-1.41,2.81-3.08,3.69-4.97c0.57-1.23,1.73-2.68-0.84-3.32c-0.82-0.2-1.76-1.18-1.25-2.22c0.51-1.05,1.37-2.27,2.83-1.57
			c1.5,0.72,1.82-0.13,2.19-1.2c1.4-4,1.82-8.27,3.39-12.22c0.2-0.51,0.17-1.09-0.22-1.48c-1.69-1.69-1.08-2.9,0.77-3.83
			c0.78-0.39,1.06-1.01,1.28-1.81c0.53-2,1.17-3.98,1.77-5.96c0.97-2.2,1.18-4.63,2.06-6.86c0.18-3.08,1.44-5.9,2.59-8.65
			c1.72-4.13,6.04-5.51,11.65-4.32c0.58-2.99,2.09-3.97,3.95-2.59c1.48,1.09,1.72,2.2,0.05,3.23c-1.22,0.75-1.12,1.22-0.47,2.55
			c1.67,3.39,1.7,6.94,0.08,10.53c-0.98,2.18-1.51,4.57-2.17,6.89c-0.37,1.29,0.76,1.22,1.52,1.56c1.04,0.46,1.6,1.22,1.21,2.49
			c-0.36,1.18-1.26,2.06-2.24,1.68c-2.54-0.97-2.49,0.89-2.86,2.29c-1.49,5.75-2.84,11.55-4.41,17.28
			c-2.4,8.77-4.7,17.63-12.11,23.87c-0.93,0.78-0.14,1.34,0.14,2.01c2.58,6.11,2.42,12.55,1.95,18.93
			c-0.32,4.22-2.84,7.52-6.36,10.16c3.05,2.75,6.16,5.31,7.92,8.98c2.85,5.96,4.66,12.03,0.72,18.26c-0.56,0.89-0.17,1.18,0.46,1.6
			c1.51,0.99,3.01,1.97,4.74,2.62c8.31,3.15,14.06,9.49,19.93,15.8c8.49,9.15,13.03,20.43,17.08,31.81
			c4.78,13.41,9.53,26.86,13.62,40.53c2.42,8.1,5.12,16.14,7.84,24.16c0.72,2.12,0.61,4.48,2.15,6.9
			c2.24-5.27,4.37-10.26,6.47-15.26c2.98-7.11,4.51-14.71,7.05-21.93c3.52-10,5.11-20.28,6.61-30.63
			c2.31-15.94,2.75-31.98,1.87-48.03c-1.17-21.11-4.75-41.78-11.81-61.8c-8.98-25.47-21.31-49.12-37.96-70.44
			c-6.3-8.07-13.03-15.79-20.51-22.79c-1.95-1.83-1.67-4.68-3.65-6.35c-0.15-0.12-0.09-0.75,0.09-0.96
			c2.56-3.06,1.08-6.49,0.57-9.64c-0.38-2.39-0.16-4.74-0.68-7.45c3.15,2.01,5.46,4.46,7.89,6.71
			c39.95,37.18,65.72,82.45,76.91,135.88c5.59,26.69,6.63,53.64,3.43,80.75c-6.09,51.52-25.96,97.1-59.82,136.32
			c-37.33,43.24-84.12,70.91-140.01,83.02C336.58,694.72,322.32,696.47,307.9,696.94z"/>
		<path d="M435.85,294.27c0.58-1.04-0.11-1.52-0.83-2.07c-0.96-0.73-1.27-1.65-0.33-2.65c0.76-0.81,1.58-1.32,2.75-0.71
			c0.67,0.35,1.21,1.88,2.04,0.83c0.91-1.14,2.32-2.35,1.88-4.05c-0.29-1.12-0.19-1.88,0.73-2.45c3.43-2.13,3.79-5.46,3.71-9.04
			c-1.18-0.26-2.31,0.84-3.3-0.23c-0.59-0.63-1.38-1.17-1.02-2.2c0.32-0.91,1.17-1.12,1.93-0.92c2.33,0.63,2.42-0.59,2.5-2.45
			c0.49-11.34-2.68-21.73-8.48-31.28c-3.56-5.86-8.83-10.12-15.03-13.18c-6.13-3.02-12.19-6.16-18.86-7.89
			c-2.05-0.53-3.63-2.11-3.6-4.29c0.03-2.18,1.22-4.09,3.03-5.46c0.52-0.4,1.13-0.21,1.74-0.06c3.03,0.73,6.09,1.34,8.93,2.69
			c0.64,0.31,1.21,0.71,1.6-0.38c0.63-1.73,1.8-2.65,3.58-1.48c1.71,1.12,1.28,2.45-0.29,3.73c2.15,0.81,3.85,1.82,5.89,2.39
			c2.33,0.64,4,2.86,6.26,3.97c6.71,3.32,11.49,8.8,15.9,14.63c1.03,1.36,1.71,3,2.6,4.47c0.77,1.27,1.18,2.68,3.11,3.1
			c1.42,0.31,2.21,1.81,0.74,3.22c-0.81,0.77-0.6,1.4-0.27,2.3c1.39,3.83,2.57,7.73,3.05,11.79c0.11,0.98,0.19,1.66,1.53,1.38
			c1.51-0.32,2.56,0.51,2.8,1.99c0.24,1.52-0.83,2.28-2.16,2.33c-1.37,0.04-1.56,0.68-1.48,1.81c0.09,1.21,0.13,2.43,0.04,3.64
			c-0.11,1.49-0.11,2.69,1.85,2.98c0.92,0.14,1.7,0.97,1.62,2.08c-0.08,1.08-0.86,1.83-1.84,1.91c-1.56,0.12-1.74,0.93-1.73,2.24
			c0.02,3.42-1.59,6.35-3.2,9.21c-0.55,0.96-0.87,1.95-1.24,2.94c-0.16,0.23-0.13,0.46,0.01,0.68c0.45,0.67,1.19,1.28,0.44,2.19
			c-0.91,1.1-1.26-0.88-2.05-0.37c-4.64,7.75-10.78,14.11-18.23,19.12c-4.64,3.12-9.62,5.71-14.34,8.7
			c-7.98,5.06-17.08,6.92-26,9.29c-2.08,0.55-4.14,1.19-6.36,1.2c-1.91,0.01-3.61-0.3-5.04-1.61c-0.54-0.49-1.13-0.73-1.86-0.77
			c-2.44-0.13-4.08-1.35-4.72-3.73c-0.55-2.04,0.45-3.66,1.96-4.74c1.88-1.35,4.19-1.64,6.1-0.21c1.73,1.29,3.04,1.88,4.56-0.09
			c0.32-0.42,0.89-0.47,1.44-0.42c6.84,0.63,12.87-1.98,18.8-4.83c1.7-0.82,3.68-0.89,5.21-2.15c0.76-0.62,1.74-0.68,1.32-2.28
			c-0.44-1.7,1.57-2.73,3.39-1.95c1.06,0.45,4.42-0.69,4.89-1.64c0.33-0.66-0.17-0.9-0.57-1.23c-1.1-0.91-1.1-1.87-0.07-2.85
			c0.96-0.92,2.29-1.22,2.94-0.11c1.58,2.74,2.9,1.03,4.33,0.02c0.63-0.44,1.26-0.88,1.89-1.32
			C432.03,298.17,434.39,296.68,435.85,294.27z"/>
		<path d="M330.64,282.44c4.01,7.29,7.76,14.73,15.38,19.22c3.34,1.97,6.44,4.34,10.08,5.81c0.97,0.39,1.9,1.14,2.01-0.85
			c0.06-1.12,1.1-1.73,2.24-1.78c0.96-0.04,1.62,0.62,2.07,1.37c0.62,1.02,0.18,1.83-0.73,2.42c-0.89,0.57-0.75,1.12,0.06,1.51
			c1.51,0.73,2.82,2.02,4.81,1.31c1.43-0.51,2.39,0.55,2.79,1.72c1.52,4.39-2.06,8.65-6.68,7.99c-4.32-0.62-7.76-3.31-11.57-5.11
			c-5.39-2.55-10.44-5.73-15.34-9.18c-2.99-2.1-5.38-4.68-7.31-7.64c-3.25-4.99-6.62-9.95-8.47-15.69
			c-2.78-8.65-5.66-17.27-4.06-26.62c2.23-12.99,6.44-25.08,15.46-35.05c3.69-4.07,8.31-6.9,13.41-8.62
			c7.46-2.5,14.63-5.8,22.27-7.76c2.86-0.73,5.71-1.45,8.69-1.27c3.83,0.24,7.53-1.21,11.37-0.88c0.69,0.06,1.39-0.01,2.08,0.03
			c3.33,0.19,5.51,2.03,5.57,4.66c0.06,2.45-1.94,4.42-5.16,4.88c-2.82,0.4-5.73,0.68-8.49,0.68c-9.33,0.01-17.67,3.46-26.2,6.4
			c-3.92,1.35-7.95,2.48-11.43,4.86c-6.09,4.16-9.75,10.17-12.5,16.79c-3.04,7.33-4.97,14.93-4.7,22.93
			c0.1,2.98,0.41,5.86,2.11,8.65c1.14,1.88,0.93,4.59,1.32,6.93C330.09,280.9,330.34,281.69,330.64,282.44z"/>
		<path class="st3" d="M395.11,231.77c2.34-0.01,4.49,0.53,5.94,2.51c2.4,3.27,0.59,7.48-3.95,9.37c-2.73,1.13-5.65,0.55-7.64-1.43
			c-1.88-1.88-2.07-4.17-1.35-6.47C388.86,233.35,391.92,231.77,395.11,231.77z"/>
		<path class="st4" d="M159.28,247.37c-2.3,0.21-4.71-0.45-6.1-3.11c-1.24-2.35-0.71-4.58,1.32-6.25c2.91-2.39,7.03-2.48,9.81-0.21
			c2.05,1.68,2.65,3.9,1.84,6.29c-0.73,2.14-2.54,3.2-4.83,3.28C160.8,247.38,160.28,247.37,159.28,247.37z"/>
		<path class="st5" d="M229.64,331.68c0.07,2.54-2.26,4.85-4.97,4.94c-2.55,0.09-5.25-2.33-5.26-4.7c0-2.37,2.62-4.77,5.21-4.77
			C227.35,327.15,229.58,329.16,229.64,331.68z"/>
		<path class="st6" d="M210.67,330.89c-0.07,2.56-2.49,4.69-5.26,4.62c-2.78-0.07-4.85-2.11-4.79-4.71
			c0.06-2.64,2.37-4.67,5.22-4.61C208.56,326.25,210.73,328.35,210.67,330.89z"/>
		<path class="st7" d="M447.28,305.7c-0.69,2.29,0.19,5.04-2.06,6.86c-0.2-0.42,0.46-1.86-0.87-0.95c-1.76,1.21-2.78,0.21-3.64-1.01
			c-0.64-0.9-0.13-1.86,0.72-2.46c1.37-0.97,2.59-0.72,3.56,0.65c0.15,0.21,0.28,0.44,0.49,0.8
			C446.29,308.17,446.23,306.67,447.28,305.7z"/>
		<path class="st8" d="M435.85,294.27c-1.21,2.65-3.1,4.63-5.82,5.76c0.14-0.59,0.04-0.91-0.68-1.06c-1.27-0.26-2.36-1.02-2.19-2.42
			c0.12-1.05,1.06-1.9,2.19-1.88c1.48,0.02,2.34,0.94,2.5,2.45c0.02,0.16,0.11,0.31,0.26,0.71
			C433.4,296.6,434.63,295.43,435.85,294.27z"/>
		<path class="st9" d="M330.64,282.44c-1.27-0.38-0.94-1.39-0.89-2.29c0.74,0.69,1.14,0.22,1.6-0.4c1.03-1.37,2.28-1.5,3.54-0.35
			c0.69,0.63,1.5,1.39,0.59,2.42c-1.04,1.18-2.2,2.08-3.71,0.63C331.38,282.08,331.03,282.17,330.64,282.44z"/>
		<path class="st10" d="M407.79,355.09c-1.27-0.26-2.4-0.79-2.55-2.18c-0.16-1.45,0.84-2.32,2.15-2.4c1.41-0.09,2.59,0.73,2.71,2.2
			C410.2,354.13,408.98,354.68,407.79,355.09z"/>
		<path class="st11" d="M146.98,278.39c1.46,0.33,2.58,1.06,2.54,2.39c-0.04,1.29-1.07,2.27-2.44,2.21
			c-1.42-0.06-2.58-0.88-2.52-2.43C144.62,279.11,145.93,278.73,146.98,278.39z"/>
		<path class="st12" d="M156.22,287.44c-0.27,1.34-1.09,2.17-2.48,2.07c-1.44-0.1-2.51-0.97-2.39-2.48c0.1-1.4,1.31-2.07,2.57-1.99
			C155.2,285.12,156.06,286.02,156.22,287.44z"/>
		<path class="st13" d="M459.87,285.37c-0.46,1.25-1.23,2.23-2.61,2.14c-1.46-0.09-2.53-1.02-2.37-2.53
			c0.14-1.32,1.25-2.09,2.6-1.98C458.83,283.12,459.6,284.03,459.87,285.37z"/>
		<path class="st14" d="M460.61,234.99c-0.24,1.28-0.9,2.35-2.28,2.39c-1.34,0.04-2.4-0.93-2.54-2.18c-0.16-1.37,0.9-2.21,2.25-2.34
			C459.49,232.74,460.25,233.63,460.61,234.99z"/>
		<path class="st15" d="M387.85,305.69c1.37,0.22,2.46,0.98,2.5,2.27c0.04,1.34-1.09,2.23-2.41,2.22c-1.31-0.01-2.44-0.9-2.47-2.21
			C385.44,306.64,386.57,305.94,387.85,305.69z"/>
		<path class="st13" d="M464.44,276.91c1.42,0.34,2.57,1.23,2.46,2.59c-0.1,1.22-1.38,2.06-2.67,1.93
			c-1.25-0.13-2.37-1.03-2.29-2.37C462.03,277.78,463.13,277.08,464.44,276.91z"/>
		<path class="st16" d="M342.57,287.57c-0.35,1.27-1.18,2.16-2.54,2.1c-1.33-0.05-2.38-0.94-2.36-2.3c0.02-1.39,1.21-2.21,2.47-2.18
			C341.42,285.22,342.33,286.13,342.57,287.57z"/>
		<path class="st11" d="M346.89,291.7c1.27,0.25,2.39,0.95,2.38,2.3c-0.02,1.33-1.15,2.24-2.45,2.2c-1.29-0.03-2.42-1.01-2.42-2.28
			C344.39,292.62,345.49,291.85,346.89,291.7z"/>
		<path class="st17" d="M353.47,298.15c1.4,0.18,2.46,1.03,2.55,2.25c0.1,1.32-1.02,2.22-2.34,2.28c-1.37,0.06-2.41-0.91-2.51-2.15
			C351.06,299.17,352.27,298.53,353.47,298.15z"/>
		<path class="st18" d="M156.75,274.74c-0.5,1.23-1.28,2.25-2.64,2.18c-1.29-0.07-2.44-0.98-2.38-2.31
			c0.07-1.26,1.11-2.19,2.51-2.15C155.63,272.51,156.35,273.5,156.75,274.74z"/>
		<path class="st16" d="M431.21,334.69c-0.47,1.22-1.18,2.24-2.59,2.12c-1.33-0.11-2.36-1.04-2.3-2.37c0.06-1.33,1.14-2.2,2.51-2.11
			C430.15,332.43,430.99,333.3,431.21,334.69z"/>
		<path class="st19" d="M428.45,344.79c1.25,0.34,2.41,1.02,2.45,2.3c0.04,1.46-1.12,2.33-2.55,2.29c-1.34-0.04-2.31-1.08-2.32-2.32
			C426.02,345.76,427.22,345.13,428.45,344.79z"/>
		<path class="st20" d="M397.1,199.47c1.24,0.33,2.43,0.92,2.39,2.3c-0.04,1.3-1.07,2.23-2.4,2.23c-1.34-0.01-2.33-0.95-2.37-2.27
			C394.67,200.32,395.81,199.73,397.1,199.47z"/>
		<path class="st21" d="M460.48,247.63c-0.33,1.41-1.24,2.24-2.54,2.25c-1.33,0.01-2.32-0.86-2.36-2.26
			c-0.04-1.51,1.12-2.14,2.4-2.18C459.35,245.4,460.07,246.43,460.48,247.63z"/>
		<path class="st7" d="M319.43,393.83c-0.37,1.31-1.2,2.2-2.51,2.21c-1.43,0.01-2.59-0.9-2.58-2.32c0.01-1.38,1.36-1.95,2.58-2.04
			C318.33,391.57,318.97,392.64,319.43,393.83z"/>
		<path class="st6" d="M149.94,268.08c-0.34,1.36-1.16,2.19-2.37,2.21c-1.34,0.02-2.4-0.81-2.42-2.21c-0.01-1.3,1.11-2.07,2.26-2.12
			C148.74,265.91,149.5,266.96,149.94,268.08z"/>
		<path class="st14" d="M177.94,256.63c-0.37,1.29-1.1,2.27-2.49,2.16c-1.37-0.11-2.6-0.92-2.47-2.42c0.11-1.29,1.28-2.14,2.57-2.03
			C176.78,254.45,177.73,255.25,177.94,256.63z"/>
		<path class="st22" d="M163.39,281.15c-0.41,1.41-1.19,2.36-2.58,2.25c-1.28-0.11-2.41-0.93-2.34-2.3c0.07-1.31,1.17-2.2,2.49-2.16
			C162.28,278.97,163.03,279.97,163.39,281.15z"/>
		<path class="st23" d="M435.94,313.59c1.35,0.22,2.39,0.98,2.47,2.29c0.09,1.42-1.09,2.24-2.34,2.27
			c-1.27,0.03-2.39-0.81-2.41-2.21C433.63,314.57,434.58,313.79,435.94,313.59z"/>
		<path class="st24" d="M431.51,321.88c-0.39,1.48-1.22,2.41-2.58,2.32c-1.27-0.09-2.4-0.9-2.38-2.29c0.01-1.42,1.12-2.12,2.47-2.13
			C430.46,319.76,431.07,320.81,431.51,321.88z"/>
		<path class="st25" d="M435.71,326.2c1.28,0.27,2.37,0.96,2.43,2.28c0.06,1.37-0.99,2.22-2.32,2.25c-1.35,0.03-2.37-0.9-2.46-2.18
			C433.26,327.14,434.5,326.6,435.71,326.2z"/>
		<path class="st25" d="M397.2,314.48c-0.54,1.33-1.36,2.23-2.73,2.11c-1.2-0.11-2.23-0.85-2.22-2.14c0.01-1.43,1.13-2.17,2.43-2.17
			C396.04,312.29,396.75,313.32,397.2,314.48z"/>
		<path class="st25" d="M333.74,270.71c-1.28-0.28-2.38-1-2.48-2.26c-0.1-1.35,1.02-2.23,2.31-2.26c1.28-0.02,2.41,0.81,2.51,2.13
			C336.2,269.76,334.87,270.21,333.74,270.71z"/>
		<path class="st26" d="M345.61,162.47c-0.44,1.22-1.16,2.19-2.53,2.18c-1.34-0.01-2.37-0.88-2.46-2.15
			c-0.1-1.35,0.99-2.25,2.26-2.32C344.31,160.09,345.13,161.15,345.61,162.47z"/>
		<path class="st27" d="M381.98,377.11c-0.41,1.29-1.27,2.14-2.59,2.11c-1.36-0.03-2.33-1-2.3-2.32c0.03-1.36,1.16-2.2,2.46-2.14
			C380.86,374.81,381.62,375.83,381.98,377.11z"/>
		<path class="st14" d="M376.68,307.5c-0.42,1.3-1.19,2.24-2.57,2.21c-1.37-0.03-2.38-0.95-2.39-2.29
			c-0.01-1.38,1.11-2.21,2.44-2.18C375.5,305.27,376.24,306.29,376.68,307.5z"/>
		<path class="st28" d="M417.19,346.8c-0.43,1.23-1.27,2.17-2.57,2.12c-1.28-0.05-2.34-0.96-2.31-2.31
			c0.03-1.37,1.12-2.18,2.44-2.11C416.03,344.57,416.92,345.41,417.19,346.8z"/>
		<path class="st23" d="M315.29,188.62c-1.58-0.15-2.62-0.95-2.72-2.19c-0.12-1.38,1.14-2.19,2.33-2.29c1.3-0.11,2.38,0.9,2.5,2.14
			C317.54,187.68,316.24,188.19,315.29,188.62z"/>
		<path class="st29" d="M321.98,178.1c1.32,0.3,2.48,1,2.47,2.32c-0.01,1.33-1.19,2.18-2.49,2.14c-1.3-0.03-2.43-0.92-2.43-2.24
			C319.54,178.97,320.73,178.35,321.98,178.1z"/>
		<path class="st17" d="M331.64,174.37c-0.57,1.37-1.43,2.38-2.72,2.28c-1.23-0.1-2.4-1.05-2.33-2.37c0.07-1.29,1.18-2.16,2.53-2.09
			C330.48,172.26,331.12,173.35,331.64,174.37z"/>
		<path class="st30" d="M410.83,199.87c1.23,0.35,2.35,1.05,2.43,2.3c0.09,1.36-1.08,2.16-2.34,2.24c-1.47,0.09-2.55-0.92-2.57-2.3
			C408.34,200.79,409.61,200.22,410.83,199.87z"/>
		<path class="st19" d="M380.95,316.28c-1.22-0.19-2.32-0.84-2.49-2.12c-0.19-1.42,1.03-2.24,2.21-2.38
			c1.49-0.18,2.46,1.05,2.53,2.32C383.25,315.16,382.26,316.04,380.95,316.28z"/>
		<path class="st31" d="M421.6,355.48c-1.4-0.13-2.42-0.98-2.53-2.17c-0.13-1.3,0.97-2.22,2.27-2.3c1.35-0.08,2.37,0.9,2.5,2.11
			C423.99,354.5,422.78,355.1,421.6,355.48z"/>
		<path class="st16" d="M424.3,340.48c-0.44,1.39-1.2,2.35-2.54,2.39c-1.38,0.04-2.36-0.96-2.43-2.22
			c-0.07-1.35,0.98-2.22,2.35-2.25C423.07,338.37,423.74,339.41,424.3,340.48z"/>
		<path class="st15" d="M163.82,268.7c-0.55,1.16-1.21,2.27-2.61,2.17c-1.31-0.09-2.45-1.01-2.4-2.29c0.05-1.23,1.15-2.19,2.51-2.17
			C162.68,266.44,163.34,267.5,163.82,268.7z"/>
		<path class="st16" d="M168.45,264.87c-1.42-0.14-2.5-0.98-2.54-2.19c-0.05-1.4,1.11-2.37,2.55-2.3c1.28,0.06,2.37,0.98,2.36,2.27
			C170.81,263.95,169.68,264.63,168.45,264.87z"/>
		<path class="st9" d="M424.37,328.2c-0.47,1.1-1.12,2.12-2.39,2.04c-1.3-0.08-2.41-0.92-2.4-2.27c0.01-1.36,1.15-2.21,2.45-2.17
			C423.38,325.85,424,327.01,424.37,328.2z"/>
		<path class="st32" d="M406.55,195.79c-0.47,1.13-1.12,2.11-2.39,2.12c-1.39,0.01-2.41-0.98-2.47-2.22
			c-0.06-1.19,1.04-2.06,2.26-2.05C405.25,193.66,406.13,194.52,406.55,195.79z"/>
		<path class="st22" d="M369.85,300.96c-0.27,1.4-1.27,2.27-2.49,2.26c-1.23-0.01-2.33-0.93-2.4-2.3c-0.06-1.15,0.75-2.01,1.94-1.97
			C368.23,298.99,369.48,299.4,369.85,300.96z"/>
		<path class="st29" d="M401.75,310.7c-1.3-0.27-2.43-0.89-2.45-2.25c-0.02-1.36,1.05-2.24,2.35-2.25c1.3-0.01,2.37,0.92,2.45,2.21
			C404.18,309.82,402.99,310.39,401.75,310.7z"/>
		<path class="st8" d="M439.17,278.29c-0.4,1.24-1.09,2.25-2.48,2.15c-1.33-0.09-2.23-1.04-2.25-2.37
			c-0.01-1.34,1.05-1.96,2.25-1.97C438.03,276.1,438.84,276.96,439.17,278.29z"/>
		<path class="st26" d="M390.54,197.54c-1.59-0.12-2.15-1.17-2.25-2.44c-0.11-1.36,0.88-2.18,2.04-2.14
			c1.22,0.05,2.37,0.89,2.43,2.24C392.82,196.61,391.67,197.2,390.54,197.54z"/>
		<path class="st5" d="M333.55,168.47c0.26-1.22,1.01-2.06,2.18-2.22c1.4-0.2,2.44,0.82,2.64,1.96c0.23,1.34-0.96,2.23-2.2,2.35
			C334.83,170.7,334.08,169.64,333.55,168.47z"/>
		<path class="st14" d="M307.9,190.07c1.29,0.26,2.43,0.96,2.47,2.23c0.04,1.28-0.99,2.18-2.34,2.26c-1.16,0.06-2.11-0.6-2.1-1.77
			C305.95,191.58,306.51,190.46,307.9,190.07z"/>
		<path class="st20" d="M409.17,300.6c1.33-0.01,1.98,0.79,1.98,1.75c-0.01,1.35-1.01,2.18-2.33,2.27
			c-1.23,0.08-2.39-0.73-2.47-1.81C406.22,300.93,408.35,301.41,409.17,300.6z"/>
		<path class="st18" d="M359.43,381.64c1.08-0.16,1.77,0.16,1.62,1.18c-0.18,1.25-1.16,1.99-2.3,2.08c-1.19,0.1-2.52-0.76-2.38-1.83
			C356.6,381.46,358.49,382.12,359.43,381.64z"/>
		<path class="st16" d="M403.12,358.99c-0.41,1.26-1.27,2.05-2.62,2.04c-0.72-0.01-1.85-0.33-1.43-1.3
			c0.47-1.11,0.96-2.64,2.38-2.77C402.45,356.86,402.94,357.93,403.12,358.99z"/>
		<path class="st26" d="M386.53,373.25c-0.96-0.13-2.17-0.53-1.82-1.41c0.5-1.27,2.09-1.6,3.35-1.97c0.7-0.2,1.08,0.56,0.96,1.19
			C388.76,372.4,387.79,373.04,386.53,373.25z"/>
		<path class="st5" d="M338.77,387.48c0.81-0.1,1.48,0.05,1.36,0.84c-0.18,1.23-1.08,2.01-2.27,2.11c-1.08,0.09-2.41-0.63-2.22-1.6
			C335.95,387.27,337.94,388.32,338.77,387.48z"/>
		<path class="st33" d="M417.52,334.18c-0.42,1.27-1.23,2.11-2.57,2.21c-0.65,0.05-1.34-0.42-1-1.1c0.53-1.09,0.71-2.68,2.14-2.92
			C417.09,332.21,417.3,333.35,417.52,334.18z"/>
		<path class="st34" d="M418.29,296.24c-0.26,1.38-1.1,2.17-2.4,2.39c-0.69,0.11-1.73-0.08-1.6-0.83c0.24-1.37,1.7-1.82,2.77-2.44
			C417.74,294.97,418.08,295.65,418.29,296.24z"/>
		<path class="st35" d="M432.3,284.37c-0.31,1.25-1.17,2.02-2.45,2.27c-0.51,0.1-1.26-0.19-0.94-0.81c0.58-1.1,1.13-2.41,2.44-2.79
			C432.07,282.82,432.19,283.69,432.3,284.37z"/>
		<path class="st36" d="M337.88,274.84c0.25-0.8,0.71-1.9,1.33-1.73c1.48,0.41,0.95,2.14,1.53,3.21c0.22,0.41-0.21,0.88-0.69,0.77
			C338.85,276.82,338.24,275.92,337.88,274.84z"/>
		<path class="st37" d="M304.06,393.52c0.77-0.23,1.32-0.05,1.19,0.61c-0.2,1.03-1.05,1.53-2.04,1.66
			c-0.94,0.12-2.09-0.33-1.96-1.17C301.51,392.93,303.4,394.39,304.06,393.52z"/>
		<path class="st38" d="M396.22,364.89c-0.27,1.26-1.16,1.99-2.35,2.38c-0.5,0.16-1.29-0.01-1.1-0.59c0.4-1.23,1.6-1.88,2.63-2.55
			C395.8,363.87,396.11,364.39,396.22,364.89z"/>
		<path class="st39" d="M464.81,242.8c0.16,0.6-0.19,1.02-0.6,0.9c-0.98-0.28-1.54-1.08-1.71-2.06c-0.11-0.63,0.12-1.43,0.84-1.29
			C464.63,240.6,464.28,242.04,464.81,242.8z"/>
		<path class="st20" d="M168.85,252.5c-0.77-0.1-1.35-0.27-1.12-0.93c0.4-1.11,1.65-1.03,2.51-1.51c0.38-0.22,0.85,0.2,0.72,0.71
			C170.66,251.96,169.45,251.97,168.85,252.5z"/>
		<path class="st40" d="M424.61,290.05c0.42,0.11,0.8,0.26,0.7,0.67c-0.27,1.1-1.06,1.74-2.11,2.01c-0.31,0.08-0.74-0.14-0.59-0.59
			C422.94,291.12,423.72,290.48,424.61,290.05z"/>
		<path class="st41" d="M262.52,393.82c-0.04,0.68-0.41,1.01-1.01,0.92c-0.69-0.1-1.41-0.36-1.55-1.14
			c-0.13-0.73,0.5-0.78,1.02-0.78C261.7,392.84,262.34,393.01,262.52,393.82z"/>
		<path class="st42" d="M450.38,291.63c0.75-2.5,1.2,0.65,1.68,0.3c1.04-1.16-1.31-1.81-0.08-2.8c0.17,0.29,0.31,0.62,0.53,0.87
			c0.74,0.84,0.86,1.67,0.01,2.48C451.22,293.71,451.19,291.68,450.38,291.63z"/>
		<path class="st34" d="M247.57,393.93c-0.53-0.06-1.06-0.16-0.92-0.7c0.31-1.14,1.41-1.06,2.29-1.25c0.36-0.08,0.76,0.06,0.67,0.49
			C249.37,393.6,248.38,393.72,247.57,393.93z"/>
		<path class="st43" d="M156.23,263.19c-0.48,1.09-1.1,1.87-2.3,1.32c-0.22-0.1-0.48-0.65-0.39-0.83
			C154.17,262.41,155.27,263.22,156.23,263.19z"/>
		<path class="st44" d="M225.54,196.43c-0.49,1.49-1.43,2.65-2.61,3.64C223.31,198.5,224.37,197.43,225.54,196.43z"/>
		<path class="st45" d="M469.79,285.52c-0.01,0.54-0.1,1.1-0.78,1.08c-0.54-0.01-0.98-0.33-0.94-0.96c0.04-0.61,0.5-0.89,1.02-0.96
			C469.66,284.61,469.75,285.08,469.79,285.52z"/>
		<path class="st46" d="M409.32,373.48c4.2-2.07,8.52-3.85,13.13-4.76c1.09-0.22,2.27-0.43,3.33-0.23c0.96,0.18,2.2,0.88,0.8,2.1
			c-1.78,1.55-1.07,2.68,0.47,3.71c2.25,1.5,2.36,5.92,0.28,7.59c-4.44,3.55-9.23,6.72-13.05,11.01c-0.31,0.35-0.78,0.79-1.03,0.42
			c-1.07-1.59-4.02-0.57-4.33-3.39c-0.12-1.08-1.55-1.98-2.92-1.27c-1.1,0.57-2.09,1.38-1.14,2.89c0.83,1.3-0.12,1.38-1.07,1.54
			c-6.62,1.09-12.49,3.93-17.93,7.75c-2.75,1.93-3.8,5.76-2.31,8.73c0.49,0.97,1.47,1.87,2.5,1.42c2.2-0.97,4.69-1.04,6.71-2.61
			c2.74-2.13,5.85-3.66,9.21-4.67c1.11-0.33,1.99-0.4,2.68,0.74c0.61,1.01,1.61,1.36,2.71,0.94c1.02-0.39,1.64-1.11,1.69-2.35
			c0.1-2.32,2.56-1.87,3.8-2.89c0.91-0.74,1.17,0.85,1.65,1.47c1.35,1.75,3.34,2.72,4.99,4.1c0.69,0.57,1.45,0.17,2.21-0.07
			c4.55-1.45,8.99,0.89,10.4,5.45c0.29,0.93,0.42,1.85-0.23,2.73c-1.29,1.74-2.51,3.48-2.36,5.85c0.06,0.99-0.88,0.85-1.56,0.76
			c-3.99-0.48-7.94-0.23-11.85,0.71c-0.25,0.06-0.52,0.13-0.75,0.09c-1.05-0.21-2.02-1.64-3.08-0.7c-1.52,1.36-2.91,2.93-4.06,4.61
			c-0.58,0.86-0.81,1.56-2.06,1.35c-1.17-0.2-1.97,0.62-2.4,1.62c-0.37,0.85,0.28,1.44,0.85,2c0.87,0.85,1.77,1.08,2.73,0.21
			c0.7-0.64,1.28-0.68,1.99,0.06c1.33,1.4,3.25,1.83,4.8,1.2c2.85-1.15,5.81-0.08,8.78-1.25c2.86-1.13,6.23,0.64,9.38,0.95
			c3.64,0.36,5.04,2.66,6.11,5.61c0.26,0.72,1.04,1.39,1.82,1.3c2.26-0.25,3.84,1.41,5.81,1.7c0.37,1.25-0.96,1.44-1.07,2.33
			c-0.15,1.29,0.61,1.98,1.53,2.47c1.37,0.74,2.62-0.1,2.98-1.18c0.61-1.85,1.25-1.15,2.13-0.4c1.31,1.12,2.63,2.23,3.94,3.34
			c0.76,1.36-0.35,1.25-1.11,1.39c-0.87,0.16-1.75,0.34-1.83,1.44c-0.04,0.57,0.39,0.93,0.87,1.16c0.96,0.46,1.74,0.08,2.21-0.73
			c1.31-2.26,2.2-0.95,3.13,0.29c3.75,4.64,7.46,9.3,9.66,14.95c1.63,4.17,3.21,8.36,5.03,12.44c0.6,1.35,0.3,1.93-0.67,2.8
			c-1.45,1.3-0.82,3.7,1,3.55c3.26-0.27,3.07,2.27,3.56,3.94c0.87,2.97,1.43,6.03,2.62,8.91c0.46,1.1,0.49,2.02-0.61,2.98
			c-1.46,1.28-0.97,3.48,0.78,3.42c3.44-0.12,3.16,2.72,3.9,4.46c1.24,2.93,1.84,6.12,2.87,9.14c0.38,1.11-0.07,1.5-0.8,2.12
			c-1.7,1.45-1.35,3.4,0.84,3.7c2.21,0.31,2.53,1.71,3,3.3c1,3.39,1.97,6.79,3.11,10.14c0.33,0.97,0.27,1.48-0.45,2.25
			c-1.71,1.82-1.29,3.36,1.17,3.72c1.41,0.21,1.67,0.85,1.9,1.91c0.91,4.14,1.93,8.26,3.34,12.26c0.26,0.72,0.36,1.18-0.27,1.82
			c-1.08,1.1-0.91,2.11,0.49,2.95c3.17,1.93,3.89,7.05,0.26,9.19c-0.94,0.55-1.61,1.24-1.56,2.69c0.05,1.41-1.23,2.6-2.08,3.79
			c-0.71,0.98-1.14-0.1-1.68-0.3c-0.48-0.18-1.02-0.44-1.42,0.08c-0.31,0.4-0.05,0.82,0.19,1.18c1.1,1.61,0.34,2.86-0.64,4.22
			c-6.69,9.19-13.99,17.83-21.83,26.09c-3.13,3.3-6.99,5.82-9.69,9.55c-0.88,1.22-2.01,2.41-3.77,2.55
			c-0.37,0.03-0.82,0.37-1.05,0.7c-5.12,7.07-12.39,11.68-19.27,16.68c-13.46,9.79-27.99,17.75-43.19,24.49
			c-0.9,0.4-1.93,1.51-2.46-0.55c-1.62-6.29-3.99-12.33-6.12-18.46c-2.57-7.38-3.47-15.15-5.09-22.76
			c-1.35-6.36-2.31-12.77-3.51-19.15c-1.09-5.78-2.11-11.57-3.33-17.33c-2.32-10.98-5.07-21.86-8.1-32.65
			c-2.05-7.32-5.23-14.32-7.31-21.63c-1.95-6.86-4.68-13.36-7.35-19.94c-1.87-4.61-2.74-9.7-5.27-14.04
			c-4.5-7.73-7.43-16.33-13.24-23.32c-4.02-4.85-8.91-8.67-13.9-12.41c-0.26-0.2-0.5-0.43-0.98-0.84
			c5.24-1.91,10.16-3.99,15.25-5.48c6.7-1.96,12.75-5.06,18.84-8.44c9.41-5.23,18.73-10.93,29.52-13.19
			c1.6-0.34,3.12-1.06,3.85-2.75c0.39-0.79,0.6-1.73,0.42-2.49c-0.36-1.58-0.01-2.64,1.4-3.47c0.76-0.44,1.03-1.21,0.32-1.97
			c-0.63-0.68-1.65-0.84-2.04-0.12c-1.2,2.26-3.16,1.43-4.92,1.51c-1.02,0.05-2.07-0.27-3.06,0.23c-1.14-0.07-2.13,0.41-3.14,0.84
			c-1.41,0-0.55-0.93-0.5-1.4c0.1-0.88-0.04-1.55-0.9-1.92c-0.52-0.22-1.04-0.12-1.42,0.31c-0.57,0.66-0.29,1.32,0.15,1.89
			c1.41,1.8,0.4,2.27-1.28,2.65c-1.53,0.35-2.87,1.6-4.65,0.6c-0.59-0.33-1.66,0.21-1.77,0.73c-0.45,2.16-2.33,2.3-3.82,3.02
			c-5.7,2.52-11.03,5.73-16.38,8.89c-7.03,4.15-14.96,5.88-22.47,8.72c-4.68,1.77-9.5,3.12-14.34,4.45
			c-3.31,0.91-6.44,2.34-9.99,2.66c-2.12,0.19-3.76,2.9-3.59,4.83c0.19,2.13,2.12,4.24,4.46,4.45c3.02,0.27,6.07,0.47,8.58-1.92
			c1.4-1.33,3.3-0.16,5.57-1.26c-2.68,4.35-0.44,6.52,2.29,8.57c7.99,6.02,13.35,13.89,17.96,22.78
			c5.49,10.57,9.38,21.77,14.37,32.52c2.11,4.53,2.71,9.76,4.11,14.64c1.17,4.05,2.35,8.11,3.81,12.06
			c2.13,5.77,3.44,11.76,5.01,17.67c2.36,8.84,4.49,17.77,6.05,26.77c1.31,7.58,2.41,15.21,3.93,22.74
			c1.72,8.54,2.7,17.25,5.39,25.57c1.48,4.59,3.26,9.09,4.8,13.66c0.99,2.92,1.77,5.91,2.67,8.87c0.33,1.08-0.62,1.09-1.14,1.28
			c-9.65,3.56-19.41,6.76-29.48,8.93c-3.55,0.76-7.13,1.44-10.69,2.15c-1.75,0.29-1.08-0.7-0.76-1.47c0.57-1.38-0.05-1.99-1.37-2.03
			c-1.33-0.04-1.79,0.89-1.12,2.06c0.34,0.6,1.41,0.81,1,1.82c-5.33,0.62-10.66,1.24-15.99,1.88c-1.37,0.16-2.7,0.51-3.84-0.76
			c-0.68-0.75-1.57-0.43-2.37,0.06c-3.3,2-4.01,1.99-6.94-0.74c-3.87-3.6-7.53-7.43-11.47-10.94c-4.93-4.39-8.26-10-11.91-15.34
			c-2.35-3.45-5.2-6.47-7.62-9.85c-2.95-4.12-4.1-8.92-5.58-13.61c-1.8-5.71-4.21-11.17-6.72-16.58
			c-3.37-7.26-5.52-14.89-7.62-22.59c-1.57-5.73-3.04-11.49-4.48-17.26c-0.69-2.76-1.13-5.58-1.59-8.39
			c-1.71-10.5-3.5-20.99-5.05-31.51c-1.34-9.14-1.32-18.33-0.03-27.48c0.95-6.69-0.61-9.55-7.05-11.7
			c-1.32-0.44-0.92-0.85-0.34-1.58c4.83-6.2,9.62-12.43,14.47-18.61c2.24-2.86,4.87-4.82,8.89-3.88c1.56,0.36,3.28,0.15,4.92,0.05
			c3.16-0.2,5.38-2.3,5.33-4.93c-0.05-2.59-2.44-4.78-5.49-4.76c-5.89,0.05-11.7-0.62-17.42-1.86c-5.73-1.24-11.48-2.54-16.58-5.67
			c-1.24-0.76-2.66-0.53-3.99-0.93c-5.11-1.56-8.98-5.36-13.81-7.4c-1.56-0.66-2.76-2.13-3.62-3.64c-1.19-2.08,1.19-2.86,1.79-4.3
			c0.26-0.63,0.62-1.22,0.94-1.83c0.42-0.75,0.62-1.64,0.69-2.41c0.19-2.15,0.97-2.95,3.15-2.2c0.86,0.29,1.81-0.03,1.92-1.14
			c0.09-0.9-0.64-1.71-1.38-1.51c-4.04,1.08-3.39-2.37-4.32-4.3c0.1-2.89-2.54-3.93-3.97-5.76c-0.94-1.21-2.17-2.24-3.41-3.16
			c-2.04-1.52-2.33-3.3-1.69-5.68c0.65-2.42,1.07-4.62,4.43-3.6c0.6,0.18,1.39-0.05,2.03-0.27c6.64-2.28,12.54-0.13,18.3,3
			c3.23,1.76,6.71,2.92,10.33,3.27c8.78,0.84,17.55,1.69,26.38,2.17c6.69,0.36,13.42,1.05,20.11,1.81
			c8.88,1.02,17.69,0.84,26.55-0.86c5.92-1.14,11.12-3.57,16.34-6.3c6.17-3.22,12.75-4.93,19.76-5.32
			c4.12-0.23,8.12-1.71,11.99-3.14c8.82-3.26,17.73-6.27,25.97-11c5.68-3.26,10.33-7.83,15.72-11.43c2.19-0.53,1.31,1.87,2.35,2.44
			c0.48,0.24,0.98,0.3,1.49,0.11c0.32-0.12,0.75-0.25,0.73-0.63c-0.03-0.59-0.64-0.38-1-0.55
			C405.99,375.56,406.39,374.73,409.32,373.48z"/>
		<path class="st0" d="M115.19,396.87c-2.68,1.37-5.67,2.04-8.25,3.65c-14.35,8.9-26.77,19.84-36.3,33.94
			c-3.86,5.7-8.03,11.19-10.59,17.69c-0.25-0.05-0.5-0.11-0.75-0.16c0-2.98,0-5.97,0-8.95c0.05-27.68,4-54.67,13.72-80.72
			c9.42-25.23,22.11-48.59,39.13-69.5c3.17-3.89,6.56-7.61,9.88-11.38c0.42-0.48,0.77-1.33,1.58-1.11c0.69,0.19,0.48,1.01,0.64,1.57
			c2.26,7.75,6.89,13.95,13,19c4.6,3.8,9.52,7.22,15.06,9.6c1.41,0.61,0.9,1.21,0.4,2.18c-2.51,4.84-4.59,9.85-5.76,15.22
			c-1.74,7.95,0.53,15.19,3.43,22.44c3.33,8.33,7.59,16.23,13.1,23.15c7.1,8.92,14.88,17.43,25.75,22.11
			c1.78,0.76,2.05,1.47,1.22,3.49c-2.13,5.22-3.53,10.68-2.32,16.45c0.79,3.75,3.23,6.42,5.76,9.04c1.26,1.3,3.29,2.33,3.72,3.84
			c0.44,1.53-1.57,3-2.43,4.54c-2.95,5.27-2.44,10.24,0.78,15.18c2.35,3.61,5.23,6.69,8.75,9.13c1.35,0.93,1.69,1.57,0.74,3.07
			c-3.15,4.99-5.04,10.54-7.09,16.04c-1.93,5.2-3.32,10.53-4.78,15.86c-0.99,3.6-1.43,7.3-2.12,10.93
			c-0.78,4.16-1.46,8.34-2.34,12.49c-1.55-0.81-0.53-2.08-0.58-3.16c0.33-5.74,0.02-11.28-2.48-16.71
			c-2.99-6.48-11.82-12.65-18.95-12.57c-5.94,0.07-11.74,0.83-17.17,3.4c-0.7,0.33-1.22,0.63-1.76-0.17
			c-1.26-1.87-3.15-2.81-5.74-3.41c2.41-2.36,4.44-4.58,6.71-6.52c5.84-5,10.35-11.11,14.84-17.26c0.51-0.69,0.86-1.65,1.77-1.8
			c5.65-0.93,7.46-5.49,9.74-9.83c4.63-8.83,4.56-18.17,3.2-27.6c-0.59-4.05-2.99-7.51-5.23-10.9c-4.49-6.79-9.67-12.88-17.17-16.54
			c-3.15-1.54-6.46-2.47-9.98-2.42c-6.3,0.1-12.65-0.54-18.85,1.16c-2.87,0.78-5.28,2.56-8.04,3.59
			C117.11,393.63,116.53,396.06,115.19,396.87z"/>
		<path class="st46" d="M229.23,619.24c-2.03-2.01-2.77-4.74-3.9-7.23c-1.97-4.33-2.91-4.99-7.69-4.55
			c-1.08,0.1-1.02-0.56-1.34-1.14c-0.61-1.1-1.6-1.61-2.84-1.26c-0.98,0.27-1.78,1.02-1.83,1.99c-0.06,1.23,0.73,2.09,2,2.34
			c0.63,0.13,1.34,0.22,1.01,1.08c-0.92,2.44,0.5,4.34,1.37,6.36c0.88,2.06,1.8,4.11,2.71,6.16c0.33,0.73,0.59,1.4,0,2.17
			c-1.34,1.74-0.48,2.91,1.17,3.68c0.98,0.46,1.43,1.18,1.65,2.17c0.86,3.72,2.47,7.17,3.92,10.68c0.46,1.12,0.78,1.96-0.22,3.03
			c-1.54,1.65-0.51,2.91,1.08,3.63c1.01,0.46,1.75,0.83,2.05,2.03c1.02,4.07,3,7.7,5.24,11.21c0.45,0.7,1.59,1.64-0.35,1.99
			c-1.22,0.22-2.15,0.96-2.3,2.16c-0.1,0.87,0.68,1.5,1.45,1.99c1.27,0.82,2.12-0.02,2.99-0.71c0.26-0.21,0.4-0.56,0.68-0.98
			c0.77,1.06,1.28,1.96,1.98,2.66c0.95,0.94,1.31,1.68,0.14,2.77c-1.06,0.99-0.04,1.87,1.01,3.23c-4.32-1.67-8.56-1.51-11.72-4.47
			c-0.29-0.27-0.79-0.44-1.19-0.44c-6.93,0.04-12.68-3.55-18.7-6.2c-2.2-0.97-4.69-1.16-6.68-2.63c-0.51-0.38-1.56-0.37-0.6-1.3
			c1.48-1.44,0.7-2.5-0.58-3.37c-1.47-0.99-2.71-0.09-3.19,1.11c-0.53,1.32-1.02,1.23-1.96,0.68c-0.67-0.38-1.35-0.78-2.07-1.03
			c-3.21-1.1-5.52-2.98-5.89-6.6c-0.73-1.69-1.33-3.29,0.31-4.91c0.96-0.95-0.01-1.7-0.72-2.34c-2.74-2.49-2.79-5.89-3-9.18
			c-0.08-1.21,1.1-0.74,1.79-0.79c0.94-0.06,1.9-0.27,1.76-1.39c-0.16-1.25-1.21-1.45-2.17-0.93c-1.69,0.91-2.23,0.5-2.77-1.38
			c-0.73-2.58-0.83-5.24-1.49-7.8c-0.35-1.95-0.66-3.91-1.08-5.84c-0.19-0.9,0.37-1.16,0.9-1.63c1.84-1.64,1.6-3.39-0.75-3.91
			c-1.62-0.36-1.86-1.37-2.15-2.49c-1.04-4.01-2.99-8.1-2.71-12.03c0.22-3.09-0.59-4.92-2.52-6.8c0.43-0.25,0.6-0.43,0.7-0.39
			c2.67,0.98,2.75,0.97,2.48-1.92c-0.17-1.8,0.45-3.56-0.04-5.39c-0.24-0.91,0.52-1.58,1.59-1.6c2.24-0.05,4.49,0.25,6.74-0.16
			c1.29-0.23,0.81,1.01,1.17,1.56c0.67,1.02,1.48,2.21,2.89,1.52c1.18-0.58,2.61-1.4,1.22-3.18c-0.71-0.91-0.03-1.11,0.74-1.32
			c6.84-1.92,12.62-5.83,18.43-9.73c2.65-1.78,5.51-3.24,8.26-4.86c0.96-0.57,2.04-0.98,2.66-2c1.21-0.82,1.35,0.33,1.71,0.96
			c0.59,1.02,1.41,1.71,2.46,0.9c1.23-0.95,0.35-1.77-0.51-2.43c-0.93-0.72-1.25-1.42-0.01-2.14c0.58-0.35,1.2-0.67,1.75-1.07
			c1.28-0.93,2.36-2.27,3.73,0.11c0.72,1.24,2.16,0.88,3.12-0.16c1.05-1.12,0.9-2.16-0.4-3.02c-0.49-0.32-1.28-0.62-0.92-1.32
			c0.23-0.45,0.94-0.87,1.47-0.91c0.91-0.07,0.97,0.83,1.13,1.48c0.98,3.85,1.11,7.83,1.84,11.73c1.7,9.01,3.8,17.89,6.24,26.73
			c1.67,6.07,3.5,12.07,5.37,18.07c1.65,5.3,4.5,10.07,6.43,15.24c0.6,1.62,1.39,3.17,1.95,4.8c0.3,0.87,0.91,1.76-0.75,2.45
			c-1.37,0.57-0.83,2.86,1.02,3.29c1.99,0.46,2.32,1.81,2.75,3.27c1.47,4.93,3.53,9.55,6.88,13.52c-0.85,0.72-0.89,0.78-1.76,0.17
			c-0.66-0.47-1.24-1.02-1.98-0.22c-0.46,0.5-0.46,1.09-0.05,1.64c0.62,0.83,1.57,1.03,2.25,0.41c1.58-1.43,2.67-1.13,3.58,0.65
			c1.11,1.2,2.47,2.35,0.27,3.84c-0.65,0.44-0.6,1.23-0.05,1.84c0.69,0.77,1.35,1.59,2.61,1.34c2.13-0.43,4.21,1.27,4.07,3.43
			c-0.1,1.4-0.49,2.66,1.72,2.42c0.86-0.09,0.45,0.77,0.31,1.15c-0.98,2.63-1.23,5.4-1.56,8.15c-0.27,2.28-1.29,2.77-3.29,1.95
			c-5.58-2.27-10.84-5.06-15-9.54c-1.42-1.53-2.88-3-4.6-4.2c-6.26-4.39-8.83-11.22-12.03-17.58c0.63-0.54,0.89-0.21,1.15-0.04
			c1.29,0.9,2.29,0.37,3.16-0.66c0.79-0.94,0.45-1.79-0.32-2.51c-1-0.94-2.09-1.26-3.19-0.12c-1.18,1.22-1.67,0.73-1.97-0.7
			c-0.74-3.61-1.91-7.07-3.91-10.2c-1.01-1.43-1.21-3.17-1.81-4.75c-0.49-1.3,0.14-1.79,1.45-1.36c0.33,0.11,0.65,0.24,0.99,0.3
			c0.64,0.11,1.21-0.04,1.59-0.6c0.35-0.51,0.2-1-0.17-1.41c-0.44-0.49-0.98-0.63-1.64-0.47c-3.09,0.74-2.94,0.68-4.14-2.25
			C229.18,622.22,230.36,620.61,229.23,619.24z"/>
		<path class="st46" d="M149,550.14c0.36,2.52,1.71,4.55,3.5,6.19c6.54,5.98,4.73,11.01-0.73,16.75
			c-6.63,6.97-15.79,8.86-24.85,10.57c-0.66,0.12-1.15-0.31-1.65-0.64c-1.13-0.73-2.22-0.54-3.07,0.37
			c-2.6,2.77-5.88,1.04-8.84,1.41c-0.68,0.09-0.76-0.83-1.11-1.3c-1.4-1.89-3.17-2.03-4.39,0c-0.99,1.64-1.9,1.14-2.54,0.21
			c-0.88-1.27-3.86-2.56-0.46-4.42c0.6-0.33,1.19-1.16,0.71-2.02c-0.51-0.92-1.22-1.92-2.39-1.67c-1.58,0.34-1.74-0.56-1.91-1.66
			c-0.46-3.05-1.24-6,0.55-9.05c1.08-1.84,0.64-4.24,0.65-6.4c0.02-4.97,1.15-9.78,2.08-14.61c0.79-4.08,2.95-7.41,5.97-10.08
			c5.11-4.52,9.97-9.36,15.99-12.79c4.57-2.6,9.31-4.41,14.61-4.91c2.44-0.23,4.32,0.67,6.32,1.6c0.86,0.4,1.28,1.21,1.36,2.09
			c0.14,1.49,0.78,2.82,1.2,4.22c0.62,0.66,0.32,1.48,0.3,2.22c-0.04,1.45-0.8,1.81-2.06,1.12c-0.3-0.16-0.59-0.35-0.91-0.49
			c-0.72-0.31-1.36-0.19-1.89,0.37c-0.31,0.33-0.4,0.77-0.17,1.2c0.37,0.69,0.97,0.94,1.73,0.86c0.44-0.05,0.83-0.23,1.22-0.41
			c1.06-0.49,1.35-0.2,1.64,0.99c0.73,3.01-0.28,5.94-0.11,8.91c0.09,1.47-0.85,1.98-2.25,1.36c-0.83-0.5-1.71-1.13-2.53-0.12
			c-0.66,0.81-0.05,1.44,0.57,1.97c3.22,0.45,3.2,0.45,3.24,4.08C148.82,547.43,148.56,548.8,149,550.14z"/>
		<path class="st46" d="M229.23,505.74c-0.73,4.17-0.73,8.36-0.79,12.55c-0.09,6.57-0.13,13.17,2.02,19.51
			c0.62,1.82-0.19,2.52-1.79,2.94c-5.48,1.41-10.72,3.38-15.39,6.67c-4.54,3.19-8.17,7.52-12.85,10.51
			c-5.02,3.22-9.27,7.51-14.64,10.27c-4.01,2.07-7.74,0.8-11.54-0.39c-0.71-0.22-0.72-0.89-0.63-1.53
			c1.05-7.73-1.7-14.07-7.09-19.45c-0.92-0.91-1.08-1.91-0.68-3.08c0.19-0.57,0.4-1.15,0.52-1.74c0.84-4.09,0.83-4.1,4.78-2.5
			c4.38,1.78,8.46,4.4,13.38,4.68c1.35,0.08,2.56-0.01,3.73-0.73c0.58-0.35,1.29-0.76,1.92-0.72c6.34,0.35,10.82-3.85,14.29-7.74
			c7.23-8.11,15.01-15.83,21.32-24.74c1.03-1.46,1.77-3.11,2.65-4.68C228.71,505.63,228.97,505.69,229.23,505.74z"/>
		<path class="st47" d="M121.47,479.19c-2.82,2.66-5.66,5.29-8.45,7.98c-0.82,0.8-1.45,0.79-2.49,0.3
			c-4.79-2.27-9.71-3.54-14.92-1.28c-0.81,0.35-1.63,0.25-2.44-0.31c-1.3-0.9-2.32-0.19-3.06,0.88c-0.8,1.15-0.38,2.21,0.7,2.88
			c1.04,0.65,1.33,1.76,2,2.64c-1.76,1.59-4.18,1.72-6.14,0.25c-1.12-0.84-2.2-0.92-3.26,0c-0.89,0.77-0.91,1.6,0.04,2.37
			c1.03,0.84,0.83,1.95,0.77,3.09c-0.13,2.34,0.99,3.4,3.32,2.94c1.43-0.28,2.84,0.14,4.31-0.47c2.25-0.94,4.14-1.89,4.89-4.49
			c0.44-1.55,2.17-2.42,2.75-4.03c0.26-0.72,1.03-0.47,1.6-0.5c1.3-0.05,2.55,0.2,3.69,0.85c0.62,0.56,1.62,1.04,0.33,1.94
			c-8.12,5.68-14.58,13.15-21.45,20.28c-2.06-4.37-4.77-4.91-8.93-2.48c-2.1,1.23-4.21,2.32-5.83,4.2
			c-2.98,3.46-3.24,7.21-0.57,10.92c0.61,0.85,0.31,1.22-0.41,1.59c-1.68,0.84-2.7,3.27-4.81,2.59c-0.52-0.17-1.64-2.74-0.13-4.37
			c1.17-1.26,4.32-2.61,0.21-4.24c-0.42-0.17-0.36-0.71-0.11-1.14c1.99-3.5,3.35-7.47,7.22-9.56c2.15-1.16,2.92-3.09,2.88-5.42
			c-0.03-1.99-1.89-3.24-3.56-2.21c-4.25,2.61-8.6,5.16-10.74,10.06c-0.52,1.18-1.02,2.38-2.81,1.88c-0.48-0.13-1.18,0.51-1.79,0.81
			c-0.63-4.8,2.94-11.8,7.64-14.02c4.14-1.96,7.62-4.76,11.02-7.65c7.76-6.6,15.61-13.1,22.86-20.29c1.63-1.61,3.5-3.47,6.32-2.55
			c0.23,0.07,0.57,0.06,0.76-0.07c5.61-3.52,9.53,1.37,14.13,2.86c0.86,0.28,1.07,1.31,1.38,2.11c0.55,0.72,1.3,0.93,2.17,0.91
			C121.05,478.42,121.6,478.42,121.47,479.19z"/>
		<path class="st46" d="M240.74,472.8c-0.55,1.77-1.61,3.21-2.79,4.62c-4.49,5.37-9.05,10.68-13.34,16.21
			c-3.34,4.3-7.09,8.42-9.77,13.06c-3.44,5.97-8.93,10.01-12.69,15.56c-0.28,0.41-0.5,1.08-1.09,0.95
			c-0.85-0.18-0.47-0.98-0.51-1.53c-0.66-8.16,2.97-15,6.79-21.75c2.34-4.13,4.29-8.34,5.8-12.9c2.19-6.59,3.85-13.49,7.94-19.35
			c0.59-0.84,0.94-1.85,1.44-2.75c1.5-2.72,4.42-3.67,7.34-2.58c3.49,1.3,6.96,2.69,10.55,3.61c3.05,0.78,4.44,3.09,1.74,5.5
			c-0.5,0.44-0.78,1.13-1.45,1.42c-1.16-0.52-1.16-0.52-2.57-0.44C238.97,472.69,239.91,472.41,240.74,472.8z"/>
		<path class="st46" d="M75.63,477.52c1.48-2.02,2.91-4.08,4.45-6.06c1.54-1.98,1.22-4.62,2.64-6.69c1.8-2.64,3.91-4.9,6.37-6.92
			c4.55-3.74,9.29-7.32,12.97-11.95c4.46-5.62,2.49-13.11-4-15.92c-1.06-0.46-1.26-0.87-0.38-1.59c1.32-1.08,2.38-2.9,4.58-1.27
			c0.76,0.56,1.81-0.04,2.71-0.43c3.48-1.49,5.06-1.25,7.26,1.64c4.9,6.44,6.58,12.92,0.57,20c-5.25,6.2-9.98,12.97-16.6,17.81
			c-4.49,3.29-8.52,7.08-12.55,10.8c-5.85,5.4-12.08,10.33-17.98,15.66c-1.27,1.14-2.65,2.19-4.66,2.92
			c1.53-6.21,4.27-11.67,6.31-17.37c0.96-0.86,0.67-2.49,1.89-3.28C70.55,478.45,72.73,479.32,75.63,477.52z"/>
		<path class="st47" d="M123.44,470.4c-3.28-0.88-6.31-2.35-9.26-3.99c-1.28-0.71-2.53-1.52-4.1-1.51
			c-1.57,0.01-1.28-0.97-0.66-1.67c1.49-1.7,2.4-3.99,5.1-4.47c1.1-0.2,2.26-1.06,1.72-2.67c-0.52-1.57,1.19-1.93,1.66-2.97
			c0.68-1.52,1.55-1.08,2.69-0.45c1.07,0.59,2.05-0.12,2.67-1.01c0.71-1.03,0.43-2.13-0.6-2.69c-1.33-0.72-1.08-1.48-0.52-2.51
			c4.49-8.29-0.79-21.48-8.71-26.01c-0.38-0.22-0.78-0.39-1.13-0.65c-0.82-0.6-2.52,0.09-2.62-1.14c-0.1-1.2,1.51-1.47,2.4-2.07
			c2.96-1.99,6.28-3.29,9.46-4.86c1.07-0.53,1.78-0.2,2.48,0.6c0.95,1.08,2.17,1.48,3.52,0.91c1.34-0.57,2.28-1.45,2.25-3.14
			c-0.05-2.33,1.94-3.02,3.57-3.46c1.71-0.46,3.61-0.22,5.42-0.26c0.61-0.02,1.2,0.39,0.78,0.9c-1.02,1.22,0.4,4.81-3.38,3.47
			c-1.02-0.36-1.96,0.57-2.31,1.67c-0.34,1.06,0.08,2.13,1.04,2.37c2.33,0.59,1.47,1.63,0.98,3.18c-1.63,5.21-2.36,10.58-1.65,16.07
			c0.1,0.76,0.13,1.54,0.19,2.31c-0.32,0.81-0.63,1.84-1.65,1.71c-1.1-0.13-0.98-1.28-1.05-2.1c-0.12-1.4-0.38-2.74-1.06-3.97
			c-0.64-1.16-1.57-1.92-2.94-1.62c-1.46,0.32-2.19,1.41-2.11,2.86c0.09,1.72,0.06,3.47,0.42,5.16c1.08,5.14,0.99,10.23,0.04,15.41
			c-0.84,4.57-1.35,9.22-1.25,13.9C124.27,468.54,125.97,470.54,123.44,470.4z"/>
		<path class="st47" d="M159.83,419.58c0.97,2.32,2.17,4.07,1.45,6.78c-0.45,1.69,0.57,3.95,0.6,6.04c0.04,3.27-0.72,6.78-2.77,8.7
			c-2.95,2.76-6.62,4.75-9.22,8.07c-0.47,0.6-2.09,0.1-3,1.05c-0.55,0.58-1.2-0.14-1.31-0.71c-0.83-4.46-3.66-8.33-3.76-13.01
			c-0.03-1.11-0.12-1.99,1.38-2.24c0.94-0.16,1.76-0.97,1.68-2.05c-0.08-1.15-0.95-2.05-2.02-2.05c-1.81,0-1.69-0.94-1.47-2.17
			c0.22-1.19,0.42-2.4,0.5-3.61c0.1-1.41,0.53-2.37,1.98-2.98c1.44-0.61,2.22-1.76,0.72-3.23c-0.36-0.36-0.96-0.79-0.67-1.29
			c1.6-2.8,1.45-6.28,3.46-8.91c0.31-0.4,0.6-0.94,1.22-0.62c0.47,0.24,0.35,0.73,0.22,1.15c-1.52,4.97-1.69,9.97-0.38,15.02
			c0.15,0.59-0.11,1-0.52,1.36c-0.76,0.66-1.02,1.4-0.28,2.24c0.71,0.8,1.62,1.77,2.64,1.06c1.39-0.98,2.36-0.24,3.56,0.2
			c1.63,0.59,3.31,0.59,4.5-0.95c1.12-1.45,0.96-2.92-0.4-4.17c-0.59-0.54-0.58-0.91,0.01-1.46
			C158.56,421.21,159.05,420.5,159.83,419.58z"/>
		<path class="st4" d="M124.13,467.62c-0.22-6.08,0.98-12.02,1.83-17.99c0.48-3.37,0.45-6.76-0.49-10.12
			c-0.6-2.15-0.34-4.44-0.74-6.66c-0.28-1.56,0.92-2.95,2.68-3.32c1.74-0.37,3,0.39,3.92,1.85c1.2,1.92,0.85,4.14,1.11,6.24
			c1.08,0.02,1.22-1.08,1.98-1.27c0.81,2.22,2.13,4.48,2.55,6.54c0.4,1.96,3.53,3.35,1.52,5.8c2.42,0.61,0.86,3.25,2.31,4.49
			c1.26,1.08-0.18,2.83,0.47,4.16c0.21,0.04,0.44,0.15,0.49,0.09c0.88-0.98,1.76-2,3.27-1.5c0.77,0.26,1,0.99,0.87,1.71
			c-0.32,1.85-1.78,2.85-3.19,3.75c-0.68,0.44-1.65,0.44-2.48,0.64c-0.12-1.02,0.3-2.1-0.79-2.95c-0.8-0.62-0.96-1.69-0.33-2.55
			c0.97-1.34,0.34-2.39-0.38-3.49c-1.5-3.84-2.92-7.72-4.49-11.57c-0.21,1.29-0.06,2.54-0.15,3.78c-0.13,1.71,0.18,3.03,2.09,3.61
			c0.93,0.28,1.44,1.2,1.75,2.14c-0.1,1.72-1.05,2.69-2.73,2.68c-1.53-0.01-2.08,0.83-2.38,2.09c-0.53,3.31-0.94,6.63-0.73,9.99
			c0.14,2.2-0.61,4.03-2.22,5.54c-2.11,1.98-4.16,1.49-5.12-1.2C124.46,469.28,124.42,468.42,124.13,467.62z"/>
		<path class="st48" d="M75.63,477.52c-2.22,2.23-5.33,1.28-6.52-2.03c-0.94,0.66-0.49,2.26-1.8,2.66
			c1.98-7.31,6.06-13.7,8.98-20.59c2.84-6.71,7.63-12.13,11.54-18.13c0.05-0.07,0.1-0.17,0.17-0.2c2.63-0.82,5.23-1.95,7.93-2.31
			c1.35-0.18,1.89,3.05,0.73,4.62c-2.23,3.03-5.18,5.37-8,7.78c-6.34,5.44-12.61,10.87-15.65,19.03c-0.47,1.27-1.33,2.4-2.01,3.6
			c-0.91,1.61-1.9,3.27-0.39,5.01C72.06,478.63,73.86,478.19,75.63,477.52z"/>
		<path class="st48" d="M167.1,642.25c-2.41-0.82-3.64-2.38-4.75-4.35c-3.64-6.47-7.5-12.83-11.28-19.22
			c-0.6-1.02-1.24-2.02-1.43-3.4c8.29,6.33,8.29,6.33,12.14,2C163.56,625.64,165.31,633.85,167.1,642.25z"/>
		<path class="st48" d="M164.59,499.65c3.49-0.1,5.31,1.75,6.64,6.34c1.08,3.71-0.19,9.76-3.81,10.69c-1.02,0.26-1.43,0.38-1.78-0.9
			c-1.38-5.16-4.14-9.49-8.66-12.45c-1.69-1.1-0.94-1.43,0.22-1.93C159.61,500.39,162.04,499.49,164.59,499.65z"/>
		<path class="st49" d="M161.36,616.39c-3.71-3.73-7.7-6.35-9.39-11.16c-1.23-3.5-1.22-7.14-1.81-10.68
			c-0.25-1.49,2.56-1.83,3.98-2.67c0.84-0.49,1.03,0.6,1.21,1.24c2.01,7.24,4.02,14.49,6.01,21.74
			C161.43,615.17,161.36,615.53,161.36,616.39z"/>
		<path class="st3" d="M104.79,492.3c-0.17,0.02-0.35,0.02-0.51,0.06c-1.47,0.44-3.4-2.44-4.57,0.76c-0.58,1.59-2.91,2.13-2.82,4.38
			c0.04,1.04-0.91,1.81-1.86,2.33c-2.69,1.46-5.63,1.99-8.62,2.01c-2.26,0.01-3.56-1.92-3.01-4.15c0.22-0.88,1.03-1.75-0.29-2.41
			c-1.44-1.18-0.89-2.2,0.25-3.17c1.17-0.99,2.57-1.13,3.38,0.13c1.07,1.66,2.19,1.49,3.69,0.9c1.06-0.42,2.27-0.19,4.89,0.49
			c-0.71-0.55-1.98-0.1-2.04-1.38c2.94,0.37,5.56-1.65,8.55-1.12C102.92,491.33,104.07,491.19,104.79,492.3z"/>
		<path class="st50" d="M112.51,509.3c6.44-5.21,12.49-10.85,18.61-16.42c0.32-0.29,0.59-0.72,1.07-0.52
			c0.64,0.26,0.41,0.85,0.39,1.35c-0.1,2.08-0.27,4.15,0.47,6.17c0.48,1.32-0.55,1.35-1.41,1.56c-6.59,1.59-12.52,4.6-18.08,8.41
			C112.86,510.36,112.51,510.16,112.51,509.3z"/>
		<path class="st51" d="M53.3,518.91c2.03,1.18,2.75,2.42,1.9,4.46c-0.49,1.17-0.44,2.54-0.22,3.85c0.17,0.96,0.07,1.78-0.73,2.58
			c-1.45,1.44-0.73,2.59,0.75,3.53c2.45,1.57,2.45,2.71,0.02,4.27c-1.96,1.26-3.96,2.45-5.94,3.68c-0.5,0.31-1.11,0.87-1.54,0.14
			c-0.42-0.7,0.03-1.33,0.77-1.62c0.4-0.16,0.86-0.14,1.25-0.32c2.01-0.95,2.34-2.48,0.59-3.72c-1.2-0.85-1.26-1.68-0.93-2.84
			C50.56,528.31,51.91,523.69,53.3,518.91z"/>
		<path class="st52" d="M85.4,551.66c-1.85-3.84-3.38-7.01-4.89-10.17c-0.34-0.7-0.29-1.32,0.4-1.81c3.53-2.46,6.47-5.61,9.85-8.41
			C87.42,537.43,86.87,544.26,85.4,551.66z"/>
		<path class="st53" d="M139.25,453.13c1.08,1.1,1.91,2.12,0.34,3.6c-0.85,0.8-0.34,1.94,0.54,2.39c1.95,1,1.16,1.9,0.11,2.91
			c-0.69,0.36-1.31,0.79-1.58,1.58c-0.54,0.74-1.33,1.16-1.89,0.28c-1.1-1.73-2.75-1.51-4.37-1.55c-1.21-1.01-0.33-2.21-0.26-3.31
			c0.08-1.28-0.26-2.58,0.23-3.83c0.31-1.29-0.04-3.12,2.49-2.05c1.45,0.61,2.16-0.89,2.72-2.07
			C139.07,451,138.45,452.64,139.25,453.13z"/>
		<path class="st54" d="M132.38,455.19c-0.01,1.93,0.03,3.87-0.08,5.8c-0.04,0.64,0.03,0.95,0.66,1.04
			c-0.05,1.59,0.08,3.04,1.94,3.68c0.86,0.3,0.93,0.94,0.15,1.53c-2.41,1.76-4.1,4.36-6.73,5.87c-1.14-0.2-1.61,0.35-1.59,1.43
			c-1.69,1.62-3.24,3.4-5.26,4.66c-0.8-0.97-2.74,0.15-3.08-1.67c2.06,0.91,5.18-0.27,6.69-2.47c1.58-2.32-0.42-3.34-1.64-4.65
			c1.7-0.56-0.01-1.97,0.69-2.78c0.15,0.3,0.32,0.6,0.44,0.91c0.6,1.57,0.78,3.58,3.11,3.51c1.58-0.05,3.87-3.2,3.72-5.06
			C131.07,462.99,131.63,459.09,132.38,455.19z"/>
		<path class="st55" d="M149,550.14c-1.4-2.39-0.37-4.98-0.59-7.53c-1.24-0.16-2.64,1.42-3.65-0.36c1.15-0.7,2.08-1.62,2.78-2.77
			c1.05,0.69,1.99,0.85,2.01-0.8c0.04-3.24,0.85-6.5-0.26-9.94c-1.43,1.36-2.94,2.44-4.58,0.46c-0.8-0.96-0.75-1.85,0.24-2.7
			c1.97-1.7,3.26-0.42,4.38,1.17c1.11-1.24,0.34-2.54,0.69-3.67c0.42,0.23,0.67,0.61,0.6,1.06c-0.92,5.82,0.51,11.78-1.31,17.6
			C148.6,544.96,149.07,547.64,149,550.14z"/>
		<path class="st56" d="M180.34,621.76c0.75,3.14,1.49,6.27,2.28,9.6c1.41-0.83,2.59-2.84,4.42-0.94c0.71,0.74,1.18,1.53,0.51,2.52
			c-1.11,1.64-2.52,1.54-4.54,0.15c1.24,3.98,0.58,7.93,3.91,10.52c0.59,0.46,1.04,1.3,0.48,1.79c-1.76,1.53-0.67,3.37-0.78,5.07
			c-1.54-1.51-1.66-3.11-0.24-4.75c0.54-0.62,0.8-1.36,0.04-1.74c-2.29-1.15-2.55-3.43-2.94-5.43
			C182.38,632.96,180.35,627.54,180.34,621.76z"/>
		<path class="st57" d="M229.23,619.24c0.69,0.23,1.09,0.91,0.86,1.4c-0.76,1.67,0.23,3.04,0.58,4.5c0.33,1.39,0.78,2.49,2.14,0.59
			c0.69-0.97,1.76-1.13,2.76-0.42c0.69,0.49,1.5,1.04,1.3,2.07c-0.23,1.13-1.08,1.76-2.11,2.08c-1.22,0.38-1.67-1.12-3.05-1.29
			c0.63,2.13,1.22,4.13,1.81,6.13c-2.19-1.94-2.01-4.92-3.07-7.36C229.44,624.62,228.71,621.95,229.23,619.24z"/>
		<path class="st58" d="M359.18,429.14c1.2-1.13,3.07-1.46,3.68-3.34c0.21-0.65,1.21-1.2,1.98-0.82c2.44,1.19,4.15-0.73,6.41-1.16
			c-0.86-1.39-3.25-2.14-1.39-4.11c0.85-0.9,1.83-1.33,2.94-0.4c0.88,0.74,1.8,1.51,0.77,2.78c-0.3,0.37-0.37,0.73-0.22,1.16
			c-2.46,1.85-5.12,3.08-8.3,2.56c-0.88-0.14-1.71,0.08-1.89,0.87C362.65,428.96,360.77,428.76,359.18,429.14z"/>
		<path class="st20" d="M214.71,422.85c1.07,1.22,1.05,2.89,1.76,4.38c1.58-1.01,3.15-1.66,4.54,0.21c0.59,0.8,0.58,1.56-0.1,2.34
			c-1.56,1.81-3,1.16-4.29-0.54c-1.05,1.89-0.91,3.76-1.98,5.18c-0.37-1.26,0.2-2.45,0.59-3.51
			C216.26,428.08,214.77,425.53,214.71,422.85z"/>
		<path class="st36" d="M376.49,422.42c0.76-0.78,1.79-0.51,2.69-0.61c1.78-0.2,3.79,1.02,4.91-1.88c0.56-1.45,2.4-0.59,3.38,0.64
			c1.03,1.29,0.2,2.38-0.81,2.7c-1.82,0.58-2.1,1.43-1.52,3.11c0.27,0.78-0.13,1.69-0.78,2.34
			C384.24,422.97,383.91,422.71,376.49,422.42z"/>
		<path class="st5" d="M135.04,467.23c0.36-0.74,0.29-1.01-0.67-1.32c-2.3-0.73-2.58-1.76-1.42-3.89c1.74-0.86,3.27-0.76,4,1.25
			c0.49,1.34,1.05,0.68,1.7,0.32C137.9,465.25,136.68,466.45,135.04,467.23z"/>
		<path class="st59" d="M458.8,450c-0.8-0.31-1.05-1.37-2.1-1.49c-0.27,1.46-0.8,2.9-2.55,2.97c-1.34,0.05-2.43-0.96-2.43-2.19
			c-0.01-1.42,1.21-2.17,2.64-2.23c0.54-0.02,1.39,0.78,1.18-0.62C457.26,447.04,458.16,448.4,458.8,450z"/>
		<path class="st60" d="M222.51,558.88c-0.27,0.55-1.44,1.08,0.19,1.55c1.17,0.33,2.3,1.14,1.86,2.63
			c-0.31,1.03-1.18,1.79-2.34,1.68c-1.33-0.12-2.29-0.89-2.29-2.32c0-0.92-0.38-0.98-1.06-0.85
			C219.57,560.01,220.96,559.33,222.51,558.88z"/>
		<path class="st61" d="M266.16,655.74c-1.03-1.1-1.85-1.72-3.18-0.06c-0.99,1.24-2.35,0.47-3.3-0.62
			c-0.98-1.11-0.55-2.03,0.38-2.89c0.87-0.81,1.59-0.79,2.37,0.2c0.36,0.45,0.61,1.72,1.68,0.72
			C265.18,653.69,266.03,654.44,266.16,655.74z"/>
		<path class="st6" d="M337.84,678.56c-0.44-0.39-0.91-0.76-1.32-1.19c-0.72-0.76-1.6-1.58-0.54-2.64c1-1.01,2.26-1.38,3.51-0.5
			c1.06,0.75,1.46,1.77,0.31,2.82c-0.7,0.64-0.88,1.03,0.29,1.13C339.44,678.85,338.62,678.59,337.84,678.56z"/>
		<path class="st62" d="M144.37,604.89c-1.48-0.78-1.58-2.17-2.12-3.28c-0.41-0.84-0.52-1.85-1.31-2.47
			c-0.62-0.48-1.83-0.82-1.29-1.75c0.6-1.03,2.06-0.76,3.08-0.82c1.09-0.06,0.61,1.16,0.71,1.85
			C143.74,600.52,144.04,602.63,144.37,604.89z"/>
		<path class="st63" d="M93.27,492.25c0.67,0.8,1.6,0.43,2.42,0.52c0.72,0.08,1.19,0.3,1.01,1.11c-0.17,0.77-0.7,1.01-1.35,0.58
			c-2.14-1.43-4.36-1.28-6.64-0.47c-0.86,0.3-1.17-0.22-1.58-0.88c-0.74-1.21-1.79-1.91-3.24-1.09c-1.39,0.78-1.58,1.91-0.8,3.25
			c-1.66-0.61-1.46-1.69-0.63-2.81c1.06-1.42,3.01-2.15,3.96-0.9c2.1,2.78,4.27,0.6,6.38,0.71
			C92.96,492.29,93.12,492.28,93.27,492.25z"/>
		<path class="st64" d="M188.56,512.48c0.59,0.98-0.63,2.3,0.58,3.16c-0.5,4.04-3.75,6.88-4.7,10.73c-0.14,0.57-0.61,0.88-1.18,0.53
			c-0.74-0.45-0.46-1.02-0.03-1.51C186.47,521.69,187.31,517,188.56,512.48z"/>
		<path class="st65" d="M144.33,623.46c-1.36-3.45-3.39-6.63-4.08-10.36c2.97,2.43,3.24,6.32,5.13,9.32
			C145.06,622.8,144.87,623.31,144.33,623.46z"/>
		<path class="st66" d="M158.95,418.53c-4.62-1.52-4.65-1.56-3.56-5.08C156.96,414.89,158.01,416.55,158.95,418.53z"/>
		<path class="st67" d="M405.57,379.83c-0.87-0.59-1.19-1.44-1.07-2.44c0.1-0.8-0.43-0.77-0.94-0.83c1.62-1.59,3.45-2.78,5.75-3.09
			c-1.66,0.94-2.88,2.09-2.04,4.23C407.15,378.77,406.33,379.28,405.57,379.83z"/>
		<path class="st63" d="M74.24,523.29c-0.02-3.86,2.69-4.51,5.09-5.52c0.15,0.16,0.29,0.33,0.44,0.49
			C77.93,519.93,76.09,521.61,74.24,523.29z"/>
		<path class="st68" d="M144.33,623.46c0.07-0.63,0.25-1.15,1.05-1.05c0.97,2.26,2.78,4.08,3.66,6.83
			C146.16,628.02,145.48,625.55,144.33,623.46z"/>
		<path class="st69" d="M112.51,509.3c0.24,0.41,0.63,0.52,1.06,0.56c-1.5,1.69-3.53,2.69-5.23,4.12c-0.66,0.58-0.95,0.36-0.98-0.45
			C108.85,511.84,110.59,510.45,112.51,509.3z"/>
		<path class="st70" d="M246.46,676.08c-2.16-0.03-3.87-0.47-5.58-1.14C243.07,672.76,243.23,672.79,246.46,676.08z"/>
		<path class="st71" d="M115.19,396.87c0.12-0.12,0.31-0.23,0.34-0.37c0.73-3.29,1.15-3.46,3.89-1.62
			C118.19,395.92,116.94,396.94,115.19,396.87z"/>
		<path class="st72" d="M134.53,600.1c-0.56-0.02-1.01-0.31-0.96-0.92c0.07-0.87,0.85-1,1.52-1.15c0.49-0.11,0.96,0.1,0.81,0.65
			C135.73,599.33,135.43,600.01,134.53,600.1z"/>
		<path class="st73" d="M126.73,474.53c-0.64-0.49-0.77-1.21-0.28-1.72c0.6-0.63,1.34-0.45,1.87,0.29
			C127.94,473.75,127.43,474.25,126.73,474.53z"/>
		<path class="st43" d="M107.37,513.53c0.22,0.37,0.56,0.49,0.98,0.45c-0.42,0.86-0.99,1.52-2.23,1.52
			C106.04,514.46,106.67,513.97,107.37,513.53z"/>
		<path d="M397.38,477.11c2.46,3.67,4.04,7.82,6.22,11.65c0.75,1.32,0.64,3.33,2.82,3.5c-0.49,1.91,1.2,2.83,1.91,4.19
			c0.39,0.76,0.92,1.23,1.85,0.55c1.51-1.1,2.66-0.35,3.46,0.97c0.93,1.55-0.39,2.03-1.42,2.66c-0.49,0.29-0.86,0.78-1.18,1.08
			c3.21,4.56,6.75,8.66,10.98,12.17c1.99,1.65,4.43,2.73,6.08,4.8c1.48,0.78,2.76,1.83,3.92,3.03c1.01,0.65,2.08,1.23,3,1.98
			c0.98,0.8,1.71,0.47,2.47-0.23c0.83-0.49,1.67-0.42,2.39,0.16c1.34,1.07,1.84,0.83,2.02-0.91c0.41-3.92,1.01-7.9-0.14-11.72
			c-0.7-2.32-2.2-4.39-2.8-6.8c-1.59-2.86-1.63-6.37-3.82-9.01c-1.38-1.66-2.54-3.5-3.79-5.26c-1.86-2.61-1.85-5.1,0.03-6.8
			c2.25-2.03,5.43-2.26,7.53-0.01c3.77,4.07,7.19,8.45,8.8,13.93c0.9,3.07,1.71,6.18,3.28,9.01c1.08,1.95,1.16,4.19,1.38,6.31
			c0.6,5.82-0.02,11.53-1.6,17.21c-1.17,4.22-7.76,7.05-11.59,6.56c-4.04-0.52-7.61-2.21-10.64-4.54
			c-6.79-5.2-14.04-9.88-19.93-16.21c-3.26-3.51-5.71-7.53-8.24-11.58c-4.66-7.48-8.85-15.2-12.74-23.09
			c-2.61-5.28-5.41-10.42-9.01-15.11c-2.08-2.72-4.5-5.01-7.25-7.01c-0.58-0.42-1.2-0.67-1.92-0.68c-0.43-0.01-0.87-0.02-1.29-0.1
			c-3.32-0.64-5.27-2.66-5.08-5.26c0.18-2.56,2.82-4.75,5.99-4.65c4.36,0.14,8.26,1.54,11.47,4.69c3.09,3.02,5.58,6.78,8.72,9.43
			c3.09,2.62,4.32,5.4,5.2,8.85c0.08,0.33,0.21,0.65,0.32,0.97C395.89,473.48,396.24,475.49,397.38,477.11z"/>
		<path class="st4" d="M250.62,438.51c-2.76-0.14-5.52-0.29-8.16-1.25c-0.08-0.03-0.18-0.09-0.25-0.06
			c-5.06,1.87-5.82-2.92-8.07-5.31c-0.58-0.62-1.13-0.6-1.75-0.8c-1.24-0.41-2.35-1.14-1.85-2.59c0.45-1.28,1.55-2.27,3.04-1.53
			c1.03,0.51,1.63,0.33,2.54-0.25c1.82-1.16,3.72-1.26,5.9-0.49c3.63,1.28,7.35,2.34,11.27,2.52c3.2,0.15,5.2,2.24,5.11,5.03
			c-0.08,2.62-2.2,4.55-5.21,4.72C252.35,438.56,251.49,438.51,250.62,438.51z"/>
		<path class="st20" d="M438.97,504.2c3.82,5.96,4.56,12.43,3.17,19.26c-0.28,1.38-0.85,1.99-2.01,0.8c-0.78-0.8-1.7-0.72-2.63-0.79
			c1.41-1.6,2.43,0.11,3.81,0.54c0.62-3.52,0.68-6.98,0.57-10.92c-1.73,1.35-3.25,2.47-4.85,0.46c-0.75-0.94-0.68-1.64,0.09-2.49
			c1.41-1.57,2.73-1.02,4.43,0.65C440.74,508.73,438.76,506.81,438.97,504.2z"/>
		<path class="st74" d="M397.38,477.11c-1.52-1.43-2.69-3.03-2.6-5.25c0.93,0.76,1.36-0.15,1.87-0.61c0.88-0.8,1.75-1.01,2.76-0.25
			c0.71,0.54,1.4,1.16,1.15,2.12c-0.28,1.06-1.06,1.93-2.2,1.83C395.72,474.71,397.29,476.21,397.38,477.11z"/>
		<path class="st22" d="M432.02,521.72c-1.61-0.62-3.04-1.47-3.92-3.03c0.76,0.34,1.19,0.21,1.52-0.68
			c0.41-1.11,1.25-1.94,2.56-1.75c1.11,0.16,1.93,0.99,2.17,2c0.32,1.34-0.74,1.99-1.83,2.43
			C432,520.91,432.04,521.31,432.02,521.72z"/>
		<path class="st18" d="M310.22,677.27c-1.46-0.41-2.62-1.1-2.61-2.43c0.01-1.47,1.14-2.39,2.62-2.28c1.31,0.1,2.32,1.01,2.29,2.4
			C312.48,676.4,311.2,676.81,310.22,677.27z"/>
		<path class="st29" d="M483.14,513.84c-0.32,1.31-1.15,2.26-2.44,2.25c-1.37-0.02-2.56-0.9-2.49-2.39c0.06-1.3,1.1-2.2,2.46-2.12
			C481.98,511.65,482.81,512.54,483.14,513.84z"/>
		<path class="st16" d="M469.65,500.61c-0.58,1.33-1.31,2.42-2.68,2.31c-1.39-0.11-2.55-1.06-2.43-2.52c0.11-1.29,1.23-2.1,2.6-2.02
			C468.54,498.47,469.08,499.63,469.65,500.61z"/>
		<path class="st10" d="M357.64,418.25c1.49,0.28,2.58,1.05,2.6,2.34c0.02,1.29-1.06,2.28-2.37,2.28c-1.41,0-2.56-0.94-2.55-2.39
			C355.32,419.11,356.58,418.6,357.64,418.25z"/>
		<path class="st29" d="M402.61,384.07c-0.38,1.29-1.13,2.28-2.5,2.22c-1.37-0.06-2.6-0.79-2.58-2.34c0.02-1.37,1.09-2.14,2.4-2.22
			C401.5,381.64,402.15,382.79,402.61,384.07z"/>
		<path class="st74" d="M496.1,565.44c-0.37,1.28-1.25,2.21-2.54,2.14c-1.3-0.06-2.74-0.92-2.73-2.22c0-1.15,1.29-2.23,2.59-2.2
			C494.69,563.19,495.77,563.98,496.1,565.44z"/>
		<path class="st30" d="M392.9,392.44c-1.26-0.4-2.46-1.06-2.35-2.57c0.09-1.33,1.12-2.14,2.5-2.07c1.49,0.08,2.5,1.12,2.43,2.49
			C395.42,391.53,394.33,392.33,392.9,392.44z"/>
		<path class="st14" d="M326.66,675.32c-0.48,1.4-1.34,2.3-2.63,2.26c-1.4-0.05-2.52-1.03-2.44-2.45c0.07-1.26,1.2-2.23,2.47-2.16
			C325.39,673.05,326.29,674.06,326.66,675.32z"/>
		<path class="st21" d="M402.09,409.41c-0.49,1.2-1.19,2.24-2.57,2.16c-1.44-0.08-2.5-1.06-2.45-2.49c0.05-1.16,1.02-2,2.31-2.03
			C400.95,407.01,401.59,408.11,402.09,409.41z"/>
		<path class="st74" d="M426.89,408c1.69,0,2.71,0.98,2.83,2.29c0.13,1.29-1,2.22-2.29,2.36c-1.53,0.17-2.45-0.9-2.59-2.26
			C424.71,409.04,425.66,408.22,426.89,408z"/>
		<path class="st18" d="M465.09,605.19c-1.37-0.31-2.5-1.02-2.47-2.49c0.02-1.19,0.98-2.08,2.2-2.1c1.46-0.02,2.53,1.03,2.66,2.33
			C467.62,604.29,466.32,604.83,465.09,605.19z"/>
		<path class="st75" d="M381.21,414.77c-0.25,1.51-1.13,2.36-2.41,2.47c-1.35,0.11-2.36-0.81-2.57-2.08
			c-0.24-1.44,0.93-2.27,2.13-2.45C379.86,412.49,380.6,413.68,381.21,414.77z"/>
		<path class="st36" d="M450.61,612.83c1.51,0.36,2.64,0.96,2.7,2.31c0.06,1.36-0.97,2.26-2.26,2.32c-1.43,0.06-2.5-0.86-2.57-2.31
			C448.41,613.7,449.78,613.38,450.61,612.83z"/>
		<path class="st11" d="M392.15,425.78c1.31,0.3,2.49,0.98,2.55,2.27c0.06,1.32-0.93,2.2-2.39,2.11c-1.31-0.08-2.53-0.62-2.54-2.06
			C389.75,426.73,390.93,426.12,392.15,425.78z"/>
		<path class="st18" d="M418.48,495.24c-1.25-0.59-2.38-1.39-2.36-2.74c0.01-1.35,1.2-2.12,2.44-2.17c1.33-0.05,2.35,0.97,2.48,2.18
			C421.23,494.22,419.29,494.31,418.48,495.24z"/>
		<path class="st24" d="M476.7,494.44c-0.56,1.35-1.34,2.42-2.67,2.33c-1.36-0.09-2.58-1.04-2.45-2.51
			c0.11-1.27,1.22-2.12,2.59-2.04C475.57,492.31,476.1,493.48,476.7,494.44z"/>
		<path class="st23" d="M470.06,475.05c-0.48,1.37-1.19,2.37-2.58,2.37c-1.39-0.01-2.36-0.98-2.4-2.27
			c-0.05-1.37,1.02-2.23,2.38-2.21C468.82,472.95,469.53,473.98,470.06,475.05z"/>
		<path class="st28" d="M480.19,541.74c-1.49-0.49-2.39-1.53-2.31-2.86c0.07-1.19,1.2-1.94,2.45-1.8c1.33,0.15,2.33,1.13,2.28,2.4
			C482.56,540.78,481.37,541.41,480.19,541.74z"/>
		<path class="st10" d="M429.28,435.67c-0.42,1.27-1.23,2.24-2.52,2.26c-1.44,0.03-2.52-1-2.55-2.36c-0.02-1.27,1.08-2.2,2.38-2.22
			C428.04,433.32,428.81,434.39,429.28,435.67z"/>
		<path class="st23" d="M392.69,417.76c-1.47-0.18-2.64-0.98-2.66-2.35c-0.02-1.24,1.06-2.17,2.43-2.18
			c1.37-0.01,2.35,0.92,2.47,2.16C395.06,416.74,393.85,417.36,392.69,417.76z"/>
		<path class="st22" d="M437.46,586.67c1.26,0.42,2.52,1.06,2.46,2.55c-0.06,1.34-1.17,2.15-2.51,2.1
			c-1.34-0.05-2.37-0.99-2.38-2.28C435.01,587.71,436.15,587.01,437.46,586.67z"/>
		<path class="st19" d="M442.74,448.89c-0.3,1.33-1.24,2.19-2.52,2.15c-1.26-0.04-2.39-0.89-2.36-2.3c0.03-1.39,1.13-2.24,2.44-2.2
			C441.6,446.59,442.48,447.49,442.74,448.89z"/>
		<path class="st29" d="M435.98,442.22c-0.33,1.29-1.11,2.25-2.45,2.24c-1.27-0.01-2.44-0.78-2.53-2.11
			c-0.1-1.53,1.17-2.34,2.5-2.38C434.79,439.93,435.61,440.94,435.98,442.22z"/>
		<path class="st22" d="M223.19,434.93c0.44-1.2,1.23-2.22,2.55-2.12c1.34,0.11,2.53,1,2.39,2.5c-0.13,1.31-1.24,2.09-2.58,1.99
			C224.22,437.2,223.44,436.29,223.19,434.93z"/>
		<path class="st55" d="M444.29,593.4c1.29,0.32,2.42,1.01,2.43,2.34c0.01,1.34-1.08,2.22-2.41,2.22c-1.36,0-2.41-1.02-2.43-2.26
			C441.84,594.41,442.98,593.66,444.29,593.4z"/>
		<path class="st15" d="M460.78,596.35c-0.48,1.14-1.25,2.19-2.57,2.13c-1.26-0.06-2.42-0.96-2.46-2.25
			c-0.04-1.48,1.2-2.37,2.59-2.29C459.59,594.01,460.45,594.98,460.78,596.35z"/>
		<path class="st12" d="M408.85,415.94c-0.38,1.22-1.15,2.19-2.41,2.24c-1.29,0.06-2.36-0.87-2.54-2.11
			c-0.21-1.42,1.06-2.23,2.19-2.4C407.51,413.46,408.28,414.65,408.85,415.94z"/>
		<path class="st57" d="M413.96,382.27c1.26,0.32,2.36,1,2.33,2.35c-0.03,1.36-1.18,2.2-2.46,2.15c-1.25-0.05-2.38-0.9-2.35-2.29
			C411.52,383.08,412.63,382.48,413.96,382.27z"/>
		<path class="st74" d="M482.92,526.52c-0.33,1.37-1.19,2.18-2.51,2.26c-1.48,0.08-2.62-1.07-2.69-2.21
			c-0.06-1.01,1.1-2.17,2.39-2.26C481.58,524.2,482.39,525.25,482.92,526.52z"/>
		<path class="st14" d="M476.34,507.36c-0.5,1.22-1.25,2.18-2.63,2.07c-1.29-0.11-2.38-0.93-2.34-2.27
			c0.03-1.29,1.07-2.26,2.38-2.23C475.17,504.95,475.98,506,476.34,507.36z"/>
		<path class="st36" d="M453.71,602.36c-0.33,1.29-1.19,2.25-2.45,2.28c-1.25,0.03-2.43-0.84-2.55-2.13
			c-0.14-1.54,1.15-2.37,2.47-2.4C452.45,600.07,453.27,601.11,453.71,602.36z"/>
		<path class="st20" d="M425.24,496.8c1.46,0.23,2.52,1.03,2.58,2.46c0.05,1.25-1,2.07-2.18,2.16c-1.46,0.11-2.59-0.77-2.68-2.21
			C422.87,497.84,424.02,497.17,425.24,496.8z"/>
		<path class="st18" d="M469.79,487.83c-0.35,1.29-1.14,2.2-2.46,2.29c-1.39,0.1-2.39-0.89-2.55-2.1c-0.18-1.34,1.01-2.28,2.2-2.43
			C468.43,485.4,469.23,486.56,469.79,487.83z"/>
		<path class="st74" d="M411.74,488.26c-1.29-0.31-2.41-1.07-2.36-2.35c0.05-1.23,1.05-2.26,2.45-2.15c1.29,0.1,2.4,0.98,2.38,2.28
			C414.2,487.37,413.04,488.02,411.74,488.26z"/>
		<path class="st18" d="M401.84,421.95c-0.39,1.39-1.25,2.31-2.53,2.32c-1.28,0.02-2.43-0.89-2.49-2.16
			c-0.08-1.46,1.16-2.37,2.52-2.37C400.61,419.75,401.37,420.83,401.84,421.95z"/>
		<path class="st28" d="M458.05,611.37c-1.31-0.33-2.53-0.94-2.5-2.45c0.03-1.35,1.1-2.16,2.42-2.14c1.33,0.02,2.35,0.92,2.41,2.22
			C460.46,610.37,459.32,611.01,458.05,611.37z"/>
		<path class="st29" d="M446.61,608.64c-0.39,1.31-1.25,2.27-2.56,2.2c-1.23-0.07-2.45-0.92-2.46-2.26
			c-0.01-1.48,1.25-2.39,2.61-2.32C445.44,606.31,446.28,607.35,446.61,608.64z"/>
		<path class="st56" d="M404.92,477.09c1.23,0.3,2.39,0.88,2.46,2.24c0.07,1.4-1.07,2.24-2.32,2.28c-1.28,0.04-2.38-0.83-2.47-2.17
			C402.5,478.02,403.65,477.42,404.92,477.09z"/>
		<path class="st15" d="M420.81,505.42c-0.37,1.33-1.21,2.23-2.57,2.12c-1.29-0.1-2.41-0.97-2.32-2.33
			c0.09-1.27,1.09-2.23,2.48-2.14C419.75,503.15,420.5,504.11,420.81,505.42z"/>
		<path class="st28" d="M415.3,435.06c-0.12,1.39-1,2.22-2.28,2.31c-1.46,0.11-2.56-0.84-2.59-2.26c-0.03-1.34,1.12-2.16,2.39-2.21
			C414.14,432.85,415,433.69,415.3,435.06z"/>
		<path class="st18" d="M420.07,414.05c1.29,0.35,2.49,0.98,2.52,2.32c0.02,1.33-1.01,2.23-2.4,2.23c-1.37,0-2.4-0.85-2.46-2.19
			C417.67,414.99,418.9,414.45,420.07,414.05z"/>
		<path class="st23" d="M346.49,420.05c-0.32,1.31-1.12,2.22-2.44,2.3c-1.34,0.09-2.38-0.76-2.58-2.04
			c-0.23-1.46,0.95-2.26,2.16-2.43C345.08,417.68,345.92,418.77,346.49,420.05z"/>
		<path class="st29" d="M413.48,412.23c-1.41-0.39-2.63-1.12-2.57-2.56c0.05-1.3,1.26-2.18,2.53-2.12c1.26,0.06,2.37,1.02,2.4,2.32
			C415.86,411.22,414.64,411.81,413.48,412.23z"/>
		<path class="st17" d="M423.46,378.39c-0.37,1.5-1.3,2.35-2.58,2.31c-1.28-0.04-2.37-0.94-2.34-2.3c0.03-1.36,1.09-2.2,2.44-2.16
			C422.33,376.29,423.04,377.3,423.46,378.39z"/>
		<path class="st22" d="M228.64,422.36c-0.36,1.25-1.11,2.22-2.42,2.32c-1.35,0.1-2.4-0.88-2.61-2.07
			c-0.25-1.39,0.94-2.19,2.17-2.41C227.35,419.92,228.02,421.15,228.64,422.36z"/>
		<path class="st9" d="M489.73,533.1c-0.42,1.42-1.22,2.4-2.55,2.35c-1.29-0.05-2.39-0.99-2.41-2.29c-0.02-1.36,1.14-2.16,2.44-2.2
			C488.61,530.92,489.22,532.05,489.73,533.1z"/>
		<path class="st15" d="M353.56,414.14c-0.5,1.17-1.24,2.18-2.6,2.12c-1.29-0.06-2.42-0.92-2.42-2.21c0-1.45,1.22-2.37,2.6-2.3
			C352.39,411.81,353.16,412.89,353.56,414.14z"/>
		<path class="st56" d="M364.88,412.24c1.29,0.32,2.4,0.97,2.31,2.36c-0.08,1.31-1.11,2.21-2.45,2.11
			c-1.28-0.09-2.36-0.99-2.31-2.31C362.47,413.08,363.59,412.43,364.88,412.24z"/>
		<path class="st57" d="M447.11,453.04c1.19,0.45,2.41,1.03,2.37,2.42c-0.04,1.37-1.19,2.22-2.47,2.18
			c-1.3-0.04-2.35-0.98-2.36-2.33C444.64,453.87,445.89,453.39,447.11,453.04z"/>
		<path class="st76" d="M453.93,589.48c-0.33,1.33-1.18,2.23-2.46,2.28c-1.35,0.05-2.4-0.94-2.47-2.18
			c-0.08-1.32,1.01-2.21,2.35-2.25C452.7,587.29,453.45,588.27,453.93,589.48z"/>
		<path class="st15" d="M434.73,505.64c-0.3,1.54-1.21,2.33-2.3,2.44c-1.43,0.14-2.49-0.85-2.68-2.22
			c-0.15-1.09,0.71-2.07,1.78-2.15C433.03,503.58,433.78,504.92,434.73,505.64z"/>
		<path class="st9" d="M463.19,468.58c-0.38,1.33-1.24,2.27-2.56,2.22c-1.28-0.05-2.39-0.96-2.38-2.28
			c0.01-1.33,1.16-2.24,2.43-2.19C461.93,466.37,462.84,467.29,463.19,468.58z"/>
		<path class="st12" d="M456.4,462.06c-0.5,1.22-1.21,2.28-2.61,2.14c-1.27-0.13-2.43-0.98-2.37-2.31c0.06-1.3,1.14-2.15,2.51-2.11
			C455.32,459.81,455.98,460.84,456.4,462.06z"/>
		<path class="st12" d="M462.96,481.13c-0.32,1.48-1.18,2.35-2.48,2.39c-1.34,0.04-2.34-0.87-2.42-2.2
			c-0.08-1.42,0.97-2.23,2.31-2.25C461.73,479.06,462.46,480.06,462.96,481.13z"/>
		<path class="st16" d="M350.73,424.38c1.31,0.3,2.39,1.01,2.37,2.37c-0.02,1.37-1.07,2.17-2.46,2.1c-1.33-0.07-2.41-0.86-2.37-2.24
			C348.3,425.22,349.48,424.65,350.73,424.38z"/>
		<path class="st58" d="M486.95,543.64c1.31,0.34,2.39,1.08,2.38,2.4c-0.01,1.19-0.97,2.11-2.24,2.11c-1.33,0-2.45-0.82-2.51-2.16
			C484.52,544.61,485.72,544,486.95,543.64z"/>
		<path class="st29" d="M374.47,408.21c-0.34,1.42-1.14,2.37-2.43,2.42c-1.41,0.05-2.52-0.87-2.59-2.29c-0.06-1.23,1.01-2,2.16-2.17
			C373.14,405.95,373.81,407.15,374.47,408.21z"/>
		<path class="st36" d="M427.65,511.9c-0.28,1.35-1.22,2.27-2.43,2.28c-1.2,0-2.41-0.86-2.46-2.2c-0.05-1.37,1-2.23,2.33-2.24
			C426.41,509.73,427.24,510.62,427.65,511.9z"/>
		<path class="st7" d="M447.03,583.3c-0.57,1.14-1.35,2.07-2.59,1.88c-1.36-0.2-2.49-1.08-2.3-2.62c0.11-0.93,0.82-1.88,2.01-1.46
			C445.3,581.51,446.71,581.76,447.03,583.3z"/>
		<path class="st19" d="M409.55,473.2c0.41-1.17,1.03-2.29,2.29-2.05c1.24,0.25,2.47,1.25,2.47,2.57c0,1.13-1.2,1.95-2.4,1.8
			C410.67,475.38,409.83,474.48,409.55,473.2z"/>
		<path class="st14" d="M473.56,517.67c1.22,0.3,2.37,0.86,2.42,2.24c0.05,1.37-0.99,2.3-2.27,2.28c-1.55-0.03-2.03-1.58-2.24-2.74
			C471.26,518.22,472.48,517.86,473.56,517.67z"/>
		<path class="st77" d="M401.44,434.57c-0.22,1.39-1.06,2.24-2.22,2.3c-1.49,0.08-2-1.32-2.25-2.45c-0.28-1.3,0.84-1.84,1.91-1.91
			C400.31,432.44,400.98,433.48,401.44,434.57z"/>
		<path class="st31" d="M496.09,552.44c-0.28,1.6-1.09,2.54-2.47,2.34c-1.2-0.18-2.35-1-2.19-2.42c0.13-1.19,1.07-2.07,2.33-1.97
			C495.02,550.48,495.83,551.36,496.09,552.44z"/>
		<path class="st78" d="M418.32,477.6c1.14,0.79,2.24,1.81,2.42,3.15c0.15,1.11-1.11,1.52-2.07,1.41c-1.32-0.15-2.3-1.08-2.35-2.38
			C416.28,478.7,417.14,477.95,418.32,477.6z"/>
		<path class="st75" d="M456.16,474.49c-0.16,1.13-0.65,2.02-1.71,2.08c-1.72,0.11-2.35-1.37-2.76-2.62
			c-0.35-1.06,0.87-1.46,1.63-1.55C454.82,472.24,455.6,473.33,456.16,474.49z"/>
		<path class="st28" d="M407.45,466.94c-0.31,1.35-1.05,1.97-2.05,1.95c-1.43-0.02-2.47-0.86-2.58-2.31
			c-0.08-1.03,0.81-1.99,1.68-1.97C405.99,464.65,406.52,466.2,407.45,466.94z"/>
		<path class="st9" d="M439.78,601.82c-0.25,1.15-0.91,2.13-1.96,2.2c-1.7,0.11-1.92-1.59-2.24-2.71c-0.22-0.79,0.68-1.62,1.62-1.65
			C438.64,599.6,439.23,600.73,439.78,601.82z"/>
		<path class="st56" d="M397.97,458.17c1.22,0.53,2.36,1.19,2.35,2.53c-0.01,1.01-0.96,1.79-1.98,1.62
			c-1.23-0.2-2.35-0.99-2.32-2.39C396.03,458.86,397.06,458.47,397.97,458.17z"/>
		<path class="st19" d="M242.33,423.22c-0.37,1.27-1.24,2.03-2.42,1.96c-1.24-0.07-2.32-0.76-2.4-2.21c-0.05-0.96,0.48-1.9,1.5-1.56
			C240.17,421.79,241.85,421.54,242.33,423.22z"/>
		<path class="st79" d="M390.78,451.59c1.14,0.55,2.43,1.34,2.88,2.54c0.39,1.03-0.89,1.57-1.83,1.62
			c-1.51,0.09-2.44-0.94-2.68-2.27C389.01,452.67,389.65,451.88,390.78,451.59z"/>
		<path class="st75" d="M388.54,396.16c-0.2,0.94-0.65,1.95-1.56,1.83c-1.48-0.2-2.23-1.55-2.62-2.84
			c-0.23-0.74,0.62-1.17,1.36-1.19C387.27,393.9,387.99,394.95,388.54,396.16z"/>
		<path class="st7" d="M489.26,558.78c-0.39,1.15-1.02,2.36-2.07,2.06c-1.36-0.39-1.24-2.11-1.61-3.29c-0.26-0.85,0.5-1.24,1.3-1.09
			C488.2,556.72,488.97,557.55,489.26,558.78z"/>
		<path class="st33" d="M304.52,666.98c1.02,0.16,1.45,0.68,1.22,1.46c-0.36,1.25-1.26,2.11-2.6,2.05
			c-0.78-0.03-2.06-0.31-1.74-1.39C301.83,667.66,303.51,667.6,304.52,666.98z"/>
		<path class="st80" d="M461.79,457.34c-0.16,0.91-0.67,1.04-1.19,0.87c-1.21-0.39-2.11-1.18-2.28-2.49
			c-0.1-0.75,0.57-1.61,1.15-1.39C460.81,454.87,460.87,456.55,461.79,457.34z"/>
		<path class="st80" d="M462.82,493.95c-0.04,0.95-0.57,1.87-1.29,1.63c-1.24-0.42-0.99-1.96-1.47-2.98
			c-0.2-0.43,0.17-0.96,0.62-0.85C461.84,492.03,462.48,492.91,462.82,493.95z"/>
		<path class="st81" d="M379.09,404.6c-0.84-0.06-1.87-0.26-1.62-0.98c0.44-1.25,1.96-1.39,3.05-1.95c0.43-0.22,0.93,0.23,0.85,0.66
			C381.15,403.64,380.26,404.36,379.09,404.6z"/>
		<path class="st36" d="M405.57,379.83c-0.46-1.54,1.25-1.32,1.71-2.12c0.68-0.38,1.55-1.26,1.98,0c0.25,0.74-0.11,2-1.23,1.98
			C407.19,379.68,406.42,381.02,405.57,379.83z"/>
		<path class="st10" d="M218.01,415.71c0.84,0.56,2.47,0.12,2.92,1.44c0.29,0.84-0.87,0.98-1.47,0.99
			c-1.21,0.01-2.19-0.62-2.53-1.83C216.79,415.79,217.37,415.68,218.01,415.71z"/>
		<path class="st82" d="M360.53,408.46c-0.35,1.16-1.25,1.64-2.27,1.86c-0.69,0.15-1.68-0.11-1.54-0.84
			c0.24-1.26,1.7-1.14,2.65-1.58C359.86,407.67,360.37,407.83,360.53,408.46z"/>
		<path class="st83" d="M421.13,442.09c-0.8-0.75-2.56-0.49-2.97-1.84c-0.23-0.77,0.93-0.82,1.57-0.76c1.21,0.1,2.07,0.8,2.39,1.97
			C422.25,441.9,421.84,442.21,421.13,442.09z"/>
		<path class="st12" d="M425.87,487.79c0.02,0.7-0.25,1.16-0.73,0.95c-0.96-0.43-1.75-1.15-2.02-2.22
			c-0.14-0.54,0.12-1.19,0.77-1.04C425.13,485.77,425.18,487.16,425.87,487.79z"/>
		<path class="st65" d="M447.53,465.85c0.97,0.3,1.63,1.03,1.96,2.04c0.13,0.41,0.03,0.98-0.52,0.91c-1.3-0.16-1.51-1.44-2.08-2.33
			C446.76,466.26,446.99,465.82,447.53,465.85z"/>
		<path class="st84" d="M233.71,439.9c0.01,0.77-0.57,0.76-1.07,0.78c-0.6,0.02-1.3,0.03-1.31-0.83c-0.01-0.71,0.43-1.15,1.15-1.09
			C233.13,438.82,233.56,439.24,233.71,439.9z"/>
		<path class="st85" d="M406.66,439.56c-0.31,0.73-0.94,0.98-1.64,0.91c-0.58-0.06-0.9-0.53-0.7-1.11c0.23-0.64,0.82-0.82,1.46-0.77
			C406.35,438.64,406.73,438.89,406.66,439.56z"/>
		<path class="st86" d="M384.65,449.56c-0.9-0.04-1.48-0.59-1.68-1.38c-0.13-0.51,0.43-0.71,0.89-0.62
			c0.78,0.15,1.57,0.44,1.71,1.33C385.64,449.4,385.11,449.53,384.65,449.56z"/>
		<path class="st87" d="M414.77,374.58c-0.54-0.07-0.88-0.35-0.72-0.86c0.26-0.88,1.03-1.09,1.83-1.17c0.43-0.04,0.7,0.26,0.59,0.62
			C416.23,374,415.48,374.31,414.77,374.58z"/>
		<path class="st88" d="M317.71,670.71c-0.12,0.49-0.46,0.69-0.93,0.6c-0.8-0.16-1.49-0.55-1.45-1.46c0.03-0.63,0.59-0.45,0.97-0.31
			C316.9,669.75,317.69,669.78,317.71,670.71z"/>
		<path class="st89" d="M227.94,605.25c1.41,0.45,2.67,1.14,2.57,2.61c-0.09,1.28-1.29,2.22-2.53,2.13
			c-1.25-0.09-2.73-0.93-2.79-2.24C225.12,606.2,226.69,605.69,227.94,605.25z"/>
		<path class="st18" d="M199.14,642.92c1.25,0.45,2.52,1.11,2.36,2.59c-0.13,1.24-1.24,2.2-2.54,2.1c-1.36-0.11-2.52-1.07-2.39-2.52
			C196.67,643.85,197.79,643.12,199.14,642.92z"/>
		<path class="st18" d="M270.74,673.49c-0.45,1.28-1.21,2.3-2.55,2.23c-1.35-0.08-2.54-0.91-2.48-2.41c0.06-1.34,1.21-2.2,2.44-2.18
			C269.51,671.13,270.39,672.16,270.74,673.49z"/>
		<path class="st18" d="M202.69,606.84c-0.41,1.29-1.27,2.17-2.56,2.16c-1.43-0.01-2.55-1-2.5-2.39c0.04-1.25,1.18-2.23,2.46-2.19
			C201.43,604.46,202.36,605.43,202.69,606.84z"/>
		<path class="st30" d="M248.12,642.89c-1.4-0.25-2.51-1.03-2.55-2.45c-0.03-1.35,1.12-2.2,2.4-2.24c1.46-0.05,2.55,0.99,2.58,2.37
			C250.59,641.88,249.43,642.59,248.12,642.89z"/>
		<path class="st18" d="M243.86,633.76c-0.28,1.35-1.15,2.23-2.4,2.35c-1.48,0.15-2.55-0.91-2.68-2.22
			c-0.13-1.3,1.05-2.24,2.28-2.35C242.49,631.41,243.32,632.5,243.86,633.76z"/>
		<path class="st25" d="M199.68,617.17c1.33,0.52,2.68,1.13,2.52,2.62c-0.13,1.23-1.2,2.16-2.59,2.05
			c-1.33-0.11-2.34-1.03-2.32-2.33C197.32,618.18,198.5,617.55,199.68,617.17z"/>
		<path class="st23" d="M228.71,584.37c-1.26-0.25-2.34-0.95-2.49-2.24c-0.17-1.45,1.09-2.25,2.26-2.38
			c1.43-0.16,2.6,0.91,2.67,2.27C231.22,583.3,230.03,584.04,228.71,584.37z"/>
		<path class="st16" d="M200.47,596.25c-1.31-0.34-2.53-1-2.46-2.52c0.06-1.35,1.18-2.15,2.51-2.11c1.37,0.03,2.4,1.01,2.4,2.29
			C202.94,595.21,201.85,595.99,200.47,596.25z"/>
		<path class="st24" d="M244.12,620.86c-0.12,1.49-1.14,2.31-2.31,2.43c-1.39,0.14-2.53-0.84-2.66-2.23
			c-0.13-1.36,0.98-2.23,2.24-2.34C242.85,618.58,243.69,619.58,244.12,620.86z"/>
		<path class="st29" d="M261.5,669.12c-1.38-0.24-2.56-0.97-2.64-2.37c-0.07-1.33,1.09-2.19,2.35-2.28c1.46-0.1,2.55,0.94,2.64,2.28
			C263.95,668.05,262.74,668.74,261.5,669.12z"/>
		<path class="st18" d="M248.52,629.98c-1.5-0.19-2.61-1.03-2.59-2.45c0.02-1.3,1.18-2.19,2.5-2.16c1.28,0.03,2.38,0.8,2.41,2.23
			C250.86,629.05,249.75,629.65,248.52,629.98z"/>
		<path class="st21" d="M213.65,617.77c1.39,0.14,2.36,0.86,2.48,2.21c0.13,1.48-1.07,2.26-2.26,2.33
			c-1.38,0.09-2.59-0.84-2.62-2.29C211.21,618.66,212.41,618.05,213.65,617.77z"/>
		<path class="st7" d="M206.25,641.44c-1.46-0.26-2.57-1.07-2.54-2.48c0.03-1.31,1.21-2.17,2.48-2.14c1.38,0.02,2.53,0.95,2.49,2.4
			C208.64,640.55,207.46,641.15,206.25,641.44z"/>
		<path class="st7" d="M209.81,600.58c-0.35,1.35-1.21,2.25-2.52,2.24c-1.45-0.01-2.54-1-2.44-2.45c0.09-1.28,1.18-2.19,2.52-2.08
			C208.65,598.39,209.49,599.3,209.81,600.58z"/>
		<path class="st26" d="M222.02,665.14c-0.26,1.53-1.12,2.38-2.42,2.49c-1.51,0.12-2.59-0.98-2.7-2.27
			c-0.11-1.26,1.02-2.21,2.33-2.34C220.8,662.86,221.42,664.1,222.02,665.14z"/>
		<path class="st10" d="M219.71,654.88c-1.2-0.53-2.57-1.04-2.4-2.63c0.14-1.32,1.29-2.2,2.54-2.14c1.37,0.07,2.53,1.07,2.42,2.54
			C222.17,653.93,221.02,654.61,219.71,654.88z"/>
		<path class="st15" d="M194.46,651.44c-0.29,1.36-1.16,2.28-2.41,2.36c-1.4,0.09-2.55-0.84-2.65-2.25c-0.1-1.37,1.12-2.22,2.3-2.34
			C193.13,649.06,193.92,650.21,194.46,651.44z"/>
		<path class="st30" d="M257.39,647.1c-0.26,1.41-1.12,2.32-2.41,2.39c-1.32,0.07-2.42-0.85-2.55-2.14
			c-0.16-1.55,1.07-2.41,2.44-2.47C256.22,644.83,256.97,645.89,257.39,647.1z"/>
		<path class="st23" d="M247.45,650.99c1.41,0.29,2.54,0.91,2.67,2.22c0.15,1.53-1.01,2.41-2.39,2.44
			c-1.29,0.03-2.33-0.88-2.42-2.21C245.21,652.01,246.47,651.51,247.45,650.99z"/>
		<path class="st27" d="M199.14,630.1c1.45,0.19,2.54,0.88,2.67,2.18c0.14,1.53-1.08,2.41-2.42,2.45c-1.26,0.03-2.34-0.89-2.42-2.23
			C196.87,631.05,198.1,630.54,199.14,630.1z"/>
		<path class="st23" d="M237.74,601.34c-0.36,1.47-1.29,2.37-2.5,2.44c-1.34,0.07-2.66-0.92-2.78-2.18
			c-0.12-1.32,1.18-2.24,2.48-2.37C236.43,599.06,237.1,600.3,237.74,601.34z"/>
		<path class="st79" d="M213.09,643.34c1.41,0.47,2.54,1.24,2.43,2.55c-0.1,1.23-1.14,2.23-2.5,2.2c-1.44-0.04-2.54-1.02-2.55-2.43
			C210.45,644.04,212.35,644.24,213.09,643.34z"/>
		<path class="st23" d="M214.65,579.19c1.28,0.34,2.55,1.03,2.55,2.41c0,1.24-1.13,2.2-2.44,2.19c-1.29-0.01-2.37-0.94-2.47-2.2
			C212.18,580.24,213.39,579.62,214.65,579.19z"/>
		<path class="st5" d="M226.36,656.78c1.48,0.23,2.43,1.02,2.58,2.29c0.18,1.48-1.03,2.18-2.25,2.27c-1.34,0.1-2.36-0.87-2.48-2.14
			C224.08,657.8,225.34,657.26,226.36,656.78z"/>
		<path class="st11" d="M221.47,585.78c1.31,0.32,2.46,0.98,2.51,2.32c0.07,1.53-1.14,2.43-2.54,2.37
			c-1.25-0.05-2.37-0.98-2.37-2.35C219.09,586.74,220.27,586.16,221.47,585.78z"/>
		<path class="st23" d="M210.53,574.96c-0.36,1.32-1.25,2.09-2.56,2.16c-1.44,0.08-2.4-0.96-2.45-2.18
			c-0.05-1.44,1.13-2.38,2.55-2.32C209.36,572.68,210.19,573.65,210.53,574.96z"/>
		<path class="st14" d="M195.59,612.78c-0.39,1.44-1.23,2.37-2.5,2.42c-1.42,0.06-2.57-0.93-2.64-2.29
			c-0.07-1.3,1.15-2.19,2.37-2.29C194.29,610.5,194.99,611.7,195.59,612.78z"/>
		<path class="st25" d="M254.64,662.42c-1.43-0.18-2.48-1-2.55-2.26c-0.09-1.49,1.16-2.36,2.54-2.35c1.31,0.01,2.34,1.02,2.35,2.31
			C256.99,661.47,255.84,662.13,254.64,662.42z"/>
		<path class="st18" d="M209.5,613.49c-0.49,1.21-1.23,2.18-2.61,2.17c-1.38-0.01-2.44-0.99-2.44-2.23c0-1.37,1.1-2.44,2.58-2.34
			C208.34,611.18,209.09,612.22,209.5,613.49z"/>
		<path class="st16" d="M230.87,594.8c-0.28,1.37-1.17,2.31-2.44,2.32c-1.38,0.02-2.59-0.88-2.53-2.4c0.05-1.35,1.15-2.19,2.49-2.17
			C229.73,592.57,230.53,593.5,230.87,594.8z"/>
		<path class="st25" d="M208.42,652.1c-0.51,1.2-1.28,2.2-2.63,2.14c-1.3-0.06-2.42-0.91-2.4-2.24c0.02-1.46,1.15-2.35,2.61-2.27
			C207.34,649.81,208.02,650.86,208.42,652.1z"/>
		<path class="st18" d="M189.11,593.33c-0.29,1.35-1.14,2.28-2.4,2.36c-1.41,0.09-2.55-0.89-2.68-2.24
			c-0.13-1.37,1.16-2.19,2.31-2.34C187.79,590.91,188.53,592.14,189.11,593.33z"/>
		<path class="st58" d="M179.88,589.13c-1.48-0.35-2.6-1.12-2.56-2.4c0.04-1.25,1.1-2.19,2.48-2.15c1.35,0.04,2.4,0.94,2.37,2.24
			C182.14,588.14,180.91,588.74,179.88,589.13z"/>
		<path class="st28" d="M210.21,587.55c-0.35,1.44-1.2,2.38-2.48,2.44c-1.44,0.07-2.53-0.94-2.54-2.36
			c-0.01-1.33,1.11-2.14,2.43-2.17C209.03,585.43,209.65,586.54,210.21,587.55z"/>
		<path class="st14" d="M194.81,638.57c-0.33,1.36-1.21,2.31-2.47,2.35c-1.42,0.05-2.59-0.97-2.57-2.37
			c0.02-1.27,1.11-2.19,2.48-2.16C193.59,636.42,194.38,637.34,194.81,638.57z"/>
		<path class="st27" d="M224.45,575.57c-0.58,1.15-1.33,2.22-2.68,2.05c-1.23-0.15-2.45-1.04-2.34-2.33
			c0.12-1.33,1.23-2.34,2.73-2.15C223.44,573.31,224.22,574.24,224.45,575.57z"/>
		<path class="st18" d="M229.15,571.59c-1.4-0.31-2.62-1.03-2.59-2.48c0.03-1.29,1.11-2.19,2.5-2.13c1.34,0.06,2.41,0.91,2.43,2.23
			C231.51,570.54,230.38,571.22,229.15,571.59z"/>
		<path class="st21" d="M217.62,568.77c-0.39,1.33-1.2,2.23-2.58,2.17c-1.36-0.06-2.4-0.97-2.37-2.3c0.03-1.36,1.22-2.17,2.51-2.17
			C216.52,566.48,217.28,567.5,217.62,568.77z"/>
		<path class="st29" d="M219.85,637.26c1.63,0.17,2.77,0.78,2.8,2.16c0.04,1.46-1.09,2.42-2.48,2.43c-1.39,0.01-2.56-0.95-2.52-2.39
			C217.7,638.15,218.91,637.55,219.85,637.26z"/>
		<path class="st19" d="M237.34,614.45c-0.5,1.21-1.23,2.23-2.61,2.14c-1.31-0.08-2.43-0.95-2.37-2.27
			c0.06-1.38,1.15-2.38,2.63-2.26C236.29,612.17,237.03,613.16,237.34,614.45z"/>
		<path class="st12" d="M193.05,597.73c1.47,0.29,2.62,0.87,2.68,2.22c0.06,1.33-0.9,2.29-2.21,2.39c-1.49,0.12-2.5-0.9-2.62-2.27
			C190.79,598.66,192.11,598.21,193.05,597.73z"/>
		<path class="st28" d="M186.31,603.95c1.23,0.35,2.34,1,2.25,2.41c-0.09,1.31-1.07,2.26-2.41,2.19c-1.4-0.07-2.56-0.99-2.43-2.47
			C183.82,604.78,184.97,604.12,186.31,603.95z"/>
		<path class="st21" d="M206.62,623.93c1.29,0.38,2.44,1.01,2.33,2.44c-0.1,1.36-1.23,2.21-2.52,2.14
			c-1.27-0.08-2.37-0.98-2.29-2.37C204.21,624.76,205.37,624.17,206.62,623.93z"/>
		<path class="st6" d="M215.1,658.58c-0.25,1.33-1.12,2.26-2.4,2.3c-1.31,0.04-2.38-0.85-2.42-2.23c-0.04-1.28,1.01-2.1,2.18-2.2
			C213.81,656.34,214.67,657.25,215.1,658.58z"/>
		<path class="st57" d="M203.38,581.23c-0.49,1.22-1.31,2.1-2.66,2.05c-1.36-0.05-2.43-1.07-2.38-2.27c0.06-1.33,1.23-2.37,2.68-2.2
			C202.25,578.96,203.11,579.89,203.38,581.23z"/>
		<path class="st14" d="M195.17,625.73c-0.31,1.32-1.13,2.22-2.46,2.29c-1.36,0.07-2.4-0.82-2.55-2.11
			c-0.16-1.39,0.96-2.29,2.2-2.43C193.83,623.32,194.68,624.39,195.17,625.73z"/>
		<path class="st27" d="M193.84,589.56c-1.41-0.14-2.48-0.95-2.59-2.19c-0.14-1.48,1.12-2.4,2.46-2.43c1.28-0.03,2.39,1,2.45,2.26
			C196.22,588.52,195.07,589.23,193.84,589.56z"/>
		<path class="st56" d="M213.46,635.29c-1.45-0.38-2.6-1.1-2.5-2.59c0.1-1.34,1.28-2.13,2.53-2.04c1.22,0.09,2.32,0.95,2.29,2.33
			C215.75,634.38,214.56,634.91,213.46,635.29z"/>
		<path class="st9" d="M188.41,619.06c-0.5,1.36-1.34,2.38-2.61,2.33c-1.34-0.05-2.59-0.98-2.46-2.45c0.11-1.25,1.27-2.11,2.57-2.08
			C187.26,616.9,187.9,618.01,188.41,619.06z"/>
		<path class="st18" d="M216.92,594.28c-0.38,1.53-1.29,2.41-2.58,2.34c-1.24-0.07-2.42-0.9-2.37-2.27
			c0.05-1.45,1.18-2.34,2.61-2.27C215.92,592.15,216.55,593.24,216.92,594.28z"/>
		<path class="st28" d="M237.66,588.78c0.03,1.43-0.89,2.1-2.06,2.15c-1.48,0.07-2.48-0.93-2.53-2.34
			c-0.04-1.38,1.09-2.13,2.38-2.18C236.97,586.36,237.35,587.61,237.66,588.78z"/>
		<path class="st9" d="M181.88,599.73c-0.45,1.26-1.28,2.23-2.62,2.12c-1.28-0.1-2.34-1-2.23-2.41c0.11-1.34,1.16-2.24,2.48-2.12
			C180.77,597.45,181.65,598.37,181.88,599.73z"/>
		<path class="st77" d="M221.4,603.32c-1.35-0.23-2.47-0.89-2.58-2.18c-0.11-1.36,0.96-2.22,2.26-2.31c1.36-0.1,2.37,0.83,2.5,2.08
			C223.73,602.29,222.52,602.89,221.4,603.32z"/>
		<path class="st56" d="M243.89,608.55c0.02,1.31-0.76,1.8-1.8,1.84c-1.55,0.06-2.5-0.99-2.56-2.32c-0.05-1.13,0.97-2.12,2.17-2.16
			C243.46,605.83,243.31,607.59,243.89,608.55z"/>
		<path class="st90" d="M234.77,576.42c0.1,0.66-0.02,1.11-0.59,0.99c-0.72-0.15-1.2-0.65-1.24-1.44c-0.03-0.56,0.16-1.1,0.82-1
			C234.61,575.11,234.47,576.03,234.77,576.42z"/>
		<path class="st7" d="M133.8,578.63c-0.29,1.46-1.16,2.44-2.6,2.46c-1.45,0.02-2.52-0.92-2.57-2.39c-0.05-1.45,1.15-2.12,2.4-2.26
			C132.54,576.28,133.37,577.26,133.8,578.63z"/>
		<path class="st18" d="M117.08,575.9c1.46,0.21,2.59,1.02,2.6,2.43c0.01,1.26-0.96,2.24-2.38,2.26c-1.51,0.02-2.54-0.92-2.58-2.34
			C114.69,576.89,115.86,576.25,117.08,575.9z"/>
		<path class="st11" d="M138.95,544.56c1.34,0.19,2.48,0.96,2.61,2.18c0.16,1.47-1.1,2.43-2.46,2.48c-1.28,0.05-2.39-0.92-2.48-2.22
			C136.54,545.6,137.76,545,138.95,544.56z"/>
		<path class="st15" d="M145.46,563.98c1.34,0.33,2.51,1.07,2.49,2.5c-0.01,1.32-1.2,2.22-2.45,2.19c-1.35-0.03-2.57-1-2.55-2.41
			C142.98,564.99,144.18,564.31,145.46,563.98z"/>
		<path class="st19" d="M138.53,575.03c-1.32-0.41-2.58-1.06-2.69-2.45c-0.11-1.36,1.1-2.2,2.31-2.29c1.42-0.12,2.52,0.83,2.59,2.26
			C140.82,573.87,139.75,574.61,138.53,575.03z"/>
		<path class="st27" d="M139.45,531.84c1.29,0.14,2.31,0.88,2.45,2.17c0.14,1.38-0.93,2.25-2.19,2.39
			c-1.49,0.16-2.58-0.84-2.65-2.23C136.98,532.87,138.04,532.07,139.45,531.84z"/>
		<path class="st17" d="M141.22,559.76c-0.32,1.33-1.18,2.21-2.48,2.24c-1.32,0.03-2.41-0.89-2.47-2.17
			c-0.06-1.45,1.04-2.38,2.5-2.36C140.12,557.49,140.85,558.5,141.22,559.76z"/>
		<path class="st19" d="M124.52,574.4c-1.43-0.13-2.43-0.99-2.58-2.19c-0.16-1.33,0.95-2.25,2.22-2.39
			c1.48-0.16,2.59,0.87,2.69,2.22C126.94,573.36,125.68,573.99,124.52,574.4z"/>
		<path class="st11" d="M134.11,565.91c-0.4,1.28-1.19,2.22-2.52,2.26c-1.36,0.04-2.44-0.96-2.5-2.18c-0.07-1.41,1.03-2.4,2.53-2.36
			C132.96,563.67,133.69,564.67,134.11,565.91z"/>
		<path class="st55" d="M146.03,555.92c-1.44-0.31-2.55-0.95-2.59-2.32c-0.04-1.4,1.06-2.21,2.36-2.28
			c1.39-0.08,2.31,0.88,2.41,2.22C148.3,555.01,147.07,555.48,146.03,555.92z"/>
		<path class="st74" d="M142.37,521.25c-0.3,1.41-1.17,2.28-2.47,2.31c-1.31,0.03-2.42-0.8-2.44-2.16c-0.03-1.35,1.09-2.27,2.34-2.3
			C141.07,519.07,141.93,520.05,142.37,521.25z"/>
		<path class="st59" d="M112.94,571.81c-0.46,1.2-1.32,2.12-2.62,2.01c-1.26-0.11-2.35-1-2.28-2.36c0.07-1.25,1.04-1.86,2.38-1.71
			C111.71,569.88,112.77,570.25,112.94,571.81z"/>
		<path class="st19" d="M132.46,537.99c1.2,0.27,2.3,1.03,2.31,2.31c0.01,1.3-1.08,2.25-2.39,2.25c-1.87,0.01-1.71-1.64-1.83-2.86
			C130.42,538.45,131.31,538.09,132.46,537.99z"/>
		<path class="st7" d="M151.81,558.18c1.29,0.74,2.15,1.84,2.37,3.22c0.15,0.97-0.84,1.36-1.62,1.12c-1.25-0.39-2.69-0.88-2.67-2.53
			C149.92,558.97,150.85,558.48,151.81,558.18z"/>
		<path class="st58" d="M147.55,539.48c0.33,2.19-0.64,3.07-2.78,2.77c-1.13-0.78-1.48-1.72-0.36-2.73
			C145.39,538.62,146.48,537.8,147.55,539.48z"/>
		<path class="st5" d="M135.1,527.5c-0.13,1.25-0.97,1.92-2.11,2.2c-0.78,0.19-1.56-0.29-1.28-1.05c0.4-1.07-0.17-2.89,1.59-3.06
			C134.27,525.48,134.87,526.46,135.1,527.5z"/>
		<path class="st14" d="M132.77,551.01c0.95,0.39,1.64,1.08,1.64,2.11c0,0.89-0.58,1.98-1.47,1.8c-1.56-0.32-0.46-1.9-0.89-2.85
			C131.85,551.62,132,551.02,132.77,551.01z"/>
		<path class="st91" d="M119.7,566.86c-0.36,0.67-0.79,1.31-1.67,1.3c-0.47,0-0.79-0.33-0.66-0.84c0.19-0.73,0.72-1.11,1.47-1.15
			C119.31,566.15,119.68,566.28,119.7,566.86z"/>
		<path class="st57" d="M99.13,483.82c-1.21-0.09-2.28-0.64-2.25-2.12c0.03-1.48,1-2.42,2.49-2.36c1.44,0.06,2.51,0.96,2.42,2.45
			C101.72,483.15,100.67,483.83,99.13,483.82z"/>
		<path class="st55" d="M106.45,473.22c1.31,0.3,2.46,0.95,2.43,2.31c-0.03,1.3-1.01,2.22-2.41,2.19c-1.35-0.03-2.42-0.86-2.4-2.2
			C104.08,474.19,105.19,473.5,106.45,473.22z"/>
		<path class="st31" d="M80.38,500.19c-0.47,1.23-1.25,2.17-2.62,2.1c-1.34-0.07-2.39-1.02-2.33-2.31c0.06-1.28,1.22-2.18,2.51-2.14
			C79.26,497.88,80,498.92,80.38,500.19z"/>
		<path class="st11" d="M86.22,505.4c-0.96,0.83-1.9,1.82-3.02,2.52c-0.68,0.43-1.11-0.35-1.15-0.95c-0.12-1.6,0.99-2.3,2.31-2.61
			C84.98,504.22,85.71,504.4,86.22,505.4z"/>
		<path class="st34" d="M113.07,479.72c0.47,0.05,1.15,0.18,0.95,0.6c-0.57,1.17-1.62,1.96-2.84,2.4c-0.55,0.2-0.73-0.34-0.61-0.79
			C110.91,480.63,111.8,479.92,113.07,479.72z"/>
		<path class="st30" d="M231.78,469.51c-1.24-0.42-2.42-1.08-2.47-2.4c-0.05-1.35,1.06-2.3,2.36-2.28c1.37,0.02,2.61,0.86,2.57,2.38
			C234.22,468.58,232.98,469.13,231.78,469.51z"/>
		<path class="st16" d="M240.74,472.8c-0.66,0.15-1.31,0.38-1.97,0.42c-0.65,0.04-1.39,0.25-1.93-0.34
			c-0.28-0.31-0.1-0.66,0.12-0.92c0.58-0.66,1.36-0.61,2.14-0.56c0.94,0.06,1.23,0.81,1.6,1.47
			C240.7,472.87,240.74,472.8,240.74,472.8z"/>
		<path class="st19" d="M123.44,463.35c-0.66,1.15-1.4,2.33-2.86,2.24c-1.26-0.08-2.4-0.86-2.28-2.29c0.12-1.45,1.26-2.28,2.68-2.26
			C122.35,461.05,123,462.13,123.44,463.35z"/>
		<path class="st89" d="M156.42,430.41c1.39,0.35,2.51,1.13,2.43,2.59c-0.07,1.4-1.33,2.05-2.6,1.96c-1.28-0.09-2.36-0.99-2.32-2.32
			C153.99,431.28,155.17,430.68,156.42,430.41z"/>
		<path class="st12" d="M151.73,439.1c-0.28,1.49-1.33,2.02-2.64,1.87c-1.31-0.15-2.33-0.98-2.18-2.4c0.13-1.22,1.18-2.06,2.35-2
			C150.65,436.65,151.61,437.56,151.73,439.1z"/>
		<path class="st92" d="M139.25,453.13c-0.99-0.33-0.82-1.61-1.67-2.06c-0.78-1.15-1.47-2.35-3.23-2.04
			c-1.37,0.24-0.97-0.85-0.96-1.54c0.02-2.58,0.15-5.16-0.43-7.76C135.27,440.52,136.42,443,139.25,453.13z"/>
	</g>
</g>
</svg>
