<?xml version="1.0" encoding="utf-8"?>
<!-- Generator: Adobe Illustrator 25.2.3, SVG Export Plug-In . SVG Version: 6.00 Build 0)  -->
<svg version="1.1" id="レイヤー_1" xmlns="http://www.w3.org/2000/svg" xmlns:xlink="http://www.w3.org/1999/xlink" x="0px"
	 y="0px" viewBox="0 0 595.28 841.89" style="enable-background:new 0 0 595.28 841.89;" xml:space="preserve">
<style type="text/css">
	.st0{fill:#FFFFFF;}
	.st1{fill:#757575;}
	.st2{fill:#010101;}
	.st3{fill:#030303;}
	.st4{fill:#070707;}
	.st5{fill:#080808;}
	.st6{fill:#1C1C1C;}
	.st7{fill:#050505;}
	.st8{fill:#020202;}
	.st9{fill:#151515;}
	.st10{fill:#2E2E2E;}
	.st11{fill:#2F2F2F;}
	.st12{fill:#353535;}
	.st13{fill:#272727;}
	.st14{fill:#222222;}
	.st15{fill:#262626;}
	.st16{fill:#373737;}
	.st17{fill:#232323;}
	.st18{fill:#2B2B2B;}
	.st19{fill:#191919;}
	.st20{fill:#2C2C2C;}
	.st21{fill:#2A2A2A;}
	.st22{fill:#242424;}
	.st23{fill:#1A1A1A;}
	.st24{fill:#1B1B1B;}
	.st25{fill:#171717;}
	.st26{fill:#1E1E1E;}
	.st27{fill:#3D3D3D;}
	.st28{fill:#0B0B0B;}
	.st29{fill:#0A0A0A;}
	.st30{fill:#7B7B7B;}
	.st31{fill:#0E0E0E;}
	.st32{fill:#111111;}
	.st33{fill:#0C0C0C;}
	.st34{fill:#060606;}
	.st35{fill:#2D2D2D;}
	.st36{fill:#8A8A8A;}
	.st37{fill:#5E5E5E;}
	.st38{fill:#808080;}
	.st39{fill:#131313;}
	.st40{fill:#161616;}
	.st41{fill:#1F1F1F;}
	.st42{fill:#898989;}
	.st43{fill:#838383;}
	.st44{fill:#6B6B6B;}
	.st45{fill:#6E6E6E;}
	.st46{fill:#777777;}
	.st47{fill:#282828;}
	.st48{fill:#AAAAAA;}
	.st49{fill:#A7A7A7;}
	.st50{fill:#ACACAC;}
	.st51{fill:#818181;}
	.st52{fill:#8D8D8D;}
	.st53{fill:#727272;}
	.st54{fill:#919191;}
	.st55{fill:#6F6F6F;}
	.st56{fill:#7D7D7D;}
	.st57{fill:#717171;}
	.st58{fill:#707070;}
	.st59{fill:#FEFEFE;}
	.st60{fill:#9FA0A0;}
	.st61{fill:#9E9E9E;}
	.st62{fill:#FDFDFD;}
	.st63{fill:#F9F9F9;}
	.st64{fill:#FCFCFC;}
	.st65{fill:#FAFAFA;}
	.st66{fill:#F6F6F6;}
	.st67{fill:#F3F3F3;}
	.st68{fill:#DADADA;}
	.st69{fill:#474747;}
	.st70{fill:#8B8B8B;}
	.st71{fill:#5D5D5D;}
	.st72{fill:#6C6C6C;}
	.st73{fill:#323232;}
	.st74{fill:#525252;}
	.st75{fill:#969696;}
	.st76{fill:#565656;}
	.st77{fill:#828282;}
	.st78{fill:#ABABAB;}
	.st79{fill:#A1A1A1;}
	.st80{fill:#9D9D9D;}
	.st81{fill:#7A7A7A;}
	.st82{fill:#040404;}
	.st83{fill:#0D0D0D;}
	.st84{fill:#686868;}
	.st85{fill:#444444;}
	.st86{fill:#090909;}
	.st87{fill:#3E3E3E;}
	.st88{fill:#121212;}
	.st89{fill:#767676;}
	.st90{fill:#A8A8A8;}
	.st91{fill:#303030;}
	.st92{fill:#1D1D1D;}
	.st93{fill:#181818;}
	.st94{fill:#252525;}
	.st95{fill:#949494;}
	.st96{fill:#333333;}
	.st97{fill:#8C8C8C;}
	.st98{fill:#909090;}
	.st99{fill:#343434;}
	.st100{fill:#393939;}
	.st101{fill:#212121;}
	.st102{fill:#101010;}
	.st103{fill:#B1B1B1;}
	.st104{fill:#FBFBFB;}
</style>
<g>
	<polygon class="st0" points="110.83,287.27 129.27,237.94 156.36,218.28 174.94,214.63 184.83,214.14 188.61,201.77 205.57,175.2 
		225.39,172.69 234.82,173.69 243.19,159.64 288.97,124.78 311.36,144.25 331.24,158.62 353.16,176.97 372.53,169.01 390.39,185.11 
		395.29,194.22 401.3,206.44 443.18,222.43 476.66,271.02 466.2,333.94 425.51,365.43 429.19,384.48 382.48,418.39 276.01,454.22 
		193.88,426.63 139.08,357.96 113.77,322.93 	"/>
	<g>
		<path class="st1" d="M304.25,705.61c0.01,0.15-0.02,0.29-0.08,0.42c-6.57,0-13.14,0-19.71,0c-0.04-0.14-0.07-0.28-0.07-0.43
			c0.75-0.92,1.82-0.9,2.84-0.91c4.73-0.05,9.45-0.06,14.18,0C302.43,704.7,303.5,704.68,304.25,705.61z"/>
		<path d="M304.25,705.61c-6.62,0-13.24,0-19.86,0c-57.66-2.48-108.69-22.25-152.99-59.18c-27.57-22.98-49.13-50.78-64.85-83.07
			c-0.93-1.91-1.56-2.2-3.52-1.09c-8.33,4.76-17.1,8.67-25.81,12.66c-7.47,3.42-13.4,0.19-15.22-7.78
			c-1.78-7.81-1.16-15.63-0.12-23.46c0.6-4.54,1.02-9.11,1.71-13.63c1.15-7.59,2.73-14.9,6.74-21.8
			c4.41-7.58,7.88-15.75,11.94-23.56c0.55-1.06,0.55-2.16,0.41-3.28c-2.02-16.62-2.2-33.28-0.84-49.94
			c2.6-31.8,10.95-62.06,25.02-90.71c9.95-20.25,22.4-38.84,37.34-55.75c1.14-1.29,1.79-2.62,1.86-4.38
			c0.28-6.74,3.02-12.92,4.48-19.39c1.76-7.81,5.17-14.99,8.19-22.32c2-4.85,5.51-8.57,8.84-12.37c8.52-9.7,18.24-17.96,30.43-22.71
			c8.98-3.5,18.35-3.09,27.6-1.35c6.09,1.15,9.59,7.31,7.74,12.48c-1.61,4.5-6.51,6.65-10.99,5.04c-8.39-3.03-16.37-2.01-24.01,2.58
			c-8.72,5.24-15.75,12.29-22.07,20.14c-1.27,1.57-1.92,3.46-2.79,5.24c-4.82,9.85-7.23,20.49-10.02,30.99
			c-0.7,2.62-1.14,5.72-0.38,8.19c0.84,2.72,1.59,4.62-0.01,7.51c-0.98,1.78,0.79,4.6,1.77,6.82c0.77,1.74,1.58,3.45,2.38,5.18
			c0.04,0.08,0.08,0.16,0.09,0.24c0.41,2.21,3.87,1.12,3.94,3.55c0.04,1.69-1.34,3.42,0.17,5.07c1.27,2.14,2.91,4.02,4.27,6.1
			c2.56,3.65,5.98,6.46,9.23,9.44c2.34,1.01,3.74,3.18,5.72,4.64c1.08,0.93,2.04,2.28,3.23-0.06c0.5-0.98,1.83-0.94,2.79-0.32
			c0.96,0.61,1.17,1.54,0.94,2.71c-0.15,0.76-1.86,1.15-0.71,2.03c1.12,0.86,2.37,2.08,3.89,1.72c1.73-0.4,2.69,0.04,3.64,1.49
			c0.99,1.52,2.86,1.81,4.46,2.41c2.17,0.81,4.48,1.28,6.42,2.66c2.85,2.03,4.22,4.79,3.74,8.24c-0.48,3.46-2.58,5.77-5.87,6.89
			c-3.92,1.34-4.63,2.99-2.45,6.46c1.55,2.48,3.16,4.93,5.41,6.89c1.93,1.68,2.61,1.58,3.58-0.71c0.51-1.2,1.39-1.79,2.65-1.47
			c1.37,0.35,2.05,1.31,1.64,2.72c-0.26,0.91-0.33,1.67,0.4,2.36c1.2,1.1,2.29,2.06,4.25,1.86c1.56-0.16,2.19,1.26,1.56,2.76
			c-0.51,1.21-0.17,1.6,1.01,2.01c4.54,1.56,8.84,3.78,13.43,5.15c2.39,0.72,4.7,1.57,6.88,2.67c1.52,0.77,3.07,0.01,4.49,0.65
			c0.18,0.15,0.36,0.3,0.54,0.46c0.77,1.75,2.6,1.82,4.04,2.35c3.5,1.3,7.05,2.47,10.51,3.91c0.67,0.09,1.32,0.26,2-0.09
			c1.83-0.92,3.13-0.39,3.88,1.51c0.27,0.68,0.78,1.06,1.47,1.33c3.43,1.33,6.84,2.73,10.27,4.06c1.54,0.6,2.92,1.36,4.57-0.33
			c1.21-1.25,3.34,0.05,3.39,1.91c0.02,0.68-0.18,1.34,0.31,1.93c3.09,1.94,6.69,2.63,10.01,4.03c0.95,0.4,1.97,0.61,2.89,1.1
			c1.19,0.64,2.22,1.08,2.48-1c0.15-1.23,1.32-1.49,2.44-1.29c1.25,0.22,1.53,1.27,1.16,2.17c-0.83,2.03,0.35,2.25,1.85,2.68
			c1.94,0.55,3.88,0.71,5.87,0.72c3.62,0,7.24,0.05,10.87,0.18c5.35,0.19,10.59-0.99,15.84-1.89c1.2-0.2,1.56-0.82,1.56-1.94
			c0-1.03,0.35-1.92,1.57-1.98c1-0.05,1.94,0.22,2.23,1.34c0.3,1.15,0.95,1.68,2.07,1.23c6-2.39,12.37-3.33,18.58-4.9
			c0.33-0.08,0.68-0.12,0.9-0.44c4.51-1.38,8.44-4.45,13.36-4.66c4.5-1.74,9.09-3.25,13.43-5.37c1.4-0.87,2.95-1.39,4.47-1.97
			c1.67-0.64,3.03-1.26,3.08-3.48c0.04-1.94,1.69-1.9,2.83-1.16c1.15,0.75,1.83,0.61,2.93-0.03c4.66-2.71,9.14-5.7,13.61-8.72
			c2.33-1.57,5.08-2.53,6.94-4.78c3.69-2.02,5.63-6.1,9.43-8.01c0.66-0.33,1.31-0.98,1.62-1.64c1.53-3.34,4.79-5.01,7.13-7.57
			c1.27-1.39,1.96-2.42-0.45-3.32c-1.35-0.51-2.55-1.42-3.84-2.08c-0.78-0.4-1.17-1.01-1.28-1.81c-0.89-6.69,2.54-11.19,9.2-12.17
			c1.81-0.27,3.54-0.66,4.45-2.61c0.39-0.82,1.37-1.2,2.23-0.85c1.42,0.58,2.5-0.04,3.63-0.68c1.06-0.6,2.29-0.97,0.71-2.48
			c-0.91-0.87-0.63-2.21,0.38-2.96c1.13-0.84,2.38-0.99,3.19,0.57c0.46,1.41,1.24,1.45,2.32,0.61c5.58-4.31,11.17-8.62,15.11-14.63
			c0.68-1.04,1.78-2.03-0.35-2.95c-1.35-0.58-1.05-1.99-0.55-3.18c0.47-0.8,1.34-1.1,1.98-0.7c1.99,1.22,2.37-0.14,3.04-1.53
			c2.81-5.84,5.37-11.75,6.83-18.13c1.71-7.47,1.29-15.01,0.55-22.45c-0.95-9.63-2.46-19.35-7.16-27.96
			c-5.1-9.35-10.98-18.35-21.01-23.27c-6.91-3.39-14.12-6.09-21.72-7.56c-4.79-0.93-9.63-0.64-14.44,0.02
			c-1.71,0.23-3.4,0.6-5.14,0.54c-4.68-0.16-8.27-3.36-8.63-7.71c-0.37-4.47,2.41-8.26,7.09-9.1c10.84-1.96,21.63-2.15,32.27,1.38
			c6.07,2.02,12.05,4.27,17.89,6.86c10.14,4.5,16.69,12.88,23.09,21.41c8.06,10.75,11.68,23.18,13.77,36.2
			c0.81,5.04,1.54,10.09,1.43,15.21c-0.05,2.03,1.29,3.12,2.42,4.38c17.33,19.38,31.4,40.89,42.07,64.6
			c2.3,5.1,4.42,10.29,6.44,15.51c7.95,20.54,12.48,41.88,14.74,63.74c0.19,1.8,0.37,3.61,0.48,5.42c0.2,3.09,0.17,3.09,3.67,3.69
			c-4.25,1.6-3.14,4.79-3.07,7.59c1.63,67.11-19.39,126.15-63.75,176.5c-35.76,40.59-80.41,66.73-133.1,79.01
			C335.4,703.1,319.92,705.11,304.25,705.61z"/>
		<path d="M198.52,355.81c0.78-0.02,1.95,0.34,2.99,0.97c10.06,6.16,21.36,7.94,32.73,9.85c17.2,2.89,34.48,5.32,51.68,8.22
			c0.85,0.14,1.7,0.33,2.52,0.59c4.71,1.51,9.23,1.7,14.07-0.15c8.9-3.4,18.44-4.48,27.63-6.88c8.51-2.22,17.03-4.61,25.35-7.32
			c5.62-1.83,11.65-3.06,16.85-6.37c3.21-2.04,6.9-0.98,8.68,1.85c1.75,2.8,0.9,5.88-2.32,8.3c-2.16,1.62-4.63,2.58-7.1,3.65
			c-14.64,6.33-30.3,9.21-45.58,13.26c-9.51,2.52-19.09,4.77-28.49,7.67c-2.64,0.82-5.02,0.59-7.47-0.75
			c-2.92-1.59-6.26-1.93-9.49-2.44c-17.23-2.73-34.53-4.99-51.67-8.27c-2.8-0.53-5.62-0.97-8.44-1.34
			c-8.83-1.14-16.7-4.84-24.36-9.08c-0.96-0.53-1.87-1.27-2.61-2.09c-1.68-1.82-2.06-4.03-1.07-6.27
			C193.46,356.87,195.48,355.81,198.52,355.81z"/>
		<path d="M276.65,121.29c8.29-6.45,18.04-6.91,26.74-1.3c5.17,3.33,9.99,7,14.04,11.74c3.36,3.93,7.21,7.44,10.93,11.04
			c2.33,2.25,4.25,4.77,5.74,7.62c1.34,2.55,1.8,5.21,0.22,7.88c-0.98,1.17-1.58,2.61-3.06,3.42c-4.23,2.33-8.14,1.79-11.13-2.41
			c-2.89-4.06-6.6-7.26-9.95-10.84c-2.53-2.7-5.39-5.08-7.61-8.09c-1.08-1.46-2.62-2.47-4.25-3.3c-0.65-0.4-1.33-0.78-1.96-1.21
			c-5-3.44-6.78-3.4-11.52,0.4c-1.48,1.19-2.97,2.4-4.25,3.79c-6.75,7.26-14.79,13.28-20.57,21.46c-1.18,1.67-2.29,3.4-3.43,5.11
			c-2.34,2.99-5.13,4.66-9.13,3.61c-3.69-0.97-6.83-4.52-5.92-9.22c0.63-3.27,2.57-5.79,4.34-8.44c3.22-4.84,7.27-8.93,11.39-12.99
			C263.59,133.3,269.67,126.82,276.65,121.29z"/>
		<path d="M234.05,290.4c0.51,11.53-1.98,19.08-4.65,26.58c-4.96,13.96-14.15,24.74-25.54,33.85c-3.16,2.53-6.95,3.75-10.85,4.65
			c-1.31,0.3-2.94,0.15-2.81,2.51c0.08,1.42-2.48,1.85-3.42,0.46c-0.77-1.13-1.6-1.53-2.87-1.79c-2.87-0.57-4.78-3.32-4.51-6.14
			c0.18-1.88,2.52-3.79,5.18-3.94c1.73-0.1,2.81-0.09,1.72-2.34c-0.6-1.24,0.28-2.37,1.69-2.66c1.4-0.29,2.59,0.38,2.61,1.78
			c0.02,2.29,1.09,1.75,2.44,1.28c6.43-2.2,10.73-7.06,14.91-12.01c2.5-2.97,4.75-6.15,7.1-9.25c2.23-2.93,3.08-6.51,4.51-9.81
			c0.29-0.67,0.03-1.36-0.24-2.01c-0.38-0.91-0.22-1.89,0.49-2.38c2.78-1.92,2.92-5.02,3.43-7.81c0.9-4.95,0.95-9.99-0.06-14.95
			c-0.61-2.99-0.84-5.99-0.75-9.02c0.37-13.35-3.3-25.95-7.03-38.56c-2.12-7.18-5.6-13.28-11.98-17.58
			c-2.65-1.78-3.04-4.77-1.49-7.07c1.61-2.39,4.55-2.98,7.34-1.29c7.27,4.4,11.95,10.97,14.72,18.81
			c3.77,10.69,6.42,21.69,8.22,32.88c0.26,1.61,0.39,3.27,0.38,4.9C232.52,277.67,233.51,285.73,234.05,290.4z"/>
		<path d="M379.43,323.92c3.02,8.65,8.13,15.28,16.35,19.29c0.84,0.41,1.37,0.51,1.87-0.44c0.75-1.42,2-1.67,3.27-0.83
			c1.32,0.87,1.39,2.19,0.4,3.35c-0.74,0.86-0.49,1.43,0.29,1.83c1.01,0.52,1.28,2.6,3.04,1.56c1.28-0.76,2.49-0.94,3.42,0.38
			c0.9,1.28,0.55,2.47-0.73,3.33c-0.9,0.6-0.65,1.51-0.74,2.34c-0.25,2.32-1.51,3.85-3.75,4.42c-2.18,0.55-4.16,0.59-5.72-1.64
			c-2.08-2.97-5.26-4.73-8.35-6.43c-6.95-3.82-12.23-9.15-15.8-16.25c-3.95-7.87-8.18-15.62-10.49-24.18
			c-3.63-13.41-4.6-27.02-2.82-40.82c0.67-5.23,0.05-10.55,1.19-15.74c2.61-11.88,6.44-23.28,13.33-33.46
			c1.41-2.08,2.97-4.05,5.12-5.42c2.46-1.57,5.17-1.52,7.01,0.02c2.41,2.01,2.73,5.54,0.25,7.46c-4.29,3.32-6.68,7.9-8.76,12.62
			c-4.46,10.09-7.74,20.46-7.57,31.72c0.07,4.64-0.83,9.27-1.02,13.94c-0.28,6.61,0.39,13.1,1.71,19.56
			c0.23,1.12,0.34,1.97,1.94,1.47c1.35-0.43,2.39,0.43,2.62,1.81c0.2,1.23-0.35,2.28-1.68,2.51c-1.14,0.2-1.81,0.5-1.3,1.81
			c1.57,4.01,3.08,8.05,4.7,12.04c0.42,1.04,0.91,2.42,2.59,1.51c0.07-0.04,0.17-0.01,0.26,0c1.01,0.2,1.75,0.72,2.01,1.77
			c0.13,0.53,0.15,1.14-0.38,1.39C380.77,325.28,380.51,323.98,379.43,323.92z"/>
		<path class="st2" d="M361.78,178c-4.16,3.36-8.22,6.8-11.48,11.14c-1.69,2.26-3.89,4.18-6.82,4.9c-3.5,0.86-6.72-0.29-8.82-3.23
			c-0.99-1.38-1.51-3.05-2.87-4.24c-0.75-0.66-0.67-1.85,0.05-2.61c6.28-6.7,11.82-14.14,19.49-19.48
			c3.94-2.75,8.19-4.82,12.67-6.38c6.78-2.36,13.03-0.58,18.54,3.56c5.75,4.33,10.45,9.79,14.8,15.5c2.34,3.08,2.68,6.55,0.63,9.95
			c-1.81,3.02-4.63,4.29-8.13,3.96c-2.78-0.26-4.69-1.92-6.38-4.01c-3.59-4.42-7.27-8.77-11.87-12.22c-1.03-0.6-2.06-0.6-3.18-0.15
			C366.1,175.62,363.82,176.57,361.78,178z"/>
		<path d="M191.28,191.08c0.09-5.48,1.02-10.83,2.93-15.96c3.03-8.11,11.73-14.15,20.39-14.41c8.48-0.26,16.05,2.8,23.54,6.24
			c2.32,1.07,3.35,3.43,5,5.16c0.94,0.99-0.36,2.24-0.57,3.38c-1.11,6.17-6.4,8.9-12.27,6.59c-4.4-1.73-8.65-3.93-13.52-4.23
			c-3.35-0.21-5.95,1.28-6.95,4.5c-1.21,3.9-1.49,7.93-1.63,12.01c-0.23,6.54-6.71,10.22-12.48,7.22c-2.75-1.43-4.12-3.86-4.41-6.88
			C191.18,193.5,191.28,192.28,191.28,191.08z"/>
		<path class="st2" d="M265.18,247.97c-2.33-0.12-3.92-1.67-4.72-4.09c-1.95-5.83-4.41-11.41-7.39-16.79
			c-3.38-6.12-7.11-12.03-10.82-17.95c-1.82-2.92-3.37-5.73-0.81-9c0.58-0.74,0.23-1.46-0.14-2.18c-0.23-0.46-0.5-1.02,0.01-1.41
			c0.61-0.47,1.35-0.09,1.55,0.39c0.64,1.61,1.95,1.61,3.34,1.83c1.61,0.25,2.58,1.51,3.59,2.76c2.26,2.8,3.32,6.41,6.32,8.74
			c1.27,0.98,0.63,3.13,1.75,4.49c0.8,0.97,1.29,1.99,2.88,1.39c0.98-0.37,1.84,0.21,2.34,1.15c0.45,0.85,0.46,1.85-0.25,2.4
			c-1.48,1.13-0.84,2.15-0.17,3.31c3.13,5.4,5.48,11.14,7.48,17.04C271.55,244.28,269.38,247.99,265.18,247.97z"/>
		<path class="st3" d="M331.46,199.43c-0.23-1.78,0.3-2.78,1.71-3.09c1.4-0.3,2.45,0.34,2.67,1.74c0.19,1.23,1.04,1.67,1.85,2.3
			c2.28,1.75,3.13,4.51,1.56,6.88c-3.26,4.91-4.47,10.6-6.58,15.95c-2.02,5.13-3.96,10.29-5.97,15.42
			c-0.77,1.97-1.84,3.74-4.11,4.31c-3.79,0.96-7.07-2.31-6.1-6.25c0.66-2.67,1.55-5.29,2.75-7.78c0.47-0.97,0.65-1.76-0.29-2.76
			c-1.37-1.46-0.86-3.1,1.1-3.37c1.65-0.22,2.1-1.1,2.54-2.41c1.2-3.59,2.48-7.16,3.78-10.72c0.42-1.14,0.74-2.01-0.72-2.77
			c-0.99-0.51-1.15-1.68-0.63-2.74c0.52-1.06,1.4-1.39,2.57-1.21C329.63,203.25,331.55,201.28,331.46,199.43z"/>
		<path class="st2" d="M296.64,185.37c0,3.52-1.86,5.8-4.6,6.11c-2.7,0.3-5.04-1.6-5.61-4.6c-0.6-3.14-1.03-6.28-0.98-9.49
			c0.08-5.53-0.29-11.02-1.32-16.47c-0.39-2.08-0.29-4.31-0.11-6.44c0.25-2.97,2.65-5.03,5.34-4.9c2.62,0.13,4.68,2.24,4.86,5.13
			c0.53,8.59,2.02,17.11,1.75,25.76C295.91,182.25,296.44,184.05,296.64,185.37z"/>
		<path class="st4" d="M312.59,345.81c3.4,0.03,5.93,3.45,4.75,6.72c-1.58,4.4-4.85,7.73-7.89,11.1c-1.58,1.75-4.35,1.49-6.17,0.01
			c-1.87-1.51-2.54-4.04-1.4-6.33c1.86-3.73,4.86-6.68,7.23-10.07C309.86,346.18,311.23,345.81,312.59,345.81z"/>
		<path class="st5" d="M274.96,353.41c0.03-2.46,1.04-3.91,2.76-4.81c1.96-1.02,3.93-0.77,5.56,0.65c2.58,2.27,5.1,4.63,7.52,7.08
			c1.88,1.91,2,4.35,0.59,6.38c-1.4,2-3.95,2.98-6.16,1.8c-4.08-2.18-7.44-5.27-9.82-9.29
			C275.02,354.59,275.03,353.74,274.96,353.41z"/>
		<path class="st6" d="M337.34,411.84c-2.44,2.05-5.52,2.09-8.41,2.55c-3.42,0.54-6.59,1.84-9.87,2.78
			c-1.57,0.45-3.18,1.36-3.71-1.3c-0.19-0.93-1.16-0.88-1.96-0.8c-0.8,0.08-1,0.71-0.89,1.32c0.35,1.9-0.82,2.38-2.3,2.6
			c-4.74,0.69-9.44,1.89-14.27,1.72c-6.43-0.22-12.92,0.82-19.27-1c-1.08-0.31-2.51-0.09-1.45-1.94c0.52-0.91,1.01-2.11-0.3-2.61
			c-1.37-0.53-2.33,0.12-2.33,1.78c0,1.09-0.61,1.3-1.55,0.94c-4.41-1.7-8.82-3.38-13.22-5.11c-0.33-0.13-0.53-0.62-0.79-0.95
			c4.28,1.57,8.56,3.12,12.83,4.73c1.01,0.38,1.85,1.01,2.2-0.77c0.26-1.35,1.38-2.02,2.76-1.62c1.46,0.41,2.17,1.47,1.61,2.97
			c-0.5,1.35,0.26,1.74,1.28,1.95c1.27,0.25,2.55,0.54,3.83,0.58c5.26,0.15,10.53,0.23,15.79,0.3c1,0.01,2.06,0.17,3.11-0.79
			c-1.52-1.1-3.1-2.33-1.5-4.32c0.89-1.1,2.23-1.15,3.23-0.21c1.74,1.64,0.67,3.04-1.03,4.44c3.58,0.49,6.62-0.61,9.73-0.93
			c0.67-0.07,0.78-0.5,0.7-1.11c-0.2-1.48,0.34-2.62,1.87-2.92c1.55-0.31,2.4,0.6,2.83,2.01c0.23,0.75,0.75,0.82,1.43,0.61
			c4.99-1.53,9.91-3.36,15.5-3.78c-0.95-1.72-3.26-2.89-1.02-4.72c0.81,0.51,0.4,2,1.63,2.12c0.8,0.07,0.51-0.88-0.55-1.44
			c-0.38-0.2-0.79-0.34-1.09-0.66c0.98-1.24,2.11-1.03,3.11-0.14c1.32,1.18,0.67,2.51-0.03,3.81
			C335.96,412.44,336.64,411.47,337.34,411.84z"/>
		<path class="st7" d="M196.31,267.73c-0.05,3.14-2.55,5.54-5.68,5.45c-2.97-0.09-5.3-2.55-5.28-5.59c0.02-3.13,2.54-5.54,5.67-5.44
			C194.04,262.26,196.35,264.7,196.31,267.73z"/>
		<path class="st4" d="M409.01,254.96c3.12-0.06,5.64,2.39,5.64,5.5c0.01,3.01-2.34,5.41-5.38,5.49c-3.17,0.08-5.63-2.32-5.63-5.48
			C403.65,257.41,405.99,255.01,409.01,254.96z"/>
		<path class="st8" d="M276.65,121.29c-1.2,2.27-3.42,3.65-5.26,5.19c-7.31,6.11-13.62,13.21-20.3,19.92
			c-2.86,2.87-4.96,6.51-7.32,9.86c-1.71,2.44-2.29,5.29-1.76,8.15c0.78,4.24,6.34,7.24,11.25,4.55c1.19-0.65,2.22-1.58,3.33-2.39
			c-0.02,0.67-0.45,1.11-0.88,1.52c-0.89,0.85-1.33,1.49,0.16,2.3c0.98,0.54,1.14,1.67,0.62,2.75c-0.47,0.99-1.34,1.38-2.34,1.24
			c-1.14-0.16-2.01-0.93-1.91-2.09c0.14-1.61-0.46-1.52-1.76-1.39c-6.77,0.68-11.38-5.68-8.73-12.07c2.14-5.17,5.56-9.6,9.35-13.58
			c7.19-7.55,14.54-14.97,22.38-21.87C274.42,122.56,275.31,121.56,276.65,121.29z"/>
		<path class="st9" d="M298.33,137.03c1.93,0.25,3.25,1.52,4.36,2.9c3.63,4.5,7.98,8.29,11.97,12.43c1.9,1.98,3.77,3.93,5.35,6.23
			c3.63,5.25,9.57,5.26,13.48,0.23c0.19-0.25,0.55-0.38,0.83-0.56c-0.32,2.53-2.28,3.55-4.27,4.35c-1.15,0.47-1.52,0.86-0.9,2.01
			c0.58,1.07,0.2,2.05-0.69,2.75c-0.81,0.64-1.75,0.72-2.65,0.11c-0.98-0.66-1.4-1.61-0.9-2.69c0.66-1.42-0.07-1.76-1.22-2.14
			c-1.42-0.47-2.69-1.34-3.48-2.6c-3.34-5.37-8.38-9.16-12.63-13.67C304.57,143.2,301.83,139.74,298.33,137.03z"/>
		<path class="st8" d="M397.99,381.67c-0.17,0.83-0.77,1.41-1.41,1.79c-6.5,3.86-12.5,8.51-19.16,12.13
			c-1.07,0.58-1.83,1.02-2.99,0.08c-0.79-0.64-2.25-0.84-2.25,0.79c0.01,2.26-1.52,2.87-3.1,3.56c-1.58,0.69-3.16,1.36-4.75,2.03
			c-0.3-0.18-0.31-0.38-0.04-0.6c1.01-1.06,2.45-1.21,3.7-1.77c1.63-0.72,3.34-1.02,3.15-3.59c-0.11-1.44,1.37-2.11,2.88-1.61
			c2.8,0.93,3.94,0.61,6.59-2.07c-1.85-0.18-3.34-0.75-2.96-2.91c0.23-1.33,1.26-1.95,2.48-1.76c2.25,0.36,2.05,2.15,1.78,4.22
			C387.46,388.41,392.73,385.04,397.99,381.67z"/>
		<path class="st10" d="M216.03,394.78c-3.22,1.11-5.83-0.95-8.6-1.83c-5.88-1.87-11.35-4.89-17.35-6.44
			c-1.06-0.27-0.81-0.78-0.57-1.52c0.88-2.78,0.73-3.06-1.98-3.08c-1.66-0.01-2.48-0.93-3.11-2.24c1.4,0.52,2.25,2,4.33,1.45
			c1.4-0.37,2.51,1.26,1.94,3.09c-0.2,0.64-0.66,1.33,0.35,1.72c4.89,1.85,9.78,3.7,14.8,5.6c0.08-1.56-0.2-3.11,1.48-3.68
			c1.08-0.36,2.04,0.05,2.78,0.9c1.36,1.55,0,2.63-0.79,3.72C211.3,394.25,213.88,393.86,216.03,394.78z"/>
		<path class="st4" d="M450.92,315.9c0.05,1.43-0.27,2.93,1.92,3.3c1.19,0.2,0.48,1.18,0.06,1.82c-2.57,3.9-5.54,7.47-9.07,10.53
			c-2.33,2.02-4.83,3.85-7.27,5.74c-0.53,0.41-1.15,1.03-1.83,0.66c-0.71-0.39-0.33-1.24-0.34-1.9c0.51,0.41,0.96,1.14,1.73,0.46
			c1.21-1.07,2.84-1.63,3.97-3.24c-1.68-0.62-3.75-1.01-2.97-3.46c0.39-1.24,1.42-1.75,2.67-1.43c1.88,0.49,1.89,1.96,1.55,3.8
			c4.75-2.82,7.7-7,10.69-11.14c0.69-0.95-0.09-1.26-0.77-1.75C449.95,318.34,449.61,317.17,450.92,315.9z"/>
		<path class="st4" d="M364.3,401.44c0.01,0.2,0.03,0.4,0.04,0.6c-3.46,1.54-6.9,3.1-10.38,4.58c-1.01,0.43-2.1,0.83-3.26,0.55
			c0.69-0.77,3.43-0.8,0.89-2.75c-0.76-0.59-0.6-1.74,0.03-2.6c0.56-0.75,1.33-1.06,2.25-0.88c1.04,0.2,1.67,0.87,1.83,1.9
			c0.09,0.57,0.02,1.17,0.02,1.88C358.82,404.12,361.39,402.33,364.3,401.44z"/>
		<path class="st11" d="M231.11,401.49c-4.82-1.18-9.36-3.12-13.95-4.94c-0.48-0.19-0.69-0.75-0.59-1.32
			c3.19,2.08,6.91,2.78,10.62,4.26c-0.5-1.3-2.39-2.13-1.18-3.15c1.06-0.89,2.57,0.36,3.35,1.14c1.35,1.35-1.28,1.06-1.17,2.19
			C229.13,400.26,230.12,400.88,231.11,401.49z"/>
		<path class="st11" d="M333.71,169.69c1.47,0.26,2.41,1.1,2.34,2.59c-0.06,1.35-0.98,2.26-2.35,2.26c-1.48,0-2.46-0.92-2.46-2.41
			C331.25,170.64,332.26,169.86,333.71,169.69z"/>
		<path class="st12" d="M195.15,334.72c1.46,0.29,2.4,1.12,2.3,2.63c-0.09,1.35-1.01,2.27-2.38,2.25c-1.48-0.01-2.45-0.97-2.42-2.46
			C192.68,335.65,193.67,334.86,195.15,334.72z"/>
		<path class="st13" d="M382.27,310.76c-0.18,1.49-1.02,2.43-2.52,2.39c-1.37-0.04-2.29-0.97-2.28-2.35c0.01-1.5,0.97-2.45,2.48-2.4
			C381.33,308.44,382.1,309.37,382.27,310.76z"/>
		<path class="st14" d="M382.26,297.59c-0.15,1.32-0.88,2.27-2.26,2.33c-1.5,0.07-2.5-0.84-2.52-2.33
			c-0.02-1.49,0.97-2.42,2.47-2.38C381.33,295.25,382.08,296.18,382.26,297.59z"/>
		<path class="st15" d="M388.85,330.48c-0.12,1.42-0.84,2.37-2.21,2.45c-1.5,0.09-2.49-0.83-2.53-2.31
			c-0.05-1.51,0.92-2.42,2.43-2.4C387.91,328.25,388.67,329.16,388.85,330.48z"/>
		<path class="st16" d="M320.52,187.81c-1.45-0.12-2.41-0.93-2.48-2.41c-0.06-1.39,0.83-2.32,2.17-2.45
			c1.51-0.15,2.53,0.75,2.64,2.22C322.97,186.64,322.05,187.54,320.52,187.81z"/>
		<path class="st17" d="M322.86,211.69c-0.16,1.45-0.93,2.44-2.45,2.43c-1.38-0.01-2.28-0.91-2.32-2.28
			c-0.05-1.52,0.92-2.45,2.4-2.45C321.86,209.38,322.64,210.3,322.86,211.69z"/>
		<path class="st17" d="M287.53,414c1.35,0.18,2.25,0.96,2.28,2.32c0.03,1.5-0.91,2.46-2.4,2.43c-1.32-0.03-2.3-0.88-2.31-2.28
			C285.07,414.96,286.03,414.17,287.53,414z"/>
		<path class="st18" d="M190.75,370.38c-0.07,1.33-0.89,2.16-2.25,2.18c-1.51,0.02-2.44-0.94-2.43-2.42
			c0.01-1.37,0.93-2.27,2.29-2.33C189.92,367.74,190.59,368.81,190.75,370.38z"/>
		<path class="st14" d="M402.06,370.17c-0.19,1.46-0.99,2.4-2.5,2.37c-1.38-0.03-2.25-0.95-2.28-2.31c-0.03-1.38,0.85-2.31,2.2-2.39
			C400.98,367.75,401.84,368.67,402.06,370.17z"/>
		<path class="st19" d="M210.63,323.88c-0.08,1.37-0.82,2.33-2.19,2.42c-1.52,0.11-2.51-0.83-2.54-2.33
			c-0.02-1.37,0.89-2.29,2.29-2.33C209.59,321.61,210.39,322.48,210.63,323.88z"/>
		<path class="st17" d="M263.45,205.03c-0.08,1.39-0.82,2.35-2.16,2.47c-1.49,0.13-2.53-0.74-2.6-2.24
			c-0.07-1.51,0.88-2.44,2.38-2.47C262.47,202.76,263.21,203.7,263.45,205.03z"/>
		<path class="st14" d="M243.65,185.4c-0.26,1.48-1.07,2.42-2.6,2.29c-1.38-0.11-2.21-1.06-2.16-2.43c0.07-1.51,1.07-2.36,2.57-2.26
			C242.83,183.1,243.54,184.05,243.65,185.4z"/>
		<path class="st20" d="M342.68,403.16c-0.2,1.52-1.02,2.48-2.54,2.43c-1.38-0.05-2.27-0.98-2.28-2.35
			c-0.01-1.55,1.05-2.37,2.51-2.37C341.8,400.86,342.49,401.83,342.68,403.16z"/>
		<path class="st21" d="M329.48,178.85c-0.3,1.49-1.17,2.41-2.68,2.26c-1.36-0.13-2.21-1.1-2.13-2.49c0.08-1.38,0.99-2.27,2.37-2.25
			C328.56,176.39,329.35,177.36,329.48,178.85z"/>
		<path class="st21" d="M296.48,290.88c-0.11,1.36-0.81,2.33-2.2,2.45c-1.52,0.13-2.51-0.75-2.61-2.25
			c-0.08-1.38,0.76-2.34,2.14-2.47C295.36,288.46,296.18,289.41,296.48,290.88z"/>
		<path class="st14" d="M175.22,328.19c1.39,0.15,2.33,0.87,2.39,2.25c0.06,1.5-0.85,2.49-2.34,2.5c-1.49,0.01-2.41-0.97-2.37-2.47
			C172.94,329.07,173.89,328.36,175.22,328.19z"/>
		<path class="st22" d="M204.07,330.54c-0.27,1.58-1.11,2.51-2.63,2.4c-1.37-0.1-2.21-1.05-2.15-2.43c0.07-1.5,1.03-2.37,2.55-2.26
			C203.26,328.34,203.91,329.31,204.07,330.54z"/>
		<path class="st23" d="M388.83,317.39c-0.17,1.4-0.94,2.29-2.34,2.32c-1.4,0.03-2.34-0.83-2.37-2.22
			c-0.04-1.51,0.89-2.47,2.42-2.44C387.94,315.07,388.66,316.02,388.83,317.39z"/>
		<path class="st17" d="M300.65,299.97c-1.35-0.14-2.28-0.88-2.34-2.25c-0.07-1.5,0.82-2.47,2.32-2.5c1.36-0.03,2.31,0.83,2.38,2.21
			C303.09,298.94,302.15,299.75,300.65,299.97z"/>
		<path class="st24" d="M287.55,299.95c-1.51-0.14-2.46-0.94-2.45-2.43c0.01-1.36,0.92-2.25,2.27-2.29c1.5-0.04,2.41,0.91,2.41,2.38
			C289.78,298.98,288.89,299.75,287.55,299.95z"/>
		<path class="st5" d="M412.94,332.9c-1.4-0.07-2.29-0.82-2.37-2.21c-0.08-1.42,0.78-2.31,2.17-2.38c1.4-0.07,2.33,0.75,2.39,2.16
			C415.18,331.86,414.37,332.7,412.94,332.9z"/>
		<path class="st4" d="M434.97,323.91c-0.12,1.37-0.81,2.31-2.23,2.35c-1.4,0.04-2.32-0.79-2.38-2.2c-0.05-1.41,0.82-2.29,2.21-2.36
			C434,321.63,434.75,322.52,434.97,323.91z"/>
		<path class="st4" d="M419.44,321.67c1.46,0.18,2.34,0.97,2.3,2.37c-0.04,1.4-0.96,2.24-2.36,2.22c-1.43-0.02-2.25-0.95-2.22-2.34
			C417.2,322.52,418.1,321.77,419.44,321.67z"/>
		<path class="st4" d="M360.13,394.27c1.43,0.23,2.28,1.04,2.2,2.44c-0.08,1.38-0.96,2.25-2.39,2.16c-1.39-0.09-2.24-0.98-2.18-2.39
			C357.83,395.06,358.81,394.41,360.13,394.27z"/>
		<path class="st4" d="M406.38,321.66c1.36,0.23,2.22,1.02,2.15,2.43c-0.07,1.4-0.98,2.25-2.39,2.17c-1.39-0.08-2.25-0.97-2.18-2.39
			C404.03,322.45,404.98,321.76,406.38,321.66z"/>
		<path class="st25" d="M322.82,198.54c-0.11,1.32-0.84,2.23-2.23,2.32c-1.4,0.09-2.35-0.73-2.45-2.11c-0.11-1.51,0.78-2.5,2.3-2.53
			C321.83,196.19,322.61,197.09,322.82,198.54z"/>
		<path class="st5" d="M142.31,321.66c1.35,0.14,2.23,0.92,2.23,2.31c0,1.38-0.85,2.3-2.27,2.28c-1.39-0.02-2.29-0.9-2.31-2.28
			C139.95,322.57,140.87,321.82,142.31,321.66z"/>
		<path class="st5" d="M177.58,370.12c-0.09,1.36-0.81,2.28-2.21,2.35c-1.4,0.07-2.3-0.8-2.38-2.18c-0.08-1.42,0.77-2.31,2.16-2.38
			C176.55,367.84,177.36,368.69,177.58,370.12z"/>
		<path class="st4" d="M131.38,297.67c-0.21,1.39-1.03,2.23-2.43,2.17c-1.41-0.05-2.24-0.99-2.18-2.38
			c0.07-1.38,0.96-2.26,2.38-2.18C130.55,295.36,131.29,296.27,131.38,297.67z"/>
		<path class="st5" d="M392.95,374.47c1.4,0.11,2.34,0.81,2.38,2.23c0.04,1.41-0.8,2.32-2.2,2.37c-1.41,0.06-2.3-0.81-2.36-2.21
			C390.7,375.45,391.58,374.68,392.95,374.47z"/>
		<path class="st8" d="M261.2,163.25c1.32,0.19,2.17,0.96,2.12,2.37c-0.05,1.41-0.96,2.22-2.34,2.19c-1.4-0.04-2.23-0.95-2.19-2.34
			C258.83,164.06,259.77,163.38,261.2,163.25z"/>
		<path class="st26" d="M326.24,189.75c2.02,0.2,3.13,0.91,3.14,2.36c0.01,1.34-0.99,2.24-2.37,2.18c-1.49-0.06-2.41-1.02-2.29-2.53
			C324.8,190.63,325.28,189.55,326.24,189.75z"/>
		<path class="st5" d="M412.81,346.09c-1.39-0.18-2.28-0.94-2.25-2.35c0.04-1.39,0.92-2.27,2.32-2.25c1.4,0.02,2.26,0.92,2.25,2.32
			C415.12,345.23,414.16,345.92,412.81,346.09z"/>
		<path class="st5" d="M177.58,343.83c-0.17,1.37-0.94,2.25-2.34,2.22c-1.39-0.02-2.29-0.88-2.27-2.3c0.02-1.39,0.91-2.29,2.31-2.27
			C176.67,341.51,177.44,342.4,177.58,343.83z"/>
		<path class="st5" d="M445.77,321.66c1.44,0.14,2.35,0.87,2.36,2.29c0.01,1.41-0.9,2.26-2.28,2.3c-1.41,0.04-2.28-0.86-2.29-2.25
			C443.55,322.59,444.43,321.82,445.77,321.66z"/>
		<path class="st27" d="M311.96,218.33c-0.18-1.8,0.73-2.45,1.95-2.41c1.47,0.04,2.39,1.01,2.36,2.5c-0.02,1.36-0.89,2.35-2.25,2.32
			C312.41,220.7,312.09,219.32,311.96,218.33z"/>
		<path class="st19" d="M217.22,304.03c-0.08,1.4-0.78,2.36-2.14,2.46c-1.49,0.12-2.51-0.75-2.54-2.25c-0.03-1.37,0.94-2.2,2.28-2.3
			C216.24,301.83,216.98,302.7,217.22,304.03z"/>
		<path class="st5" d="M260.84,176.32c1.33,0.39,2.33,1.07,2.29,2.42c-0.04,1.45-1.02,2.32-2.47,2.31c-1.4-0.01-2.11-0.88-2.16-2.3
			C258.43,177.03,259.8,176.83,260.84,176.32z"/>
		<path class="st5" d="M155.38,326.31c-1.4-0.22-2.26-1.01-2.21-2.38c0.05-1.38,0.85-2.24,2.33-2.07c1.31,0.15,2.32,0.84,2.24,2.29
			C157.66,325.53,156.69,326.18,155.38,326.31z"/>
		<path class="st8" d="M307.25,315.07c1.33,0.12,2.23,0.84,2.26,2.25c0.03,1.4-0.81,2.28-2.21,2.31c-1.4,0.03-2.28-0.81-2.32-2.21
			C304.94,316.02,305.82,315.26,307.25,315.07z"/>
		<path class="st8" d="M184.15,363.66c-0.15,1.31-0.89,2.19-2.3,2.18c-1.4-0.01-2.26-0.87-2.26-2.26c0-1.4,0.87-2.27,2.26-2.26
			C183.25,361.32,184.02,362.19,184.15,363.66z"/>
		<path class="st8" d="M162.13,328.28c1.38,0.18,2.22,0.96,2.18,2.36c-0.04,1.4-0.93,2.25-2.33,2.2c-1.38-0.05-2.25-0.92-2.2-2.34
			C159.83,329.11,160.72,328.38,162.13,328.28z"/>
		<path class="st3" d="M214.84,319.67c-1.45-0.18-2.31-0.96-2.26-2.36c0.05-1.4,0.95-2.24,2.35-2.2c1.42,0.04,2.22,1,2.21,2.35
			C217.13,318.88,216.15,319.54,214.84,319.67z"/>
		<path class="st5" d="M395.39,337.2c-0.26,1.48-1.04,2.33-2.46,2.23c-1.39-0.1-2.25-0.99-2.17-2.39c0.09-1.38,1-2.21,2.41-2.14
			C394.61,334.97,395.25,335.95,395.39,337.2z"/>
		<path class="st2" d="M181.7,339.47c-1.32-0.21-2.17-0.98-2.1-2.39c0.06-1.41,0.97-2.21,2.36-2.15c1.4,0.06,2.22,0.97,2.16,2.36
			C184.05,338.67,183.15,339.4,181.7,339.47z"/>
		<path class="st8" d="M408.56,337.16c-0.21,1.49-0.99,2.33-2.39,2.28c-1.39-0.05-2.24-0.94-2.19-2.34
			c0.05-1.39,0.94-2.22,2.35-2.17C407.75,334.97,408.41,335.9,408.56,337.16z"/>
		<path class="st8" d="M406.39,361.29c1.33,0.19,2.17,0.99,2.12,2.39c-0.05,1.4-0.95,2.23-2.35,2.17c-1.4-0.05-2.24-0.95-2.18-2.35
			C404.04,362.11,404.94,361.37,406.39,361.29z"/>
		<path class="st5" d="M388.77,383.32c-0.12,1.41-0.84,2.32-2.25,2.36c-1.41,0.04-2.31-0.82-2.36-2.22c-0.05-1.4,0.82-2.3,2.22-2.35
			C387.79,381.06,388.57,381.94,388.77,383.32z"/>
		<path class="st5" d="M168.79,334.87c1.35,0.19,2.2,0.99,2.15,2.39c-0.05,1.41-0.97,2.24-2.37,2.19c-1.41-0.05-2.26-0.97-2.2-2.36
			C166.42,335.71,167.32,334.93,168.79,334.87z"/>
		<path class="st4" d="M195.01,326.3c-1.39-0.19-2.31-0.97-2.23-2.37c0.08-1.44,1.18-2.03,2.52-2.06c1.42-0.03,2.06,0.92,2.04,2.15
			C197.32,325.41,196.41,326.18,195.01,326.3z"/>
		<path class="st8" d="M256.75,198.65c-0.15,1.31-0.92,2.17-2.32,2.16c-1.4-0.01-2.26-0.88-2.25-2.28c0.01-1.4,0.89-2.27,2.28-2.25
			C255.84,196.3,256.64,197.15,256.75,198.65z"/>
		<path class="st5" d="M274.14,308.47c1.43,0.08,2.34,0.81,2.4,2.19c0.06,1.37-0.74,2.31-2.15,2.39c-1.41,0.08-2.29-0.7-2.31-2.15
			C272.05,309.54,272.7,308.63,274.14,308.47z"/>
		<path class="st4" d="M294.79,319.5c-1.16-0.12-2.76,0.61-3.06-1.3c-0.2-1.26-0.11-2.43,1.47-3.05c1.28-0.5,1.75,0.59,2.61,0.86
			C296.84,317.57,296.26,318.66,294.79,319.5z"/>
		<path class="st8" d="M307.38,306.48c-1.46-0.14-2.38-0.86-2.4-2.26c-0.02-1.39,0.83-2.28,2.22-2.31c1.4-0.03,2.26,0.84,2.31,2.23
			C309.56,305.55,308.65,306.28,307.38,306.48z"/>
		<path class="st8" d="M256.5,185.95c0.04,1.08-1.33,1.65-2.45,1.77c-1.39,0.14-2.1-1.42-2.09-2.41c0.02-1.28,1.13-2.31,2.63-2.22
			C255.9,183.17,256.49,184.07,256.5,185.95z"/>
		<path class="st5" d="M287.06,325.76c-1.05,0.01-2.13-0.03-2.11-1.85c0.02-1.66,1.17-2.1,2.25-2.19c1.44-0.13,2.42,0.95,2.38,2.36
			C289.54,325.3,288.55,325.89,287.06,325.76z"/>
		<path class="st19" d="M208.52,308.52c1.42,0.15,2.06,1.04,2.07,2.24c0.01,1.37-0.86,2.27-2.21,2.35
			c-1.05,0.06-2.17-0.35-2.15-1.65C206.26,309.98,207.1,308.94,208.52,308.52z"/>
		<path class="st8" d="M189.53,332.48c-1.51,1.14-2.45,0.04-3.3-0.95c-0.6-0.71-0.53-1.61,0.18-2.29c1.11-1.06,2.33-1.33,3.64-0.31
			C190.6,330.22,190.97,331.48,189.53,332.48z"/>
		<path class="st8" d="M427.55,328.94c1.03,1.3,0.74,2.65-0.41,3.49c-0.47,0.35-1.52,1.16-2.63-0.02c-1.29-1.37-1.16-2.37-0.09-3.59
			C425.49,328.38,426.54,328.18,427.55,328.94z"/>
		<path class="st28" d="M401.86,317.62c-0.09,1.34-0.9,1.97-2,2.03c-1.51,0.1-2.46-0.76-2.48-2.28c-0.01-1.08,0.45-2.13,1.78-2.01
			C400.54,315.48,401.44,316.36,401.86,317.62z"/>
		<path class="st5" d="M248.66,193.99c-1.08-0.12-2.45,0.61-2.93-1.16c-0.25-0.91-0.28-1.72,0.48-2.34c1.12-0.92,2.29-1,3.42,0.04
			C250.61,192.05,250.09,193.15,248.66,193.99z"/>
		<path class="st19" d="M371.59,292.59c-1.06-0.89-1.14-1.91-0.35-3.02c0.67-0.94,1.7-0.83,2.54-0.58c1.49,0.45,1.75,1.67,1.43,3.07
			C374.17,293.36,372.99,293.76,371.59,292.59z"/>
		<path class="st8" d="M278.68,305.12c-0.97-1.15-0.12-1.97,0.62-2.65c0.58-0.54,1.25-0.83,2.23-0.33c1.32,0.68,1.52,1.64,1.36,2.89
			C281.23,306.82,280.59,306.83,278.68,305.12z"/>
		<path class="st29" d="M388.43,304.75c-0.08,1.32-0.98,1.71-1.94,1.72c-1.39,0.01-2.29-0.84-2.34-2.22
			c-0.04-1.22,0.58-2.35,1.95-2.17C387.54,302.25,388.04,303.58,388.43,304.75z"/>
		<path class="st8" d="M289.07,309.24c0.34,1.04,1.29,2.07-0.17,3.08c-1.04,0.71-2.04,0.77-3.01,0.06c-0.99-0.73-1.44-1.65-0.5-2.77
			C286.55,308.74,287.69,307.8,289.07,309.24z"/>
		<path class="st30" d="M150.66,335.66c-2.35-1-4.03-2.83-5.72-4.64c1.29,0.02,1.23-1.22,1.79-1.89c1-1.21,2.24-1.74,3.56-0.65
			c1.14,0.95,2.17,2.13,0.32,3.46c-0.77-0.61-0.42-2.19-1.87-2.18c-0.47,0-0.83,0.34-0.85,0.81c-0.04,1.45,1.53,1.14,2.15,1.89
			C147.97,333.96,150.34,334.61,150.66,335.66z"/>
		<path class="st8" d="M398.06,328.92c1.07-0.77,2.13-0.99,3.12,0.14c0.69,0.79,0.74,1.67,0.22,2.55c-0.68,1.13-1.59,1.69-2.92,1.02
			C397.5,331.49,396.74,330.32,398.06,328.92z"/>
		<path class="st8" d="M417.7,338.82c-0.88-1.03-0.89-2.25-0.05-3.12c0.67-0.69,1.76-0.79,2.84-0.3c1.46,0.66,0.79,1.83,0.89,2.84
			C420.33,339.57,419.12,339.84,417.7,338.82z"/>
		<path class="st31" d="M300.57,325.11c-0.92-0.07-2.22,0.19-2.18-1.37c0.03-1.3,0.96-2.06,2.23-2.06c1.24,0,2.24,0.67,2.28,2
			C302.95,325.2,301.7,325.08,300.57,325.11z"/>
		<path class="st4" d="M295.89,305.57c-1.22,1.24-2.44,1.24-3.67,0.01c-0.62-1.19-0.62-2.32,0.53-3.16c0.82-0.6,1.8-0.6,2.62,0
			C296.52,303.26,296.54,304.39,295.89,305.57z"/>
		<path class="st32" d="M395,311.55c-0.12,1.23-1,1.52-1.84,1.53c-1.52,0.03-2.41-0.87-2.42-2.38c-0.01-0.84,0.31-1.96,1.4-1.74
			C393.52,309.24,394.38,310.38,395,311.55z"/>
		<path class="st8" d="M302.6,309.73c0.01,3.16-1.06,3.92-3.7,2.65c-0.46-1.08-0.6-2.14,0.09-3.19
			C300.39,308.04,301.56,308.4,302.6,309.73z"/>
		<path class="st4" d="M394.38,322.2c1.39,1.19,1.39,2.37,0,3.56c-1.18,0.76-2.27,0.65-3.1-0.47c-0.6-0.81-0.6-1.8,0-2.61
			C392.11,321.55,393.2,321.44,394.38,322.2z"/>
		<path class="st8" d="M258.98,193.07c-0.72-0.74-0.71-1.48-0.01-2.23c1.14-1.03,2.33-1.67,3.74-0.47l0,0
			c0.59,1.05,0.61,2.1-0.01,3.15l0,0C261.29,194.74,260.11,194.13,258.98,193.07z"/>
		<path class="st33" d="M439.96,316.17c1.15-0.09,1.65,0.48,1.59,1.34c-0.1,1.38-0.99,2.18-2.36,2.15
			c-1.09-0.02-2.18-0.58-2.08-1.78C437.26,316.09,439.08,316.69,439.96,316.17z"/>
		<path class="st34" d="M319.71,174.36c-0.38-0.1-0.88,0-1-0.56c-0.45-3.09,0.38-4.07,3-3.53c0.18,0.18,0.36,0.35,0.54,0.53
			C323.02,173.39,322.51,174.11,319.71,174.36z"/>
		<path class="st8" d="M279.82,315.46c2.98-0.02,3.68,0.96,2.52,3.56c-1.01,0.72-2.04,0.65-3.07,0.04l0,0
			C278.17,317.66,278.45,316.47,279.82,315.46z"/>
		<path class="st5" d="M150.05,332.46c-0.9-0.16-1.98,0.37-2.67-0.53c-0.5-0.64-0.51-1.47-0.22-2.23c0.33-0.9,1.12-0.97,1.93-0.93
			c0.88,0.04,1.51,0.44,1.59,1.37c0.05,0.59-0.04,1.2-0.07,1.8C150.42,332.11,150.23,332.29,150.05,332.46z"/>
		<path class="st4" d="M249.17,176.95c0.17,0.17,0.34,0.35,0.51,0.52c0.77,1.21,0.66,2.33-0.54,3.13c-0.94,0.63-2,0.55-2.84-0.27
			c-0.76-0.74-0.88-1.71-0.39-2.61C246.68,176.31,247.83,176.15,249.17,176.95z"/>
		<path class="st35" d="M269.95,410.28c-0.35,1.39-1.23,1.95-2.31,1.92c-1.34-0.03-2.25-0.85-2.36-2.22
			c-0.07-0.88,0.74-1.18,1.42-1.01C267.85,409.25,269.26,409.1,269.95,410.28z"/>
		<path class="st8" d="M134.62,315.48c0.67,0,1.35-0.01,2.02-0.01c1.39,1.01,1.65,2.19,0.54,3.57l0,0c-1.13,0.36-2.4,1.06-3.28-0.2
			C133.05,317.63,133.42,316.4,134.62,315.48z"/>
		<path class="st36" d="M249.17,176.95c-0.68-0.01-1.39-0.13-2.04,0.01c-1.04,0.22-1.23,1.09-1.17,2.01
			c0.07,0.99,0.59,1.59,1.62,1.65c0.9,0.05,1.8-0.07,2.05-1.11c0.15-0.64,0.04-1.35,0.05-2.03c1.88,1.17,0.77,2.34-0.16,3.27
			c-1.06,1.08-2.36,0.97-3.44-0.08c-1.16-1.12-1.37-2.47-0.19-3.63C246.84,176.11,248.03,175.08,249.17,176.95z"/>
		<path class="st7" d="M364.91,389.15c1.05-0.95,2.28-0.73,3.5-0.5c0.66,1.07,0.7,2.13-0.32,2.97c-0.79,0.65-1.77,0.69-2.64,0.14
			C364.44,391.11,364.16,390.22,364.91,389.15z"/>
		<path class="st25" d="M274.35,321.61c1.4,0.25,2.21,1.03,2.26,2.41c0.02,0.66-0.45,1.31-1.1,1.09c-1.21-0.41-2.38-1.17-2.61-2.51
			C272.77,321.87,273.67,321.62,274.35,321.61z"/>
		<path class="st37" d="M134.62,315.48c-1.32,3.16-0.98,3.63,2.56,3.56c-0.38,0.91-2.41,0.86-1.47,2.54
			c-2.14-1.53-3.57-3.56-4.27-6.1C132.5,317.32,133.56,315.87,134.62,315.48z"/>
		<path class="st38" d="M312.51,206.95c-1.39-1.53-0.87-2.95,0.42-4.13c0.98-0.9,1.99-0.23,2.73,0.5c1.17,1.14,1.22,2.49,0.03,3.63
			C314.74,207.85,313.58,208.59,312.51,206.95c0.64-0.77,2.65-0.51,2.09-2.03c-0.48-1.31-1.14-0.35-1.41,0.41
			C312.99,205.89,312.95,206.5,312.51,206.95z"/>
		<path class="st15" d="M322.77,410.18c-0.26,1.35-1.14,2-2.35,2c-0.96,0-2.17-0.45-1.95-1.54c0.32-1.62,2.11-0.94,3.2-1.39
			C322.24,409.01,322.82,409.43,322.77,410.18z"/>
		<path class="st39" d="M201.52,319.73c-0.65-0.19-1.74-0.35-1.35-1.13c0.58-1.18,1.57-2.36,2.94-2.64
			c0.73-0.14,0.96,0.91,0.87,1.59C203.8,318.94,202.91,319.64,201.52,319.73z"/>
		<path class="st5" d="M268.04,211.7c-0.17,0.82,0.32,2.1-1.14,2.08c-1.14-0.02-1.52-1.06-1.53-2c-0.01-1.07,0.45-2.15,1.7-2.09
			C268.29,209.74,267.9,210.91,268.04,211.7z"/>
		<path class="st9" d="M312.47,312.82c-1.54-0.75-1.37-2.21-0.84-3.24c0.44-0.85,1.59-0.63,2.31,0.21
			C315.2,312.58,315,312.99,312.47,312.82z"/>
		<path class="st32" d="M194.15,375.17c0.35,0.37,0.71,0.73,1.04,1.12c0.61,0.74,1.81,1.49,0.67,2.52
			c-0.96,0.87-2.03,0.59-2.74-0.58C192.77,376.98,192.1,375.61,194.15,375.17z"/>
		<path class="st22" d="M203.14,384.77c-0.42,0.91-1.06,1.14-1.76,1c-1.31-0.27-2.11-1.1-2.1-2.49c0.01-0.59,0.42-1.48,1.01-1.1
			C201.37,382.86,202.23,383.91,203.14,384.77z"/>
		<path class="st14" d="M136.53,305.53c-0.1,0.82-0.52,1.11-1.09,1.01c-1.37-0.22-2.14-1.09-2.17-2.47
			c-0.01-0.68,0.38-1.73,1.06-1.42C135.51,303.18,135.85,304.63,136.53,305.53z"/>
		<path class="st40" d="M349.16,396.92c-0.22,1.28-1.07,1.93-2.28,2.01c-0.74,0.05-1.88-0.19-1.68-1.06
			c0.32-1.42,1.91-1.46,3.06-1.87C348.82,395.8,349.16,396.31,349.16,396.92z"/>
		<path class="st41" d="M313.65,192.6c0.48-0.87-0.12-2.38,1.29-2.5c1.03-0.09,1.3,1.01,1.27,1.87c-0.04,1.09-0.53,2.08-1.75,2.13
			C313.43,194.13,313.71,193.2,313.65,192.6z"/>
		<path class="st42" d="M394.38,322.2c-1.35-0.08-3.01-0.58-3.18,1.52c-0.2,2.46,1.57,2.2,3.18,2.03c-1.12,1.87-2.31,0.85-3.27-0.07
			c-1.09-1.04-1.09-2.39,0-3.42C392.07,321.35,393.25,320.33,394.38,322.2z"/>
		<path class="st43" d="M295.89,305.57c-0.02-1.47,0.49-3.34-1.97-3.23c-2.28,0.1-1.64,1.89-1.7,3.25
			c-1.66-1.18-0.83-2.36,0.14-3.35c1.04-1.06,2.34-1.07,3.39,0C296.73,303.22,297.53,304.39,295.89,305.57z"/>
		<path class="st44" d="M361.78,178c2.11-2.34,5.09-3.03,7.87-4.05c0.68-0.25,1.55,0.05,1.94,0.9c-2.74-0.46-4.95,0.96-7.28,2
			C363.46,177.23,362.81,178.03,361.78,178z"/>
		<path class="st45" d="M280.41,410.23c0.93,0.16,2.13-0.22,2.27,0.85c0.13,1.01-0.98,1.3-1.8,1.33c-0.84,0.02-1.84-0.26-1.96-1.23
			C278.76,409.92,279.93,410.46,280.41,410.23z"/>
		<path class="st46" d="M364.91,389.15c-0.22,1.41-0.13,2.66,1.74,2.63c2.32-0.03,1.81-1.73,1.76-3.14
			c1.67,1.14,0.89,2.32-0.11,3.28c-1.19,1.15-2.56,0.94-3.56-0.26C364.14,390.95,363.08,389.86,364.91,389.15z"/>
		<path class="st39" d="M149.07,319.75c-1.39-0.13-2.27-0.7-2.5-1.99c-0.09-0.49,0.24-0.93,0.71-0.82c1.16,0.26,2.49,0.62,3,1.71
			C150.67,319.48,149.49,319.47,149.07,319.75z"/>
		<path class="st47" d="M267.33,158.52c-0.43,0.65,0.15,2.13-1.22,2.04c-0.73-0.05-1-1.13-0.86-1.92c0.15-0.85,0.49-1.77,1.58-1.64
			C267.7,157.11,267.31,157.91,267.33,158.52z"/>
		<path class="st38" d="M266.96,198.85c-0.05,0.65,0.32,1.67-0.7,1.61c-0.97-0.05-1.3-1.08-1.33-1.96
			c-0.03-0.83,0.52-1.72,1.33-1.61C267.27,197.04,266.73,198.19,266.96,198.85z"/>
		<path class="st48" d="M266.89,185.42c-0.15,0.61,0.3,1.68-0.69,1.64c-0.88-0.03-1.47-0.87-1.43-1.86
			c0.03-0.86,0.55-1.69,1.33-1.65C267.21,183.61,266.74,184.73,266.89,185.42z"/>
		<path class="st49" d="M266.89,171.96c-0.2,0.65,0.38,1.78-0.85,1.77c-0.87,0-1.31-0.77-1.26-1.65c0.05-0.85,0.56-1.61,1.35-1.67
			C267.24,170.33,266.69,171.4,266.89,171.96z"/>
		<path class="st50" d="M140.2,310.53c0.84,0.54,1.71,1.14,2,2.17c0.14,0.51-0.37,0.73-0.84,0.57c-1.03-0.36-1.74-1.05-1.89-2.17
			C139.42,310.73,139.76,310.54,140.2,310.53z"/>
		<path class="st37" d="M281.43,293.4c-0.56-0.06-0.78-0.41-0.62-0.87c0.32-0.92,0.96-1.65,1.93-1.85c0.52-0.11,0.7,0.4,0.57,0.86
			C283.03,292.51,282.45,293.19,281.43,293.4z"/>
		<path class="st51" d="M319.71,174.36c2.08-0.31,3.11-1.37,2.53-3.56c1.36,0.73,1.14,1.8,0.38,2.73
			C321.9,174.4,321.06,175.44,319.71,174.36z"/>
		<path class="st51" d="M321.7,170.26c-2.94-0.47-2.79,1.68-3,3.53c-0.96-1.48-0.55-2.82,0.65-3.86
			C320.1,169.28,321.07,169.09,321.7,170.26z"/>
		<path class="st52" d="M312.47,312.82c2.82,0.12,1.46-1.79,1.47-3.03c1.21,0.74,1.45,1.9,0.84,2.99
			C314.23,313.77,313.26,313.67,312.47,312.82z"/>
		<path class="st53" d="M278.68,305.12c1.42,1.05,2.83,1.35,4.2-0.09C281.73,307.39,280.25,307.42,278.68,305.12z"/>
		<path class="st36" d="M294.79,319.5c1.24-0.9,1.34-2.14,1.02-3.49C297.34,317.7,297.07,318.63,294.79,319.5z"/>
		<path class="st54" d="M194.15,375.17c-1.69,0.57-0.79,2.01-1.03,3.06c-1.21-0.8-0.96-1.81-0.35-2.81
			C193.08,374.92,193.49,374.17,194.15,375.17z"/>
		<path class="st55" d="M189.53,332.48c0.92-1.07,0.68-2.32,0.53-3.55C191.64,330.38,191.64,331.58,189.53,332.48z"/>
		<path class="st56" d="M248.66,193.99c1.18-0.92,1.2-2.15,0.96-3.46C251.01,192.33,250.79,193.1,248.66,193.99z"/>
		<path class="st44" d="M262.71,190.37c-1.32-0.47-2.56-0.19-3.74,0.47C260.02,189.11,261.22,188.55,262.71,190.37z"/>
		<path class="st37" d="M137.18,319.05c0.34-1.27,0.44-2.5-0.54-3.57C138.61,316.58,138.71,317.23,137.18,319.05z"/>
		<path class="st53" d="M427.55,328.94c-1.04-0.04-2.09-0.08-3.13-0.12C425.51,327.68,426.57,327.38,427.55,328.94z"/>
		<path class="st44" d="M262.7,193.53c0-1.05,0.01-2.1,0.01-3.15C264.09,191.43,264.08,192.48,262.7,193.53z"/>
		<path class="st53" d="M279.28,319.05c1.02-0.01,2.05-0.03,3.07-0.04C281.35,320.56,280.32,320.38,279.28,319.05z"/>
		<path class="st53" d="M279.82,315.46c-1.04,1.07-0.88,2.32-0.55,3.59C277.57,317.57,277.81,316.38,279.82,315.46z"/>
		<path class="st53" d="M417.7,338.82c1.29,0.2,2.58,0.43,3.68-0.57C420.2,340.2,419.64,340.28,417.7,338.82z"/>
		<path class="st57" d="M371.59,292.59c1.29,0.42,2.52,0.4,3.61-0.53C374.27,294.06,373.06,294.22,371.59,292.59z"/>
		<path class="st58" d="M298.99,309.19c-0.03,1.06-0.06,2.12-0.09,3.19C297.69,311.28,297.57,310.22,298.99,309.19z"/>
		<path class="st53" d="M289.07,309.24c-1.3-0.61-2.49-0.2-3.68,0.36C286.47,307.95,287.65,307.31,289.07,309.24z"/>
		<path class="st58" d="M302.6,309.73c-1.09-0.94-2.33-0.88-3.61-0.53C300.79,307.66,301.41,307.75,302.6,309.73z"/>
		<path class="st57" d="M398.06,328.92c-0.5,1.31-0.19,2.52,0.41,3.71C396.81,331.56,396.25,330.37,398.06,328.92z"/>
		<path class="st44" d="M258.98,193.07c1.18,0.63,2.4,0.93,3.72,0.46C261.22,195.33,260.03,194.77,258.98,193.07z"/>
		<path class="st59" d="M390.71,599.66c-1.18,0.81-1.12,1.87-0.44,2.91c0.57,0.88,1.53,1.27,2.49,0.82c2.6-1.22,2.97,0.89,3.01,2.34
			c0.06,2.28,1.07,3.95,2.4,5.57c3.12,3.8,5.77,7.98,9.27,11.48c0.68,0.68,1.05,1.33,0.58,2.28c-0.49,0.98-1.22,0.72-1.99,0.47
			c-1.14-0.38-2.07-0.02-2.66,0.98c-0.6,1.02-0.49,2.17,0.44,2.8c1.22,0.83,1.03,1.58,0.37,2.56c-3.73,5.54-6.45,11.62-9.31,17.62
			c-0.63,1.31-1.05,2.51-3.07,2.43c-1.88-0.07-2.66,2.06-1.33,3.62c0.96,1.12,0.74,1.93,0.25,3.01c-1.27,2.84-2.69,5.66-3.32,8.7
			c-0.77,3.74-3.36,5.61-6.51,6.89c-30.38,12.36-62.06,16.98-94.7,15.99c-17.4-0.53-34.55-2.86-51.46-6.93
			c-0.76-0.84,0.18-1.38,0.37-2.04c0.29-1.02-0.12-1.73-1.05-2.01c-1.04-0.31-1.51,0.32-1.77,1.31c-0.16,0.6,0.63,1.63-0.7,1.77
			c-2.25-0.71-4.5-1.42-6.75-2.13c-1.55-3.83-2.5-7.81-2.6-11.95c-0.02-0.98-0.1-1.86-0.67-2.69c-1.11-1.62-1.05-3.62-1.62-5.42
			c-0.29-0.93,0.18-1.44,1.1-1.68c2.2-0.56,3.65,0.12,4.58,2.28c0.38,0.88,0.83,1.57,1.91,1.2c0.76-0.26,1.22-1.02,0.82-1.64
			c-1.47-2.31,0.17-3.07,1.8-3.7c3.49-1.35,5.22-4.49,6.92-7.33c4.52-7.56,5.56-15.93,5.09-24.67c-0.68-12.57-3.59-24.69-6.78-36.76
			c-1.08-4.09-2.05-8.18-3-12.29c-0.33-1.41-0.12-2.53,1-3.49c1.9-1.61,2.91-3.9,3.96-6.01c2.04-4.1,4.69-7.84,6.65-11.98
			c1.94-4.1,5.13-7.3,7.88-10.82c3.72-4.76,5.79-10.38,7.78-15.97c1.86-5.23,4.19-10.21,6.87-15.02c1.76-3.16,2.62-6.73,4.87-9.67
			c2.09-2.74,4.63-4.93,7.61-6.45c7.9-4.02,15.6-8.5,24.2-11.02c1.39-0.41,2.72-1.01,3.87-2.02c1.81-1.61,4.56-1.57,6.3,0.14
			c1.28,1.26,2.73,1.96,4.41,2.53c4.18,1.42,7.43,4.33,10.57,7.27c6.73,6.3,11.76,13.9,16.24,21.9c2.83,5.05,6.4,9.6,9.71,14.33
			c1.96,2.79,4.63,4.87,7.56,6.59c1.28,0.75,2.62,1.31,4.16,1.18c1.87-0.16,2.54,0.77,2.76,2.57c0.84,6.83,1.09,13.8,2.88,20.44
			c2.37,8.78,4.81,17.56,10.97,24.82c3.15,3.71,6.03,7.73,8.77,11.81C392.19,597.77,392.94,599.07,390.71,599.66z"/>
		<path class="st59" d="M252.83,424.36c1.3,1.54,2.56,1.2,3.54-0.25c0.64-0.95,1.25-0.96,2.17-0.61c4.04,1.53,8.08,3.04,12.14,4.5
			c1,0.36,1.13,1.07,1.37,1.95c0.61,2.19,2.6,2.68,4.02,0.9c0.81-1.01,1.57-1.21,2.65-0.95c2.6,0.63,5.57-0.48,7.85,1.76
			c0.49,0.48,1.31,0.3,1.96-0.06c3.62-2.04,7.25-1.94,10.88-0.06c1.06,0.55,2.16,0.55,2.83-0.35c2.21-2.94,5.66-1.23,8.35-2.36
			c0.66-0.28,0.87,0.59,1.02,1.2c0.33,1.41,1.28,2.05,2.68,1.8c1.29-0.24,1.99-1.21,1.77-2.46c-0.24-1.37,0.48-1.57,1.5-1.84
			c3.25-0.87,6.49-1.82,9.72-2.75c1.87-0.54,3.66-1.48,5.55,0.27c0.82,0.76,2.15,0.26,2.64-0.78c0.7-1.48,1.96-1.78,3.3-2.19
			c3.3-1.01,6.6-2.04,9.86-3.18c1.41-0.49,2.69-1.04,4.22-0.34c0.95,0.44,2.07,0.05,2.43-0.91c0.72-1.92,2.42-2.38,3.99-2.98
			c3.23-1.23,6.45-2.48,9.52-4.08c1.15-0.6,1.95-0.82,2.71,0.62c0.53,1,1.7,1.13,2.76,0.61c0.96-0.47,1.51-1.35,1.17-2.33
			c-0.47-1.33,0.08-1.92,1.16-2.41c9-4.08,16.55-10.53,25.07-15.41c1.15-0.66,1.95-1.65,3.14,0.02c0.64,0.9,1.89,0.83,2.82,0.11
			c0.92-0.71,1.19-1.71,0.64-2.77c-0.44-0.84-1.19-1.59,0.1-2.33c1.11-0.64,1.85-2.27,3.56-1.25c0.52,0.31,1.11,0.48,1.65,0.75
			c5.7,2.86,8.4,2.4,12.87-2.17c1.88-1.92,3.59-3.97,5.11-6.18c0.38-0.56,0.66-1.44,1.41-1.39c0.97,0.07,0.88,1.16,1.12,1.83
			c0.74,2.03,1.32,4.1,1.67,6.25c0.61,3.75,0.43,7.03-2.82,9.86c-2.5,2.18-3.32,5.41-2.77,8.79c0.16,0.99,0.15,1.86-0.42,2.72
			c-1.45,2.16-2.66,4.45-3.68,6.84c-0.53,1.26-1.09,1.45-2,0.35c-5.24-6.28-11.92-6.16-19.19-4.75
			c-8.52,1.65-14.73,6.45-19.85,13.09c-0.71,0.92-1.58,1.43-2.8,1.63c-5.24,0.87-6.77,4.9-3.44,8.95c0.53,0.65,0.87,1.19,0.63,2.07
			c-2.6,9.71-3.75,19.67-5.2,29.58c-0.31,2.11-1.36,2.73-3.27,2.78c-6.66,0.18-13.29-0.07-19.91-0.81c-2.82-0.32-5.82-0.79-7.24,2.8
			c-0.14,0.35-0.85,0.53-1.33,0.66c-7.85,2.08-15.77,2.61-23.88,1.8c-8.4-0.83-16.55-2.38-24.46-5.34
			c-4.57-1.71-9.44-2.12-14.26-2.48c-6.03-0.44-12.09-0.46-18.12-0.83c-12.87-0.78-25.59-2.34-37.36-8.19
			c-2.1-1.04-4.06-2.25-5.89-3.73c-2.9-2.34-5.8-2.22-7.82,0.16c-1.99,2.34-1.57,5.25,1.17,7.77c2.25,2.06,4.79,3.73,7.59,4.9
			c6.62,2.76,13.28,5.4,20.22,7.26c1.24,0.34,2.54,0.62,3.82,0.66c2.06,0.07,3.8,0.51,5.4,2c1.52,1.41,3.59,1.62,5.63,1.17
			c4.98-1.11,9.79-0.51,14.47,1.43c0.9,0.37,1.74,0.76,2.62-0.09c0.28-0.27,0.78-0.43,1.17-0.42c5.59,0.11,11.19,0.05,16.85,1.83
			c-0.72,1.11-1.74,1.35-2.62,1.79c-7.14,3.62-14.81,6.3-20.82,11.94c-3.2,3-5.88,6.34-7.69,10.33
			c-4.03,8.88-8.69,17.48-11.79,26.78c-1.26,3.77-3.24,7.25-6.03,10.19c-4.75,5.02-7.45,11.39-11.07,17.15
			c-0.38,0.61-0.45,1.79-1.4,1.61c-0.79-0.15-0.79-1.24-1.01-1.97c-1.81-6.04-3.33-12.16-5.83-17.98c-0.72-1.68-1.41-3.38-2.94-4.49
			c-1.1-0.8-1.06-1.88-1.05-3.01c0.06-6.05-1.34-11.76-3.5-17.41c-4.48-11.67-13.98-12.7-22.52-10.43c-3.46,0.92-6.6,2.6-8.92,5.47
			c-0.72,0.89-1.42,1.52-1.9-0.12c-2.68-9.24-6.56-18.01-10.28-26.84c-0.66-1.57-0.44-2.68,0.81-3.9
			c14.74-14.43,14.06-31.17,4.69-47.83c-0.3-0.53-0.65-1.02-1.01-1.51c-0.79-1.07-0.1-1.74,0.62-2.42c0.76-0.73,1.38-0.45,2,0.19
			c0.72,0.74,1.43,1.5,2.2,2.2c2.51,2.27,4.84,4.39,3.42,8.49c-0.81,2.34,0.25,4.93,1.3,7.26c1.96,4.32,4.79,8,8.22,11.22
			c3.47,3.26,8.17,3.47,11.54,0.66c3.39-2.83,3.97-7.05,1.56-11.2c-0.21-0.36-0.36-0.75-0.73-1.54c2.55,0.83,4.73,1.5,6.88,2.23
			c8.21,2.81,16.68,3.61,25.29,3.35c0.69-0.02,1.39,0.01,2.07-0.11c2.72-0.46,4.68-2.6,4.69-5.08c0.01-2.61-2.04-4.88-4.92-5.1
			c-2.84-0.21-5.7-0.11-8.55-0.2c-9.06-0.26-17.51-2.76-25.47-7.04c-1.9-1.02-3.33-2.3-4.02-4.46c-0.76-2.36-2.58-4.04-4.31-5.75
			c-3.93-3.9-7.86-7.79-11.66-11.8c-1.06-1.12-3.16-2.27-0.9-4.38c0.61-0.57-0.21-1.5-0.99-2.06c-1.16-0.82-0.89-5.85,0.39-6.38
			c1.22-0.5,2.33-0.13,2.8,1.38c0.93,3.01,1.73,3.34,4.23,1.57c0.84-0.59,1.43-0.32,2.14-0.06c3.64,1.35,7.68,2.12,10.8,4.24
			c3.06,2.08,6.03,3.37,9.62,3.64c1.35,0.1,2.5,1.16,3.93,1.14c2.57,0.73,5.51,1.07,7.43,2.8c2.38,2.13,5.34,1.81,7.88,3.01
			c1.26,0.59,2.11,1.13,1.43,2.69c-0.35,0.81-0.59,1.8,0.48,2.23c1.22,0.49,1.7-0.49,2.02-1.42c0.45-1.3,1.16-1.39,2.39-0.91
			c3.83,1.51,7.63,3.09,11.57,4.32c1.95,0.61,3.19,1.63,2.51,3.92C252.48,423.73,252.57,424.09,252.83,424.36z"/>
		<path class="st60" d="M506.84,557.92c-1.18-6.01-2.56-11.99-3.49-18.03c-2.53-16.46-4.68-32.98-6.42-49.55
			c-0.42-4.03-1.31-8-1.94-12.01c-1-6.3-1.3-12.69-2.43-18.98c-2.24-12.4-6.72-23.87-13.88-34.28c-2.4-3.48-4.11-7.41-6.92-10.63
			c-0.64-0.73-0.31-1.67-0.11-2.5c0.66-2.75,0.48-5.49-0.05-8.23c-0.67-3.5-2.48-6.26-5.55-8.07c-3.3-1.95-6.88-3.31-10.68-3.77
			c-1.63-0.2-1.98-0.71-1.94-2.21c0.21-7.39-1.48-14.4-4.54-21.09c-2.01-4.38-4.48-8.38-9.09-10.56c-1.79-0.84-1.21-1.88,0.02-2.66
			c4.91-3.09,9.27-6.9,13.82-10.47c7.85-6.18,13.37-14.1,17.67-23c2.97-6.14,5.65-12.39,7.71-19.21c4.25,4.75,7.81,9.68,11.24,14.71
			c9.84,14.41,18.07,29.69,24.66,45.85c0.45,1.1,0.63,1.91-0.09,3.08c-3.01,4.84-2.16,10.33,2.71,13.4
			c3.89,2.45,5.43,5.77,6.57,9.91c4.31,15.55,6.43,31.43,7.61,47.46c0.08,1.03,0.22,1.99-0.99,2.65
			c-12.87,7.08-20.7,18.43-26.59,31.45c-6.52,14.41-5.22,28.87-0.39,43.36c2.64,7.91,6.78,15,12.04,21.45
			c0.52,0.63,0.92,1.13,0.57,2.05C513.71,544.83,510.79,551.5,506.84,557.92z"/>
		<path class="st61" d="M57.01,458.06c-1.98-57.07,15.93-107.54,50.4-153.08c1.63,3.59,3.12,6.73,4.5,9.92
			c3.67,8.47,8.24,16.44,14.91,22.84c6.83,6.56,13.72,13.15,22.14,17.78c2.29,1.26,3.7,2.66,3.33,5.9
			c-1.13,9.83,1.32,18.69,8.67,25.76c0.87,0.84,1.81,1.6,2.76,2.35c2.33,1.81,2.83,3.1,1.26,5.4c-0.93,1.36-0.73,2.3-0.09,3.48
			c0.21,0.38,0.38,0.78,0.61,1.14c1.76,2.77,2.95,5.49-0.62,7.84c-0.2,0.13-0.27,0.44-0.45,0.63c-1.08,1.18-1.02,3.69-2.67,3.73
			c-1.2,0.02-2.44-1.71-3.65-2.67c-12.03-9.48-25.58-14.39-41.01-14c-9.08,0.23-16.13,3.98-21.88,10.98
			C84.35,419.29,74.16,433,64.84,447.37C62.45,451.06,59.46,454.32,57.01,458.06z"/>
		<path class="st59" d="M394.44,580.99c-0.31-0.52-0.57-1.08-0.94-1.55c-0.9-1.11-1.49-2.01,0.23-3.07
			c0.92-0.56,0.94-1.82,0.26-2.81c-0.67-0.97-1.83-1.48-2.69-0.77c-2.94,2.4-3.55-0.79-3.48-1.92c0.16-2.66-1.24-4.31-2.34-6.38
			c-1.31-2.47-2.08-5.34-2.54-8.12c-1.97-12.03-3.84-24.08-2.41-36.34c0.45-3.86,0.85-7.73,1.39-11.57c1.11-7.86,0-15.8,1.46-23.72
			c2.35-12.73,3.85-25.61,5.87-38.4c0.63-4,1.6-7.96,2.73-11.85c2.42-8.31,10.33-14.67,19.5-14.68c2.64,0,3.95,1.25,4.22,3.88
			c0.25,2.45-0.77,4.55-1.78,6.66c-6.04,12.7-10.57,25.89-12.63,39.85c-0.31,2.13-0.49,4.3-0.46,6.45c0.04,3.4,2.2,6.14,5.04,6.73
			c2.93,0.61,5.75-0.98,7.19-4.25c2.35-5.31,3.39-11.06,5.28-16.52c3.18-9.21,5.95-18.6,11.59-26.77c2.77-4.02,4.28-8.66,5.55-13.34
			c1.68-6.15,4.92-11.33,9.39-15.86c3.76-3.81,9.9-2.86,13.41-0.5c1.95,1.31,1.15,3.76,0.47,5.51c-2.47,6.4-5.59,12.56-10.27,17.59
			c-7.25,7.8-11.43,17.24-15.15,26.92c-2.87,7.49-5.12,15.22-7.67,22.83c-0.48,1.43-0.71,2.86-0.41,4.33
			c0.56,2.76,2.67,4.79,5.21,5.09c2.82,0.33,5.3-1.2,6.7-4.29c2.02-4.49,4.03-8.98,5.92-13.52c3-7.19,6.99-13.68,12.85-18.89
			c3.49-3.11,7.77-4.87,12.1-6.3c2.06-0.68,2.14,1.55,2.08,2.9c-0.32,6.85-2.56,12.94-7.23,18.11c-3.88,4.3-7.56,8.77-11.7,12.83
			c-1.92,1.88-3.69,3.88-5.16,6.13c-1.05,1.62-2.41,2.87-4.02,3.96c-3.5,2.35-5.43,6.06-7.27,9.62c-4.19,8.13-8.74,16.11-11.8,24.78
			c-0.82,2.31-3.45,2.15-4.7,3.81c-1.6,1.3-3.04,2.78-4.82,3.89c-3.44,2.16-6.91,2.3-10.59,0.72c-3.83-1.64-7.01-0.72-8.44,2.3
			c-1.51,3.21-0.09,6.8,3.41,8.71c1.61,0.88,3.35,1.37,5.11,1.77c2.8,0.64,2.65,0.58,2.3,3.3c-0.76,5.81-1.43,11.62,0.72,17.37
			c1.1,2.93,2.84,5.3,5.09,7.36c1.31,1.2,2.25,2.59,2.69,4.33c0.34,1.36,0.38,2.4-1.52,2.4c-1.51,0-2.2,0.84-1.81,2.38
			c1.05,2.44,2.58,0.42,3.9,0.41c1.96,2.65,1.64,5.81,1.86,8.8c0.34,4.64-0.68,9.21-1.26,13.79c-0.16,1.28-0.85,1.32-1.8,0.82
			c-2.08-0.02-2.9-1.37-3.59-3.11c-0.45-1.14-1.39-2.09-2.11-3.13c-3.96-4.97-6.29-11.02-10.67-15.68c1.17-1.11,2.81-0.22,3.43-1.62
			c0.47-0.93,0.5-1.82-0.44-2.45c-0.81-0.54-1.59-0.29-2.25,0.38C396.56,581.07,396.06,583.58,394.44,580.99z"/>
		<path class="st59" d="M496.5,593.98c-2.92,0-5.68,0.09-8.43-0.03c-1.7-0.07-2.89,0.32-3.88,1.85c-1.26,1.95-2.83,3.69-4.28,5.52
			c-0.79,1-1.41,1.51-2-0.25c-3.12-9.39-9.01-17.03-15.38-24.38c-3.77-4.36-8.15-8.12-12.02-12.35c-3.36-3.67-7.59-6.47-10.43-10.67
			c-0.81-1.2-2.48-1.8-3.7-2.74c-1.1-0.84-2.12-1.75-2.52-3.19c-0.36-1.29-1.45-1.57-2.63-1.72c-1.44-0.18-2.03-1.09-1.45-2.38
			c1.04-2.3,0.92-5.19,3.45-6.75c0.59-0.36,0.95-1.18,0.71-1.84c-1.4-3.8,0.29-7.16,1.68-10.43c1.2-2.82,1.72-6.25,5.22-7.63
			c0.66-0.26,0.92-1.3,0.59-2.09c-0.49-1.18-0.17-2.15,0.47-3.16c0.72-1.14,1.02-3.08,2.89-0.96c0.52,0.59,1.52,0.57,2.08-0.16
			c0.61-0.81-0.17-1.35-0.71-1.64c-2.33-1.27-1.4-2.45-0.22-4.03c7.96-10.56,16.87-20.31,25.71-30.12c0.63-0.7,1.16-1.51,1.77-2.23
			c0.42-0.49,0.62-1.46,1.47-1.2c0.7,0.21,0.73,1.09,0.95,1.73c2.2,6.51,3.21,13.3,3.88,20.06c0.88,8.86,2.32,17.64,3.39,26.47
			c0.8,6.59,1.36,13.21,2.52,19.76c2.75,15.48,6.21,30.81,9.47,46.19C495.69,588.29,496.02,591.03,496.5,593.98z"/>
		<path class="st59" d="M401.65,664.29c3.87-8.56,7.31-17.24,12.28-25.16c7.56-12.03,12.32-24.99,13.93-39.17
			c0.76-6.63,0.42-13.09-0.93-19.56c-0.24-1.13-0.26-2.08,0.69-3.07c2.92-3.04,3.05-5.84,0.49-9.2c-1.73-2.26-3.48-4.53-5.45-6.58
			c-1.46-1.52-0.79-2.41,0.26-3.67c1.19-1.44,2.02-0.74,2.98,0.14c11.7,10.64,23.36,21.32,33.24,33.73
			c4.76,5.97,7.66,12.87,9.47,20.26c0.3,1.22,0.13,2.11-0.75,3.04c-14.99,15.91-31.61,29.81-50.43,40.99
			C412.36,659.05,407.28,662.07,401.65,664.29z"/>
		<path class="st62" d="M144.86,477.23c-2.92,2.6-5.41,5.21-8.28,7.28c-5.91,4.27-11.33,9.04-16.44,14.22
			c-3.28,3.33-5.48,3.61-9.78,1.5c-0.75-0.37-1.52-0.44-2.23,0.01c-3.85,2.43-7.29,0.51-10.48-1.32c-2.06-1.18-3.78-3.28-4.56-5.52
			c-1.76-5.11-3.62-10.23-2.97-15.87c1.25-10.86,3.49-21.42,7.52-31.65c2.2-5.6,3.45-11.58,4.92-17.44c1.49-5.96,5.76-9.88,9.79-14
			c0.45-0.46,1.21-0.73,1.86-0.83c4.47-0.67,8.95-0.93,13.36,0.35c3.11,0.9,3.26,1.35,0.87,3.48c-3.82,3.41-7.32,7.08-10.34,11.22
			c-3.05,4.19-6.48,8.14-9.16,12.55c-6.07,9.98-6.64,26.26,9.02,33.66c2.56,1.21,4.4,2.86,7.84,2.98
			c6.03,0.21,11.97,1.44,17.88-0.77C143.87,476.99,144.14,477.12,144.86,477.23z"/>
		<path class="st60" d="M118.05,593.93c2.21,6.05,0.74,12.3,1.15,18.64c-1.66-0.32-2.11-1.68-2.92-2.57
			c-15.01-16.41-26.84-34.94-36.58-54.87c-0.7-1.44-0.52-2.18,0.82-3.15c5.4-3.93,11.11-7.31,16.99-10.44
			c3.28-1.75,6.52-3.57,9.52-5.78c1.03-0.76,1.66-0.95,2.28,0.53c2.28,5.5,4.67,10.96,7.03,16.43c0.37,0.86,0.28,1.65-0.12,2.49
			c-3.85,8.1-2.66,15.61,2.76,22.58c0.8,1.03,1.12,2.01,0.52,3.2C117.87,585.17,117.16,589.46,118.05,593.93z"/>
		<path class="st59" d="M215.51,632.85c-1.19-1.1-1.56-2.52-1.88-4.07c-2.63-12.76-5.33-25.51-8.03-38.25
			c-0.31-1.48-0.05-2.9,0.15-4.36c0.66-4.72,0.89-9.46,0.04-14.17c-0.71-3.93-2.55-7.31-5.34-10.16c-0.93-0.61-1.72-1.4-2.77-1.88
			c-0.75-0.35-2.24-0.11-2.09-1.45c0.17-1.51,0.64-3.01,1.51-4.31c0.2-0.3,0.58-0.39,0.93-0.34c5.12,0.73,8.93-1.91,12.5-4.99
			c1.54-1.33,1.95-0.58,2.39,0.86c3.42,11.19,6.72,22.4,9.09,33.88c0.48,2.33-1.31,2.16-2.29,2.97c-0.61,0.72-0.93,1.5-0.22,2.31
			c0.6,0.69,1.41,0.64,2.13,0.25c1.61-0.88,2.32,0.02,2.49,1.38c0.43,3.61,2.2,6.83,2.87,10.38c0.44,2.37,1.19,4.64-1.48,6.19
			c-0.35,1.51,0,2.6,1.75,2.75c1.31,0.11,1.78,1.01,1.9,2.09c0.25,2.32,0.82,4.58,1.18,6.88c0.11,0.69,0.35,1.43-0.25,1.95
			c-0.73,0.63-1.23-0.2-1.81-0.46c-0.16-0.07-0.29-0.19-0.45-0.25c-0.61-0.26-1.21-0.27-1.67,0.25c-0.46,0.52-0.42,1.13,0.01,1.66
			c0.44,0.54,1,0.52,1.64,0.33c2.69-0.81,2.75-0.79,2.7,1.94c-0.05,2.41,0.25,4.82,0.05,7.23c-0.21,2.52-0.23,2.54-2.63,1.6
			c-0.74-0.29-1.36-0.23-1.89,0.32c-0.39,0.4-0.49,0.91-0.27,1.44c0.31,0.74,0.91,0.99,1.67,0.96c0.35-0.02,0.67-0.15,1.01-0.23
			c1.25-0.28,1.57,0.36,1.37,1.44c-1.13,6.21-4.96,10.01-10.78,12.01c-0.95,0.33-1.49-0.13-1.71-1.04
			c-0.87-3.52-1.6-7.07-2.25-10.64C214.82,635.86,216.4,634.44,215.51,632.85z"/>
		<path class="st59" d="M136.64,567.04c-0.75-1.06-1.74-1.38-2.92-0.83c-1.09,0.51-1.46,1.45-1.18,2.58
			c0.24,0.96-0.16,1.46-0.96,1.83c-0.87,0.4-1.67,0.41-2.39-0.29c-1.4-1.38-2.23-3.05-2.53-4.99c-0.15-0.94,0.21-1.28,1.22-1.48
			c2.76-0.53,3.37-2.07,1.55-4.04c-0.78-0.85-0.66-1.38-0.3-2.24c2.55-6.06,6.58-10.7,12.77-13.23c9.18-3.75,18.24-7.84,27.91-10.19
			c3-0.73,6.12-1.08,9.21-1.28c4.48-0.29,6.73,1.68,7.41,6.12c0.42,2.76,0.31,5.53-0.38,8.23c-0.62,2.42-1.43,4.79-2.13,7.19
			c-0.69,2.34-1.97,4.2-4.22,5.28c-1.09,0.99-2.29,1.7-3.75,2.09c-1.49,0.4-2.96,0.85-4.49,0.95c-2.13,0.13-1.22-2.45-2.58-3.04l0,0
			c-2.8-0.32-3.46,0.21-3.17,2.86c0.12,1.04-0.2,1.44-1.11,1.57c-2.78,0.41-5.56,0.81-8.37,0.97c-1.2,0.07-1.24-0.59-1.01-1.47
			c0.42-1.04,1.48-2.11,0.21-3.18c-0.88-0.74-1.74-0.28-2.39,0.55c-0.37,0.69-0.27,1.36,0.2,1.93c1.2,1.47,0.93,2.19-1.01,2.38
			c-4.66,0.46-9.26,1.25-13.79,2.42C137.7,567.91,137.07,567.69,136.64,567.04z"/>
		<path class="st62" d="M113.7,454.41c-0.73-5.29,2.31-9.43,5.51-13.46c5.03-6.34,9.48-13.19,15.86-18.37
			c0.97-0.79,1.69-1.96,2.34-3.07c0.65-1.1,1.2-1.9,2.59-1.04c1.16,0.71,2.13,1.26,1.41,3.01c-1.53,3.68-4.34,6.4-6.71,9.45
			c-2.17,2.8-4.51,5.48-5.42,9.03c-0.91,3.55-0.36,6.44,2.74,8.98c1.91,1.56,3.54,2.34,6.08,2.76c8.72,1.44,15.75-0.85,21.49-7.52
			c0.79-0.91,1.52-2.67,2.82-2.23c1.11,0.38,1.03,2.22,1.45,3.42c2.49,7.09-0.03,12.79-4.94,17.82c-0.59,0.6-1.01,0.7-1.39-0.4
			c-1.25-3.6-2.65-3.71-6.25-2.77c-2.94,0.77-5.46,0.7-4.57,4.93c0.17,0.82-1.51,2.78-3.48,2.2c-1.49-0.44-2.45-0.02-3.17,1.36
			c-1.03,1.98-3.05,1.74-4.8,1.81c-1.72,0.08-3.52,0.43-4.3-2.12c-0.52-1.69-2.43-1.87-3.55-0.47c-1.05,1.31-1.92,1.01-3.12,0.6
			c-2.91-0.99-5.49-2.48-7.71-4.6C113.97,461.25,113.3,458.16,113.7,454.41z"/>
		<path class="st62" d="M136.7,582.6c0.57-1.04,1.35-1.82,2.53-2.13c5.05-2.23,10.51-2.59,15.86-2.98c5.6-0.4,11.1-1.16,16.57-2.28
			c5.27-1.19,10.7-1.89,15.3-5.1l0,0c0.45-0.25,0.87-0.56,1.22-0.94c1.1-1.19,1.72-0.88,2.82,0.31c4.41,4.79,3.56,10.18,2.21,15.7
			c-2.32,2.93-5.8,3.81-9.11,4.75c-1.73,0.49-0.84-1.88-1.7-2.6c-0.23-0.27-0.46-0.52-0.74-0.75c-0.88-0.65-1.61-0.41-2.23,0.39
			c-0.63,0.82-0.49,1.69,0.15,2.36c1.61,1.68,0.62,2.28-1.01,2.71c-1.23,0.33-2.41,0.9-3.77,0.49c-0.88-0.26-1.73,0.03-2.37,0.7
			c-2.41,2.51-5.86,2.68-8.82,3.95c-1.01,0.44-1.24-0.19-1.01-1.05c0.21-0.76,0.46-1.49-0.02-2.23c-0.85-0.96-1.87-1.04-2.71-0.18
			c-1.28,1.31,0.34,2.11,0.75,3.13c0.31,0.94,0.04,1.42-1.01,1.56c-4.45,0.58-8.72,2.31-13.31,2.08c-1.3-0.07-2.57-0.04-3.68-0.84
			c-0.77-0.55-1.6-0.48-2.47-0.31c-1.65,0.33-3.25-0.01-4.81-0.52c-0.69-0.23-1.68-0.42-1.73-1.32c-0.05-1.01,1.05-0.91,1.66-1.27
			c0.94-0.58,1.39-1.37,0.7-2.36c-0.7-1.01-1.62-0.74-2.49-0.15c-0.42,0.29-0.8,0.65-1.31,0.83c-1.25,0.2-1.39-0.69-1.57-1.57
			c-0.47-2.25-0.12-4.5,0.28-6.68c0.27-1.46,1.25-2.72,3.1-2.51C135.16,583.92,135.99,583.43,136.7,582.6z"/>
		<path class="st62" d="M88.31,445.74c0.45,0.69,0.09,1.33-0.15,1.95c-3.82,9.93-5.94,20.32-6.37,30.85
			c-0.4,9.68,2.03,18.86,9.48,25.93c2.03,1.93,4.71,2.79,7.02,4.19c2.94,1.77,5.49,2.54,8.63,1.27c0.19-0.08,0.49,0.1,0.72,0.15
			c0.36,0.66-0.16,0.98-0.49,1.33c-6.07,6.32-12.66,11.97-20.68,15.75c-1.17,0.55-2.04,1.12-3.1-0.23
			c-0.61-0.78-1.71-0.77-2.63-0.24c-0.74,0.42-1.3,1.2-1.07,1.92c1.09,3.38-1.78,3.55-3.55,4.08c-1.53,0.46-2.41,1.2-3.44,2.33
			c-3.04,3.36-7,5.49-10.84,7.6c-0.77-0.61-0.45-1.08-0.19-1.52c2.31-3.85,4.59-7.66,8.22-10.56c1.55-1.23,2.45-3.27,3.65-4.94
			c0.62-0.87,1.27-1.37,2.53-1.37c2.21,0,3.01-1.45,2.05-3.51c-0.41-0.87-0.48-1.49-0.05-2.37c1.77-3.68,2.87-7.59,3.49-11.63
			c0.19-1.21,0.45-2.13,1.89-2.35c1.2-0.18,1.75-1.15,1.69-2.28c-0.06-1.12-0.62-2.01-1.96-1.91c-1.2,0.09-1.16-0.75-1.22-1.52
			c-0.72-8.77-4.92-15.46-12-20.53c-3.07-2.19-3.04-2.48-0.89-5.56c5.98-8.57,11.98-17.13,17.98-25.69
			C87.34,446.43,87.54,445.77,88.31,445.74z"/>
		<path class="st62" d="M372.14,478.97c-0.77,5.06-1.94,10.56-2.45,16.16c-0.2,2.16-0.5,4.31-0.23,6.46
			c0.52,4.08,0.18,8.08-0.5,12.11c-0.49,2.89-0.6,5.84-0.89,8.76c-0.06,0.67,0.12,1.47-0.66,1.83c-0.84,0.39-1.56-0.1-2.11-0.62
			c-0.87-0.83-1.68-1.74-2.38-2.72c-4.17-5.83-8.23-11.74-11.7-18.03c-3.75-6.8-8.91-12.49-14.18-18.09
			c-0.48-0.51-1.91-0.94-0.81-1.95c0.8-0.74,1.46,0,2.12,0.7c1.63,1.75,3.19,1.49,4.09-0.76c0.43-1.08,1.1-1.41,2.05-1.66
			c3.93-1.02,7.8-2.25,11.46-4.03c0.31-0.15,0.74-0.4,0.96-0.3c4.61,2.17,9.21-1.1,13.84-0.04
			C371.91,477.08,372.57,477.2,372.14,478.97z"/>
		<path class="st62" d="M52.69,506.78c-1-0.99-0.99-1.98-0.32-3.23c3.25-6.08,6.45-12.18,9.57-18.33c0.83-1.65,1.45-1.57,2.88-0.58
			c10.69,7.41,10.55,18.28,6.26,28.32c-1.08,2.52-2.23,5.43-4.21,7.64c-0.64,0.72-1.32,1.71-1.82-0.11
			c-1.86-1.59-2.73,0.38-3.76,1.2c-0.98,0.79-0.77,1.83,0.36,2.52c0.65,0.4,0.84,1.01,0.3,1.47c-1.04,0.89-1.42,2.71-3.28,2.46
			c-0.5-0.07-0.95-0.38-1.42-0.59c-1.47-0.59-2.33-1.37-1.33-3.1c3.49-6.06,1.21-11.34-2.32-16.42
			C53.3,507.61,52.92,507.25,52.69,506.78z"/>
		<path class="st60" d="M523.77,516.39c-6.29-9.73-7.17-20.31-5.89-30.71c1.2-9.76,7.56-17.5,13.77-25.04
			C531.36,479.43,528.92,497.89,523.77,516.39z"/>
		<path class="st34" d="M390.71,599.66c1.3-0.85,1.23-1.82,0.36-2.99c-2.8-3.73-5.31-7.7-8.38-11.2
			c-4.76-5.43-7.09-11.94-9.47-18.55c-3.02-8.41-3.76-17.18-4.65-25.94c-0.24-2.37-0.61-3.57-3.68-3.85
			c-4.66-0.42-8-3.91-10.73-7.54c-4.73-6.28-9.14-12.79-13.02-19.65c-4.74-8.37-10.89-15.53-18.64-21.28
			c-1.68-1.25-3.4-2.35-5.47-2.84c-1.54-0.37-2.79-1.23-3.96-2.34c-1.7-1.61-3.66-1.85-5.56-0.29c-1.16,0.96-2.45,1.61-3.87,2.04
			c-8.64,2.65-16.57,6.91-24.51,11.09c-4.87,2.57-8.01,6.73-10.48,11.75c-4.62,9.39-8.51,19.07-12.59,28.69
			c-1.36,3.2-3.24,6.08-5.61,8.66c-4.79,5.21-7.62,11.68-11.16,17.7c-1.92,3.27-3.32,6.86-6.04,9.62c-0.99,1-0.56,2.07-0.37,3.16
			c1.17,6.65,3.49,13.01,4.96,19.57c2.65,11.88,5.51,23.78,4.76,36.12c-0.49,8.03-3.04,15.19-7.93,21.78
			c-1.87,2.51-4.5,2.94-6.53,4.8c0.3,0.41,0.61,0.81,0.88,1.22c0.59,0.9,0.57,1.83-0.07,2.66c-0.63,0.82-1.51,1.13-2.54,0.79
			c-1.03-0.33-1.66-1.11-1.55-2.14c0.39-3.61-2.46-1.57-3.52-1.74c-1.87-0.3-0.75,1.45-0.65,2.22c0.2,1.6,0.4,3.26,1.59,4.57
			c0.32,0.35,0.59,0.97,0.52,1.41c-0.7,4.54,1.41,8.61,2.04,12.92c-0.59-0.05-0.9-0.33-1.04-0.94c-0.85-3.76-1.94-7.43-2.18-11.35
			c-0.16-2.58-1.36-5.09-2.1-7.63c-0.75-2.55-0.57-2.77,2.01-2.43c5.45,0.73,11.91-2.69,14.83-8.03c4.46-8.13,5.91-16.7,5.31-26.08
			c-0.56-8.83-2.74-17.29-4.05-25.93c-0.72-4.72-2.59-9.25-3.81-13.9c-0.83-3.15-1.44-6.36-2.14-9.54c-0.16-0.73-0.01-1.38,0.54-1.9
			c4.73-4.41,6.76-10.54,9.93-15.91c2.6-4.4,5.2-8.72,8.6-12.51c2.75-3.07,4.63-6.7,6.01-10.46c3.08-8.41,7.27-16.33,10.65-24.57
			c3.51-8.54,10.01-13.02,17.73-16.56c6.16-2.83,12.04-6.31,18.7-8c1.04-0.27,2.03-0.96,2.9-1.65c2.34-1.85,4.8-1.93,6.9,0.16
			c1.28,1.27,2.81,1.79,4.42,2.46c5.66,2.38,9.98,6.57,14.13,11.01c8.79,9.41,13.68,21.46,21.6,31.45c2.44,3.08,5.18,5.77,8.56,7.77
			c1.11,0.66,2.4,0.98,3.73,0.84c1.99-0.21,2.75,0.43,3.05,2.65c1.02,7.39,1.09,14.99,3.21,22.13c2.5,8.43,4.92,16.92,11.08,23.9
			c3.24,3.67,6.23,7.77,8.81,12.06C393.39,599.11,392.91,599.83,390.71,599.66z"/>
		<path class="st63" d="M135.78,510.31c0.1-1.65,0.4-3.02,1.63-3.4c1.33-0.42,2.03,0.93,2.29,1.94c0.51,1.99,2.25,1.39,3.42,2.01
			c6.05,3.19,11.54,1.7,16.78-1.85c1.74-1.18,2.63-1.18,3.19,1.09c0.87,3.51,1.93,6.99,3.01,10.44c0.37,1.17,0.13,1.81-1.01,2.17
			c-2.55,0.81-5.1,1.61-7.63,2.45c-0.97,0.32-1.51,0.48-1.6-0.97c-0.21-3.38-1.57-4.55-4.97-4.41c-3.66,0.15-7.05-0.83-10.13-2.62
			C138.05,515.59,136.55,512.96,135.78,510.31z"/>
		<path class="st64" d="M191.09,666.63c-1.18-0.55-2.36-1.11-3.53-1.66c-1.24-1.84,0.88-1.91,1.46-2.79
			c0.69-0.97,0.68-2.15,0.01-2.9c-1.19-1.34-0.85-2.67-0.53-4.11c1.63-7.39,4.04-14.56,6.04-21.84c0.17-0.6,0.27-1.51,1.15-1.44
			c0.89,0.06,0.84,0.97,0.99,1.61c1.65,7.2,2.88,14.49,4.71,21.65c0.23,0.91,0.27,1.93-0.6,2.63c-1.62,1.3-1.57,3.1-1.66,4.93
			c-0.12,2.43,0.15,5.01-1.87,6.94c-1.15-0.54-2.3-1.09-3.46-1.63C193.21,666.93,192.35,666.4,191.09,666.63z"/>
		<path class="st62" d="M186.44,521.33c3.41-1.08,4.92-3,5.62-5.84c0.6-2.41,2.97-2.33,4.87-2.62c1.86-0.29,3.71-0.11,4.71,1.83
			c4.08,7.87,4.75,15.91,1,24.11c-0.55,1.19-1.29,2.49-2.81,2.2c-1.42-0.27-1.13-1.74-1.22-2.81
			C197.91,530.48,193.94,525.04,186.44,521.33z"/>
		<path class="st65" d="M151.48,642.7c-4.86-3.7-9.5-7.65-14.19-11.56c-2.1-1.75-2.55-3.44-2.1-6c0.62-3.56,0.21-7.26,1-10.83
			c0.21-0.96-0.57-2.62,1.25-2.58c1.5,0.03,2.98,0.28,3.64,2.23c1.88,5.47,3.94,10.88,6,16.29c1.42,3.71,2.96,7.37,4.44,11.06
			C151.68,641.69,151.91,642.1,151.48,642.7z"/>
		<path class="st63" d="M57.68,527.12c1.39,1.23,2.19,0.19,3.18-0.69c1.16-1.04,0.79-1.57-0.08-2.65c-0.92-1.14-0.43-2.48,1.05-3.14
			c1.05-0.47,2.04-2.46,3.22-0.14c-1.82-0.79-2.65,0.71-3.67,1.65c-0.51,0.47-0.45,1.31,0.16,1.56c2.54,1.06,1.04,2.08,0.06,3.14
			c-4.8,5.22-8.32,11.2-10.38,17.99c-0.38,1.24-0.78,1.79-2.12,1.38c-0.58-0.18-1.19,0.1-1.67,0.52c-0.29,0.6-1.02,1.21-0.66,1.86
			c1.12,2.05-0.51,2.52-1.72,3.23c-1.62,0.95-3.62,0.9-5.2,2.08c-0.75,0.56-1.28-0.11-1.24-0.96c0.13-2.82,0.65-5.6,0.92-8.42
			c0.09-0.95,0.95-1.1,1.78-1.09c0.86,0.01,1.74,0.08,2.32-0.76c0.54-0.52,0.61-1.07,0.09-1.66c-0.4-0.76-1.11-0.94-1.88-1.15
			c-1.71-0.48-2.04-1.67-0.79-2.94c1.27-1.29,3.03-1.87,4.58-2.7c1.2-0.64,1.21,1.03,1.78,1.65c0.69,0.83,1.53,1.14,2.39,0.36
			c1-0.9,0.37-1.83-0.18-2.7c-0.48-0.83-0.58-1.63,0.23-2.34c1.22-0.75,1.64-3,3.79-2.05c0.2,0.14,0.38,0.3,0.55,0.47
			c1.98,1.04,2.51,0.86,3.03-1.1C57.33,528.05,57.31,527.52,57.68,527.12z"/>
		<path class="st64" d="M147.31,528.43c-5.54,3.16-11.59,4.73-17.14,8.48c0.33-2.32-0.09-3.73-2.17-4.13
			c-0.84-0.16-1.15-1.01-1.43-1.73c-0.84-2.17-1.72-4.33-2.43-6.55c-1.03-3.22,0.71-6.88,3.75-8.25c0.6-0.27,1.04-0.17,1.31,0.33
			C133.06,523.78,139.67,526.75,147.31,528.43z"/>
		<path class="st66" d="M146.1,443.42c-1.17,0.15-1.34-0.47-1.67-1.13c-1.12-2.25-2.83-2.39-4.21-0.31
			c-0.58,0.88-1.07,1.36-2.03,0.74c-0.97-0.63-0.75-1.52-0.21-2.25c2.01-2.69,4.07-5.35,6.13-8c1.43-1.84,2.99-3.57,3.99-5.71
			c0.65-1.39,1.54-1.5,2.59-0.39c1,1.05,2.22,1.94,2.49,3.52c0.24,1.44,1.39,1.81,2.58,2.2c1.1,0.36,2.07,1.22,1.23,2.3
			c-2.81,3.58-5.55,7.31-10.16,8.85C146.51,443.34,146.16,443.41,146.1,443.42z"/>
		<path class="st67" d="M178.8,660.28c-1.92-3.17-3.39-5.65-1.52-8.89c0.97-1.68,1.34-3.73,1.84-5.64c0.35-1.35,0.7-2.22,2.28-2.93
			c2.21-1,0.37-2.84-0.49-3.66c-0.99-0.95-1.35-1.83-1.4-3.08c-0.23-5.92-3.55-10.74-5.73-15.96c-0.09-0.23-0.32-0.59-0.45-0.58
			c-3.4,0.37-6.4-3.35-9.99-0.96c-0.59,0.39-1.28,0.35-1.63-0.2c-1.23-1.99-1.97-4.2-2.46-6.46c-0.15-0.67,0.57-0.92,1.2-1.11
			c2.73-0.81,5.39-1.97,8.17-2.41c3.2-0.5,5.93-2.01,8.84-3.15c1.3-0.51,2.11-0.23,3.09,0.88c8.1,9.12,8.33,19.38,4.75,30.32
			c-1.26,3.85-2.32,7.77-3.43,11.66c-0.47,1.65-0.69,3.32-2.43,4.35c-0.95,0.56-1.15,1.86-0.41,2.77
			C180.32,656.83,179.5,658.2,178.8,660.28z"/>
		<path class="st58" d="M409.82,582.7c-0.83-2.46,0.1-3.97,2.58-3.73c1.26,0.12,1.37-0.17,1.1-1.14c-0.47-1.66-0.99-3.26-2.45-4.44
			c-4.83-3.93-6.79-9.21-6.81-15.29c-0.01-3.54-0.19-7.1,0.79-10.56c0.37-1.31,0-1.9-1.37-2.1c-2.14-0.32-4.21-0.95-6.12-2.01
			c-3.67-2.04-5.17-5.9-3.55-9.15c1.59-3.2,4.97-4.22,8.92-2.47c5.18,2.3,9.37,0.55,13.29-2.85c0.62-0.54,1.04-1.42,2.05-1.42
			c-3.82,5.44-9.55,7.27-15.54,4.96c-3.77-1.46-6.63-0.66-7.99,2.24c-1.41,2.99-0.01,6.36,3.45,8.16c1.61,0.84,3.32,1.56,5.14,1.66
			c2.31,0.13,2.84,1.03,2.45,3.32c-0.82,4.84-1.36,9.76-0.32,14.66c0.73,3.43,2,6.69,4.73,9c2.36,1.99,3.67,4.39,4.44,7.34
			c2.69,10.17,2.39,20.28-0.34,30.37c-0.18,0.65-0.1,1.94-1.18,1.59c-1.11-0.36-0.25-1.28,0-1.94c0.38-1,0.55-1.98,0-2.97
			c0.63-0.06,1.33,0.23,1.49-0.87c0.98-7,1.98-14,0.22-21.03c-0.16-0.62,0.02-1.57-1.13-0.88c-0.1-0.08-0.19-0.15-0.29-0.23
			c-0.09-0.14-0.16-0.3-0.22-0.45c-0.28-0.73-0.07-1.87-1.22-1.95c-1.11-0.07-1.18,1.02-1.56,1.73
			C410.24,582.47,410.06,582.62,409.82,582.7z"/>
		<path class="st29" d="M215.51,632.85c0.78,0.52,0.83,1.29,0.59,2.06c-1.46,4.62,1.24,8.72,1.64,13.1c0.07,0.8,0.65,0.72,1.36,0.47
			c5.92-2.15,9.75-5.99,10.3-12.75c-1.55,0.68-3.32,1.73-4.4-0.61c-0.51-1.09-0.15-2.1,0.79-2.74c1.74-1.18,2.82,0.09,4.2,1.71
			c0-4.43,0-8.37,0-12.8c-1.46,1.67-2.85,3.07-4.6,1.25c-0.96-1-0.89-2.33,0.23-3.21c1.75-1.38,2.99-0.2,4.58,1.03
			c-0.55-3.08-1.08-6.16-1.66-9.23c-0.19-1.02-1.14-0.8-1.85-1.04c-1.63-0.55-2.52-1.52-1.4-3.29c0.61,0.43,0.05,1.26,0.58,1.71
			c0.15,0.21,0.3,0.6,0.45,0.6c3.12-0.03,3.2,2.3,3.62,4.48c1.43,7.42,1.76,14.88,0.54,22.32c-0.45,2.74-1.41,5.48-3.04,7.87
			c-1.25,1.83-2.84,3.27-4.95,3.98c-1.25,0.42-2.38,0.94-3.31,1.92c-1.02,1.08-1.78,0.92-2.11-0.59c-0.83-3.77-1.63-7.55-2.48-11.31
			C214.18,635.98,216.07,634.65,215.51,632.85z"/>
		<path class="st38" d="M182.76,586.8c1.56,0.57,0.38,1.92,0.74,2.99c3.57-1.04,6.88-2.29,9.71-4.61c-0.4,1.88-2.07,2.46-3.5,3.04
			c-3.9,1.59-7.78,3.67-11.86,4.3c-5.66,0.88-10.17,4.42-15.64,5.6c-5.6,1.21-11.14,3.17-16.91,2.48c-2.92-0.35-5.88-0.66-8.79-1.13
			c-3.61-0.57-5.83-3.24-6.48-7.14c-0.38-2.27,0.2-4.47,0.78-6.6c0.39-1.42,1.46-2.63,3.24-2.39c1.05,0.14,1.82-0.36,2.67-0.74
			c-0.29,1.45-1.43,1.53-2.55,1.52c-0.72-0.01-1.33,0.09-1.89,0.6c-1.31,1.2-2.02,7.98-0.91,9.36c0.38,0.47,0.76-0.09,1.15-0.12
			c0.96,1.2,2.22,1.97,3.6,2.58c-0.43,0.89-1.33,0.61-2.21,0.89c1.75,1.5,3.79,1.98,5.76,1.51c1.53-0.36,2.53,0,3.82,0.64
			c2.06,1.02,4.54,0.89,6.58,0.33c3.05-0.83,6.15-1.13,9.21-1.74c1.06-0.21,1.38-0.57,0.64-1.47c1.23-0.93,2.53-1.77,3.21-3.24
			c1.43,1.09,0.21,2.13-0.12,3.53c3.39-1.42,7.11-1.55,9.74-4.38c0.46-0.49,1.21-0.9,1.88-0.61c2.03,0.87,3.59-0.39,5.67-0.94
			c-1.6-1.5-3.08-2.96-1.18-4.85c0.93-0.93,2.12-1.55,3.13,0.05c-0.6,0.77-2.19,0.42-2.18,1.87c0,0.48,0.35,0.83,0.83,0.84
			C182.34,588.99,181.99,587.4,182.76,586.8z"/>
		<path class="st68" d="M147.14,498.6c2.56-1.61,4.77-3.65,6.91-5.77c0.47-0.47,0.86-1.19,1.68-0.95c0.25,0.07,0.56,0.5,0.56,0.76
			c-0.02,1.08-0.97,0.73-1.55,0.88c-1.63,0.43-1.73,1.71-1.27,2.85c0.71,1.73,2.03,1.92,3.5,0.73c0.27-0.74,0.79-1.02,1.32-0.37
			c0.71,0.86,1.36,1.86,0.62,3.04c-0.56,0.9-1.45,1.45-2.34,1.98c-1.92,1.12-3.74,2.49-6.03,2.72c-0.81,0.08-1.81,0.32-2.36-0.59
			c-0.53-0.88,0.3-1.4,0.69-2.02c0.13-0.21,0.27-0.43,0.06-0.74c-0.98-0.29-1.47,0.6-2.17,1.02c-0.74,0.44-1.5,0.64-2.01-0.23
			c-0.44-0.75-0.34-1.52,0.47-2.01C145.88,499.49,146.38,498.85,147.14,498.6z"/>
		<path class="st69" d="M197.25,669.64c1.18-2.28,1.64-4.72,1.47-7.25c-0.13-1.92,0.19-3.61,1.78-4.87c0.6-0.48,0.73-1.11,0.57-1.86
			c-1.63-7.6-3.25-15.2-4.88-22.79c-0.06-0.3-0.32-0.56-0.65-1.13c-1.32,4.23-2.6,8.14-3.75,12.1c-0.91,3.15-1.68,6.34-2.45,9.53
			c-0.54,2.2-1.49,4.4,0.28,6.59c0.61,0.76,0.33,1.83-0.54,2.53c-0.26,0.23-0.47,0.2-0.63-0.11c0.71-0.8,1.02-2.02,0.4-2.62
			c-2.13-2.05-0.89-4.21-0.36-6.24c1.82-6.83,3.75-13.64,5.79-20.41c0.46-1.52-0.02-3.29,1.14-4.66c1.24,0.63,1.04,1.86,1.24,2.78
			c1.75,8,3.15,16.08,5.22,24.01c0.24,0.91,0.46,2.05-0.44,2.66c-1.97,1.34-2.02,3.27-1.95,5.29c0.06,1.66-0.19,3.29-0.69,4.85
			C198.58,668.76,198.6,669.93,197.25,669.64z"/>
		<path class="st70" d="M219.11,586.18c0.03-0.08,0.05-0.23,0.08-0.24c3.47-0.35,2.32-2.62,1.93-4.6
			c-2.08-10.77-5.54-21.16-8.54-31.68c-0.39-1.36-0.8-1.46-1.85-0.52c-3.56,3.16-7.42,5.5-12.5,5.24c-1.98-0.1-1.48,2.18-2.1,3.37
			c-0.63,1.19,0.37,1.39,1.21,1.7c1.27,0.47,2.65,0.84,3.11,2.38c-1.55-0.48-2.74-1.77-4.43-1.95c-0.46-0.05-0.74-0.35-0.87-0.82
			c-0.58-2.01,1.86-5.51,3.88-5.47c4.44,0.08,7.95-2.01,11.09-4.85c2.31-2.09,2.24-2.11,3.13,0.72c3.62,11.61,6.91,23.3,9.48,35.19
			c0.39,0.71,0.62,1.68-0.09,2.05C221.48,587.28,220.18,587.12,219.11,586.18z"/>
		<path class="st3" d="M252.83,424.36c-0.19-0.27-0.6-0.6-0.55-0.8c0.71-2.52-0.92-3.26-2.81-3.94c-4.12-1.48-8.22-3.02-12.51-4.61
			c-0.04,1.55,0.07,3.14-1.78,3.59c-1.03,0.25-1.9-0.09-2.45-0.99c-0.95-1.52,0.02-2.57,1.52-4.04c-6.41-1.35-11.6-4.74-17.37-6.8
			c3.61,0.37,6.97,1.33,9.72,3.88c0.3,0.28,0.69,0.63,1.05,0.65c7.05,0.42,12.7,4.83,19.23,6.71c0.57,0.17,1.11,0.45,1.69,0.61
			C253.15,419.88,253.15,419.88,252.83,424.36z"/>
		<path class="st66" d="M49.38,517.96c-0.07,2.54-4.52,7.8-6.6,8.15c-1.22,0.2-1.02-0.67-0.89-1.3c0.39-1.89,1.47-3.47,2.43-5.11
			c0.52-0.89,1.01-1.81,1.59-2.66c0.61-0.88,0.83-2.8,1.79-2.51C49.17,514.97,49.12,516.88,49.38,517.96z"/>
		<path class="st71" d="M50.05,531.21c-0.69,0.68-0.57,1.39-0.08,2.11c-1.55,0.52-2.31,1.83-3.06,3.13c-0.49-2.18-1.61-2.04-3.1-0.9
			c-0.61,0.46-1.38,0.71-2.04,1.1c-0.81,0.48-1.25,1.21-1.09,2.16c0.21,1.25,1.08,0.31,1.62,0.45c0.98,0.25,2.08,0.39,2.08,1.79
			c-0.51,0.33-0.97,0.01-1.46-0.08c-0.77-0.14-1.73-0.31-1.73,0.79c0,0.96,0.87,1.12,1.72,0.95c0.48-0.09,0.95-0.4,1.46-0.08
			c-0.18,1.65-1.47,2-2.59,1.57c-1.91-0.73-1.97,0.28-2.08,1.63c-0.22,2.62-0.51,5.23-0.81,8.32c1.81-1.15,3.34-1.78,4.97-2.23
			c1.63-0.45,3.63-0.99,2.57-3.63c-0.21-0.52,0.19-1.35,1.02-1.56c-0.1,0.5-0.43,1.09-0.28,1.49c1.27,3.27-1.27,3.71-3.29,4.5
			c-0.96,0.37-1.99,0.56-2.94,0.94c-0.81,0.33-1.39,1.68-2.41,0.87c-0.81-0.65-0.37-1.81-0.27-2.72c0.47-4.28,1.01-8.55,1.52-12.83
			c0.15-1.24,0.45-2.41,1.71-2.99c2.83-1.31,5.34-3.14,7.92-4.86C49.64,530.98,49.85,531.01,50.05,531.21z"/>
		<path class="st4" d="M219.11,586.18c0.65,0.01,1.36-0.15,1.95,0.05c1.66,0.54,1.78-0.36,1.67-1.59c1.42,1.76,1.41,4.03,1.87,6.05
			c1,4.49,2.95,8.73,3.42,13.35c0.12,1.19,0.57,2.22-1.17,2.43c-1.29,0.16-0.88,1.24-0.98,2.04c-0.63-0.42-0.48-1.11-0.58-1.71
			c3.06-2.15,1.51-4.96,0.92-7.49c-0.81-3.47-1.96-6.85-3.04-10.52c-1.41,1.36-2.82,2.36-4.33,0.8
			C217.78,588.5,218.02,587.24,219.11,586.18z"/>
		<path class="st72" d="M136.64,567.04c0.64,0.23,1.24,0.5,1.98,0.29c4.87-1.39,9.88-1.97,15.18-2.49
			c-0.82-1.61-3.21-2.71-1.08-4.61c0.65,1.47,1.74,2.5,3.18,3.18c-0.03,0.5-1.02,1.41,0.52,1.24c2.65-0.3,5.3-0.63,7.95-0.91
			c1.17-0.12,0.94-0.74,0.86-1.62c-0.23-2.43,1.42-3.47,3.63-2.43c-2.11,0.07-3.64,0.54-2.69,3.24c0.51,1.46-0.72,1.36-1.65,1.57
			c-4.74,1.03-9.6,1.02-14.4,1.48c-3.71,0.36-7.29,1.21-10.92,1.94C138.21,568.13,136.92,568.97,136.64,567.04z"/>
		<path class="st73" d="M147.14,498.6c-0.39,0.95-1.47,1.16-2.04,1.91c-0.46,0.61-0.29,1.15,0.26,1.56
			c0.54,0.41,0.96,0.13,1.22-0.41c0.3-0.63,0.6-1.24,1.32-1.51c0.96-0.36,1.98-0.42,2.55,0.5c0.58,0.94-0.43,1.28-1.03,1.72
			c-0.47,0.34-1.08,0.56-1.1,1.34c0.88,0.8,1.95,0.6,2.89,0.32c2.59-0.78,4.81-2.27,6.96-3.86c0.84-0.62,0.84-1.37,0.47-2.29
			c-0.34-0.85-0.74-1.33-1.68-0.79c-0.09-0.67,0.08-1.28,0.76-1.45c0.66-0.17,0.79,0.51,1.05,0.93c1.2,1.92,1.07,3.6-0.99,4.83
			c-1.7,1.01-3.39,2.05-5.18,2.89c-2.64,1.24-6.12,0.38-8.03-1.81C143.18,500.88,143.97,499.69,147.14,498.6z"/>
		<path class="st74" d="M50.05,531.21c-0.21-0.02-0.43-0.05-0.64-0.07c1.38-1.29,2.93-2.46,4.13-3.91
			c4.94-5.97,4.95-11.58,0.22-18.48c-0.42-0.61-1.23-1.03-1.06-1.97c4.9,3.94,6.75,11.48,3.91,17.02c-0.92,1.81-0.85,2.71,1.08,3.31
			c0.49,1.59,0.55,3.07-1.33,3.78c-1.22,0.47-2.32,0.36-2.74-1.19c0.59-0.54,1.33-0.13,1.98-0.33c0.43-0.14,0.89-0.39,0.69-0.89
			c-0.22-0.54-0.73-0.34-1.08-0.09c-0.55,0.4-1.02,0.92-1.59,1.31C51.79,528.67,51.35,530.98,50.05,531.21z"/>
		<path class="st75" d="M172.02,575.36c-4.19,1.47-8.6,1.92-12.94,2.26c-6.69,0.53-13.34,1.13-19.85,2.85
			c2.54-2.09,5.71-2.09,8.72-2.54c7.41-1.09,14.94-1.26,22.32-2.68C170.86,575.01,171.46,574.9,172.02,575.36z"/>
		<path class="st76" d="M165.12,628.85c0.64-0.43,0.83,0.08,1.12,0.09c4.55,0.05,4.84,3.51,5.3,6.73c0.27,1.87,0.31,3.78,0.41,5.67
			c0.03,0.61-0.02,1.39-0.69,1.53c-0.81,0.18-0.81-0.68-1.02-1.21c-1.37-3.36-2.77-6.7-4.14-10.06
			C165.72,630.68,165.42,629.72,165.12,628.85z"/>
		<path class="st44" d="M394.44,580.99c1.84,1.77,1.64-0.71,2.42-1.16c0.23,0.09,0.41,0.24,0.52,0.47c0.16,1.76,1.08,2.47,2.82,2.04
			c0.25,0.02,0.45,0.15,0.58,0.36c-0.71,1.62-2.11,1.38-3.92,1.13c4.61,4.89,7.16,10.63,10.52,15.86c-1.29-0.52-1.94-1.7-2.54-2.8
			c-2.75-5.01-5.86-9.76-9.58-14.1C394.83,582.29,394.25,581.79,394.44,580.99z"/>
		<path class="st8" d="M231.58,682.22c0.29-0.31,0.09-0.61,0-0.93c-0.38-1.33-0.02-2.35,1.3-2.92c0.99-0.44,1.91-0.15,2.54,0.6
			c0.88,1.05,0.81,2.19-0.17,3.21c-0.28,0.29-0.73,0.48-0.52,1.02C233.66,682.9,232.51,682.9,231.58,682.22z"/>
		<path class="st38" d="M193.2,585.17c0.5-2.61,0.61-5.24,0.67-7.9c0.07-3.25-1.42-5.73-3.48-8.02c-0.6-0.67-1.1-0.64-1.74-0.09
			c-0.49,0.42-0.86,1.12-1.7,0.95c2.45-3.08,2.44-3,4.85-0.24c3.9,4.47,2.92,9.56,2.1,14.65
			C193.87,584.77,193.45,584.96,193.2,585.17z"/>
		<path class="st38" d="M172.02,575.36c-0.58-0.04-1.17-0.07-1.75-0.11c2.31-0.54,4.61-1.14,6.93-1.61
			c3.44-0.69,6.57-2.19,9.77-3.53c-1.02,1.68-2.82,2.16-4.47,2.72C179.08,573.99,175.62,574.97,172.02,575.36z"/>
		<path class="st72" d="M168.86,559.7c0.51-0.08,0.92,0.2,0.99,0.61c0.46,2.68,2.16,2.15,3.98,1.7c2.06-0.51,4.02-1.22,5.85-2.3
			c-2.27,3.36-6.11,2.78-9.35,3.65c-0.74,0.2-0.92-0.6-0.87-1.23C169.54,561.24,169.24,560.47,168.86,559.7z"/>
		<path class="st77" d="M118.05,593.93c-1.28-4.51-0.74-8.82,1.45-12.95C118.37,585.22,117.81,589.53,118.05,593.93z"/>
		<path class="st78" d="M459.26,435.66c0.77-1.57,1.01-3.12,2.75-3.27c0.54-0.05,1.13,0.76,0.9,1.32
			C462.32,435.14,460.95,435.33,459.26,435.66z"/>
		<path class="st79" d="M190.44,605.28c-1.34-1.46-2.75-2.07-2.4-3.7c0.11-0.51,0.85-0.65,1.31-0.44
			C190.97,601.89,190.48,603.3,190.44,605.28z"/>
		<path class="st80" d="M191.09,666.63c2.09-1.88,2.38-0.22,2.7,1.38C192.89,667.55,191.99,667.09,191.09,666.63z"/>
		<path class="st81" d="M188.46,662.38c0.21,0.04,0.42,0.07,0.63,0.11c-0.57,0.79-2.05,1.02-1.53,2.49
			C185.44,663.27,187.25,662.93,188.46,662.38z"/>
		<path class="st8" d="M332.14,408.25c1.18,0.27,2.98-0.59,3.07,1.64c0.04,0.91-0.51,1.45-1.42,1.42c-2.24-0.09-1.38-1.89-1.63-3.07
			L332.14,408.25z"/>
		<path class="st5" d="M312.51,206.95c-0.01-0.51-0.07-1.02-0.03-1.52c0.09-1.04,0.19-2.14,1.63-2.11c1.19,0.02,1.62,0.82,1.61,1.88
			c-0.02,1.23-0.67,1.88-1.93,1.84C313.37,207.01,312.94,206.98,312.51,206.95C312.52,206.96,312.51,206.95,312.51,206.95z"/>
		<path class="st14" d="M394.51,627.53c-0.12,1.41-0.82,2.36-2.19,2.47c-1.52,0.12-2.48-0.78-2.56-2.26
			c-0.07-1.36,0.76-2.32,2.14-2.43C393.43,625.17,394.22,626.13,394.51,627.53z"/>
		<path class="st5" d="M387.81,660.61c-0.12,1.35-0.8,2.3-2.23,2.34c-1.4,0.04-2.32-0.8-2.37-2.2c-0.06-1.42,0.83-2.3,2.21-2.37
			C386.82,658.31,387.63,659.17,387.81,660.61z"/>
		<path class="st4" d="M394.43,640.77c-0.17,1.47-0.91,2.38-2.32,2.38c-1.4,0-2.27-0.89-2.28-2.29c-0.01-1.42,0.9-2.27,2.28-2.28
			C393.52,638.56,394.26,639.47,394.43,640.77z"/>
		<path class="st29" d="M401.04,634.24c-0.1,1.39-0.9,2.25-2.28,2.3c-1.42,0.06-2.31-0.82-2.34-2.23c-0.03-1.4,0.8-2.32,2.23-2.35
			C400.06,631.94,400.85,632.8,401.04,634.24z"/>
		<path class="st5" d="M394.43,614.34c-0.1,1.37-0.77,2.32-2.2,2.4c-1.42,0.07-2.33-0.77-2.41-2.16c-0.08-1.4,0.76-2.32,2.16-2.4
			C393.41,612.08,394.19,612.95,394.43,614.34z"/>
		<path class="st82" d="M229.43,673.85c-0.12,1.37-0.87,2.27-2.27,2.3c-1.39,0.03-2.29-0.84-2.32-2.24
			c-0.03-1.39,0.82-2.3,2.23-2.32C228.47,671.57,229.25,672.43,229.43,673.85z"/>
		<path class="st83" d="M236.04,667.17c-0.11,1.48-0.9,2.36-2.26,2.39c-1.5,0.03-2.41-0.9-2.35-2.42c0.05-1.38,0.96-2.21,2.34-2.18
			C235.15,665,235.88,665.89,236.04,667.17z"/>
		<path class="st3" d="M401.02,621.04c-0.19,1.46-0.97,2.31-2.37,2.28c-1.41-0.03-2.23-0.93-2.2-2.33c0.03-1.41,0.93-2.24,2.32-2.2
			C400.17,618.83,400.91,619.71,401.02,621.04z"/>
		<path class="st8" d="M387.81,647.44c-0.15,1.44-0.92,2.31-2.32,2.3c-1.4-0.01-2.26-0.9-2.25-2.29c0-1.41,0.89-2.25,2.29-2.24
			C386.93,645.21,387.67,646.09,387.81,647.44z"/>
		<path class="st8" d="M381.21,667.14c-0.1,1.51-0.89,2.36-2.26,2.39c-1.37,0.03-2.25-0.75-2.21-2.22c0.04-1.38,0.72-2.32,2.17-2.31
			C380.3,665.01,381.06,665.86,381.21,667.14z"/>
		<path class="st29" d="M387.83,634.23c-0.13,1.24-0.71,2.12-2.01,2.27c-0.78,0.1-1.21-0.57-0.95-1.12c0.5-1.05-0.12-2.87,1.62-3.04
			C387.47,632.25,387.69,633.38,387.83,634.23z"/>
		<path class="st84" d="M239.59,676.29c-1.17-0.35-1.81-1.22-1.87-2.43c-0.04-0.72,0.37-1.63,1.1-1.41
			c1.29,0.39,1.34,1.83,1.67,2.92C240.65,675.89,240.37,676.39,239.59,676.29z"/>
		<path class="st85" d="M381.45,654.22c-0.27,0.83-0.42,1.78-1.53,1.81c-0.61,0.02-0.64-0.6-0.5-0.95c0.32-0.8-0.09-2.11,1.17-2.25
			C381.16,652.76,381.43,653.58,381.45,654.22z"/>
		<path class="st2" d="M302.75,453.83c-9.94,0.05-19.86-0.1-29.61-2.34c-0.59-0.14-1.18-0.26-1.75-0.46
			c-3.62-1.32-5.41-4.16-4.64-7.33c0.72-2.99,3.95-5.04,7.57-4.32c15.65,3.09,31.45,2.08,47.23,1.89c1.11-0.01,2.26,0.06,3.32,0.35
			c2.47,0.68,4.05,2.3,4.33,4.91c0.3,2.72-0.96,4.69-3.33,5.9c-2.45,1.25-5.16,1.35-7.84,1.39
			C312.94,453.88,307.84,453.83,302.75,453.83z"/>
		<path class="st13" d="M309.67,436.14c-0.1,1.33-0.81,2.3-2.18,2.43c-1.52,0.14-2.51-0.77-2.61-2.26
			c-0.09-1.38,0.77-2.36,2.14-2.48C308.52,433.71,309.41,434.6,309.67,436.14z"/>
		<path class="st17" d="M320.35,438.6c-1.37-0.24-2.28-1-2.26-2.39c0.03-1.5,0.97-2.45,2.47-2.37c1.5,0.08,2.37,1.12,2.24,2.6
			C322.69,437.81,321.71,438.51,320.35,438.6z"/>
		<path class="st14" d="M197.45,403.21c-0.23,1.48-1.02,2.43-2.55,2.35c-1.38-0.07-2.24-1.01-2.21-2.37c0.03-1.5,0.98-2.39,2.5-2.31
			C196.56,400.94,197.31,401.84,197.45,403.21z"/>
		<path class="st21" d="M294.15,433.77c1.51,0.28,2.42,1.18,2.28,2.68c-0.13,1.35-1.09,2.22-2.49,2.13
			c-1.37-0.08-2.28-0.97-2.26-2.37C291.7,434.7,292.67,433.91,294.15,433.77z"/>
		<path class="st14" d="M342.66,429.63c-0.3,1.53-1.12,2.46-2.65,2.32c-1.38-0.13-2.2-1.09-2.12-2.46c0.09-1.49,1.07-2.37,2.59-2.23
			C341.87,427.38,342.53,428.36,342.66,429.63z"/>
		<path class="st4" d="M221.47,418.73c-1.37-0.17-2.31-0.88-2.3-2.31c0-1.4,0.88-2.3,2.27-2.31c1.4-0.01,2.28,0.88,2.3,2.28
			C223.77,417.82,222.84,418.54,221.47,418.73z"/>
		<path class="st4" d="M366.72,414.09c1.41,0.18,2.25,0.99,2.21,2.39c-0.03,1.42-0.97,2.25-2.36,2.2c-1.39-0.04-2.27-0.92-2.21-2.34
			C364.42,414.93,365.32,414.19,366.72,414.09z"/>
		<path class="st5" d="M243.58,422.81c-0.12,1.47-0.81,2.42-2.23,2.47c-1.4,0.05-2.33-0.78-2.4-2.18c-0.07-1.41,0.79-2.3,2.19-2.38
			C242.59,420.63,243.32,421.55,243.58,422.81z"/>
		<path class="st5" d="M349.19,423c-0.21,1.48-1.02,2.32-2.42,2.28c-1.41-0.04-2.25-0.97-2.2-2.35c0.05-1.38,0.96-2.25,2.37-2.2
			C348.33,420.78,349.08,421.68,349.19,423z"/>
		<path class="st5" d="M280.93,438.4c-1.4-0.04-2.33-0.69-2.36-2.14c-0.03-1.41,0.83-2.29,2.21-2.33c1.38-0.05,2.31,0.79,2.36,2.19
			C283.18,437.5,282.41,438.35,280.93,438.4z"/>
		<path class="st8" d="M329.36,429.62c-0.2,1.49-1.03,2.32-2.41,2.25c-1.38-0.06-2.22-0.95-2.16-2.37c0.07-1.41,0.97-2.21,2.36-2.16
			C328.57,427.4,329.25,428.33,329.36,429.62z"/>
		<path class="st86" d="M399.6,398.92c-1.36-0.15-2.27-0.94-2.23-2.33c0.04-1.32,0.8-2.33,2.28-2.29c1.4,0.04,2.31,0.9,2.3,2.3
			C401.94,398,401.05,398.78,399.6,398.92z"/>
		<path class="st87" d="M230.55,423.02c-0.25,1.1-0.75,2.01-2.06,1.67c-1.15-0.3-2.85-0.18-2.82-1.97c0.02-1.34,1.03-2.18,2.4-2.15
			C229.55,420.6,230.33,421.57,230.55,423.02z"/>
		<path class="st5" d="M203.98,409.84c-0.17,1.35-0.9,2.25-2.32,2.24c-1.41-0.01-2.29-0.86-2.28-2.28c0-1.41,0.87-2.29,2.28-2.29
			C203.07,407.5,203.81,408.41,203.98,409.84z"/>
		<path class="st8" d="M261.3,431.85c-1.58-0.1-2.5-0.8-2.52-2.21c-0.02-1.39,0.83-2.27,2.22-2.3c1.39-0.03,2.27,0.8,2.31,2.2
			C263.36,430.96,262.5,431.7,261.3,431.85z"/>
		<path class="st88" d="M208.57,418.4c-1.16-0.25-2.48-0.64-2.57-2.2c-0.08-1.3,0.91-2.06,2.12-2.1c1.5-0.06,2.44,0.85,2.45,2.35
			C210.58,417.54,210.05,418.43,208.57,418.4z"/>
		<path class="st8" d="M214.94,412.09c-1.48-0.11-2.35-0.89-2.36-2.27c-0.01-1.38,0.84-2.27,2.25-2.26
			c1.38,0.01,2.27,0.85,2.28,2.25C217.13,411.21,216.24,411.94,214.94,412.09z"/>
		<path class="st7" d="M393.1,400.89c1.3,0.19,2.29,0.84,2.15,2.16c-0.16,1.47-1.34,2.19-2.75,2.19c-1.31,0-1.76-1.05-1.73-2.14
			C390.82,401.69,391.76,400.99,393.1,400.89z"/>
		<path class="st4" d="M359.56,424.87c-1.41,0.08-1.78-0.87-1.8-1.81c-0.03-1.39,0.84-2.28,2.23-2.33c1.26-0.05,2.28,0.64,2.24,1.95
			C362.18,424.31,360.62,424.44,359.56,424.87z"/>
		<path class="st85" d="M388.32,408.74c-0.85,1.06-1.81,2.25-3.24,2.53c-0.84,0.17-1.23-0.88-1.1-1.67
			c0.24-1.43,1.14-2.32,2.64-2.27C387.35,407.36,388.16,407.62,388.32,408.74z"/>
		<path class="st89" d="M267.68,433.55c1.14,0.16,2.1,0.66,2.33,1.94c0.11,0.65-0.45,0.99-0.97,0.79c-1.04-0.41-2.56-0.29-2.88-1.66
			C266.01,433.95,266.92,433.62,267.68,433.55z"/>
		<path class="st40" d="M331.68,434.74c0.91-0.95,1.96-1.1,3.14-0.58c0.48,0.47,1.13,1.03,0.36,1.64c-0.91,0.73-2.12,1.34-3.21,1.06
			C330.99,436.62,331.33,435.53,331.68,434.74z"/>
		<path class="st90" d="M380.87,414.48c-0.38,1.27-1.66,1.42-2.72,1.85c-0.5,0.2-0.89-0.15-0.8-0.63c0.25-1.33,1.22-1.98,2.48-2.18
			C380.4,413.43,380.82,413.71,380.87,414.48z"/>
		<path class="st91" d="M250.03,428.78c0.05,0.82-0.59,0.92-1.02,0.75c-0.97-0.38-2.46,0.02-2.78-1.31
			c-0.18-0.74,0.82-1.04,1.49-1.04C248.82,427.18,249.72,427.63,250.03,428.78z"/>
		<path class="st52" d="M331.68,434.74c0.27,0.72-0.52,2.41,1.41,1.64c0.96-0.38,2.93-0.1,1.73-2.21c1.33,0.28,1.49,1.26,0.68,1.96
			c-0.93,0.8-2.31,1.42-3.51,1.11C330.38,436.82,330.8,435.7,331.68,434.74z"/>
		<path d="M492.58,372.42c2.63-0.06,4.84,1.09,6.99,2.42c7.92,4.89,14.2,11.29,18.86,19.43c4.09,7.15,6.55,14.8,8.12,22.77
			c0.93,4.7-1.85,9.19-6.14,10.83c-4.16,1.59-8.92,0.02-11.63-3.87c-1.45-2.08-2.34-4.42-2.89-6.88
			c-2.42-10.82-7.69-19.7-17.31-25.68c-2-1.24-3.63-2.91-4.69-5.08C480.72,379.88,485.37,372.39,492.58,372.42z"/>
		<path class="st91" d="M405.37,590.48c-1.47-0.14-2.44-0.95-2.48-2.42c-0.04-1.36,0.86-2.3,2.2-2.41c1.48-0.12,2.51,0.77,2.61,2.24
			C407.81,589.4,406.84,590.22,405.37,590.48z"/>
		<path class="st92" d="M414.26,594.65c-0.18,1.43-0.93,2.34-2.31,2.34c-1.49,0-2.43-0.93-2.39-2.42c0.04-1.49,1.05-2.35,2.54-2.25
			C413.47,592.41,414.17,593.35,414.26,594.65z"/>
		<path class="st93" d="M407.69,574.86c-0.25,1.56-1.12,2.41-2.62,2.3c-0.82-0.06-2.03-0.5-1.64-1.48c0.46-1.14,0.66-2.88,2.33-3
			C407.13,572.59,407.52,573.77,407.69,574.86z"/>
		<path class="st45" d="M399.11,569.6c-0.01,0.75-0.3,1.17-0.92,1.07c-1.37-0.23-2.02-1.19-2.1-2.49c-0.04-0.74,0.53-1.55,1.2-1.3
			C398.47,567.32,398.72,568.64,399.11,569.6z"/>
		<path class="st44" d="M396.86,579.83c0.98-1.22,2.18-1.33,3.33-0.42c1.08,0.85,1.63,1.97,0.59,3.29c-0.1-0.08-0.2-0.17-0.3-0.25
			c-0.47-1.7-1.7-2.31-3.34-2.34C397.04,580.01,396.95,579.92,396.86,579.83z"/>
		<path class="st58" d="M413.66,583.15c-1.47,1.44-2.74,1.25-3.84-0.45c0.1-0.08,0.2-0.17,0.31-0.25c1.13-0.16,2.24-0.1,3.28,0.44
			C413.48,582.97,413.57,583.06,413.66,583.15z"/>
		<path class="st91" d="M441.7,528.71c-0.28,1.47-1.11,2.4-2.61,2.31c-1.36-0.09-2.23-1.01-2.23-2.37c0.01-1.5,0.97-2.45,2.44-2.43
			C440.76,526.25,441.56,527.25,441.7,528.71z"/>
		<path class="st94" d="M453.92,555.03c-0.16,1.35-0.9,2.31-2.27,2.37c-1.5,0.07-2.48-0.85-2.52-2.35
			c-0.04-1.39,0.88-2.31,2.23-2.39C452.86,552.59,453.71,553.52,453.92,555.03z"/>
		<path class="st21" d="M451.48,544.25c-1.4-0.19-2.33-0.97-2.36-2.34c-0.02-1.5,0.92-2.47,2.44-2.45c1.38,0.02,2.31,0.92,2.34,2.29
			C453.93,543.27,452.94,544.07,451.48,544.25z"/>
		<path class="st23" d="M460.48,561.75c-0.22,1.34-0.97,2.24-2.39,2.22c-1.4-0.02-2.31-0.9-2.32-2.29
			c-0.01-1.53,0.97-2.44,2.49-2.38C459.64,559.37,460.37,560.32,460.48,561.75z"/>
		<path class="st93" d="M447.28,535.22c-0.1,1.3-0.81,2.22-2.21,2.33c-1.42,0.11-2.36-0.71-2.48-2.08
			c-0.13-1.51,0.76-2.51,2.28-2.56C446.26,532.86,447.06,533.75,447.28,535.22z"/>
		<path class="st4" d="M440.63,541.89c-0.23,1.39-0.98,2.29-2.41,2.22c-1.4-0.06-2.26-0.96-2.21-2.36c0.05-1.4,0.97-2.23,2.37-2.2
			C439.82,539.59,440.5,540.54,440.63,541.89z"/>
		<path class="st25" d="M445.74,524.4c-1.39-0.24-2.25-1.03-2.21-2.43c0.04-1.4,0.92-2.28,2.32-2.25c1.5,0.03,2.42,0.96,2.32,2.5
			C448.07,523.63,447.09,524.29,445.74,524.4z"/>
		<path class="st4" d="M447.23,548.36c-0.14,1.43-0.89,2.34-2.3,2.36c-1.41,0.02-2.28-0.87-2.31-2.26
			c-0.03-1.41,0.85-2.28,2.25-2.31C446.28,546.13,447.05,547.01,447.23,548.36z"/>
		<path class="st28" d="M465.92,568.29c0.01,1.09-0.06,2.24-1.52,2.18c-1.32-0.06-2.01-1.04-1.99-2.28
			c0.02-1.25,0.75-2.21,2.08-2.19C465.94,566.02,465.87,567.25,465.92,568.29z"/>
		<path class="st23" d="M458.72,549.77c-0.06,0.72-0.33,1.1-0.99,0.97c-1.38-0.28-2.04-1.22-1.97-2.56c0.03-0.64,0.36-1.67,1.1-1.43
			C458.23,547.19,458.12,548.8,458.72,549.77z"/>
		<path class="st95" d="M451.03,527.11c0.98,0.69,0.9,1.91,1.2,2.92c0.18,0.6-0.23,1.01-0.88,0.86c-1.2-0.27-1.64-1.23-1.72-2.3
			C449.59,527.83,450.16,527.37,451.03,527.11z"/>
		<path class="st96" d="M96.04,486.56c1.43,0.15,2.38,0.96,2.41,2.45c0.03,1.37-0.84,2.3-2.2,2.39c-1.49,0.1-2.5-0.76-2.59-2.26
			C93.58,487.64,94.53,486.82,96.04,486.56z"/>
		<path class="st14" d="M105.07,482.4c-0.26,1.54-1.08,2.47-2.6,2.36c-1.38-0.09-2.21-1.02-2.17-2.4c0.04-1.37,0.91-2.28,2.28-2.31
			C104.11,480.01,104.86,481.02,105.07,482.4z"/>
		<path class="st23" d="M111.63,489.1c-0.19,1.34-0.95,2.24-2.36,2.25c-1.41,0.01-2.31-0.86-2.33-2.25
			c-0.03-1.53,0.91-2.47,2.43-2.41C110.74,486.74,111.52,487.66,111.63,489.1z"/>
		<path class="st23" d="M118.23,495.66c-0.2,1.42-0.99,2.33-2.38,2.3c-1.51-0.03-2.44-0.99-2.32-2.52c0.1-1.39,1.07-2.21,2.46-2.14
			C117.39,493.36,118.09,494.31,118.23,495.66z"/>
		<path class="st8" d="M118.15,482.55c-0.21,1.37-1.01,2.19-2.41,2.12c-1.41-0.07-2.22-0.99-2.15-2.37
			c0.07-1.39,0.98-2.22,2.38-2.15C117.35,480.23,118.08,481.12,118.15,482.55z"/>
		<path class="st8" d="M109.15,473.52c1.42,0.11,2.33,0.81,2.37,2.23c0.04,1.41-0.81,2.29-2.2,2.34c-1.39,0.05-2.29-0.8-2.33-2.2
			C106.95,474.48,107.8,473.71,109.15,473.52z"/>
		<path class="st5" d="M131.38,482.45c-0.17,1.36-0.92,2.25-2.34,2.24c-1.41-0.01-2.28-0.87-2.27-2.28c0.01-1.4,0.88-2.27,2.29-2.27
			C130.47,480.15,131.23,481.03,131.38,482.45z"/>
		<path class="st4" d="M120.52,487.6c0.18-0.18,0.37-0.36,0.55-0.55c1.08-0.51,2.18-0.6,3.01,0.36c0.87,1.01,0.73,2.16,0.07,3.26
			l0,0c-1.09,0.77-2.22,0.91-3.25-0.02C119.93,489.78,119.98,488.7,120.52,487.6z"/>
		<path class="st4" d="M104.46,496.93c-0.17,0.17-0.34,0.34-0.52,0.52c-1.21,0.8-2.3,0.66-3.12-0.53c-0.59-0.85-0.54-1.85,0.1-2.65
			c0.73-0.92,1.78-1.11,2.78-0.57C105.11,494.44,105.29,495.59,104.46,496.93z"/>
		<path class="st97" d="M104.46,496.93c0.05-0.85,0.37-1.75-0.2-2.51c-0.59-0.79-1.47-0.81-2.35-0.58
			c-0.91,0.23-1.17,0.96-1.16,1.79c0.01,0.81,0.23,1.61,1.15,1.79c0.66,0.13,1.36,0.03,2.04,0.03c-1.16,1.88-2.32,0.79-3.27-0.14
			c-1.09-1.07-0.99-2.35,0.05-3.45c1.11-1.17,2.45-1.4,3.63-0.21C105.28,494.59,106.34,495.78,104.46,496.93z"/>
		<path class="st98" d="M124.14,490.67c0.47-3.23,0.22-3.52-3.08-3.62c1.24-1.55,2.44-0.77,3.36,0.26
			C125.41,488.4,125.76,489.68,124.14,490.67z"/>
		<path class="st98" d="M120.52,487.6c0.02,3.35,0.42,3.69,3.62,3.08c-0.98,1.62-2.27,1.33-3.39,0.32
			C119.71,490.05,118.96,488.84,120.52,487.6z"/>
		<path class="st99" d="M220.6,625.19c1.44,0.26,2.37,1.09,2.31,2.6c-0.06,1.38-0.99,2.27-2.34,2.28c-1.48,0.01-2.47-0.93-2.46-2.42
			C218.11,626.16,219.09,625.34,220.6,625.19z"/>
		<path class="st100" d="M222.97,640.95c-0.31,1.45-1.08,2.45-2.63,2.32c-1.49-0.13-2.35-1.15-2.23-2.65
			c0.11-1.37,1.07-2.21,2.44-2.17C222.07,638.5,222.83,639.49,222.97,640.95z"/>
		<path class="st4" d="M222.84,614.42c-0.16,1.36-0.85,2.3-2.28,2.32c-1.41,0.02-2.3-0.83-2.32-2.24c-0.02-1.4,0.83-2.3,2.24-2.33
			C221.9,612.13,222.63,613.04,222.84,614.42z"/>
		<path class="st8" d="M220.67,603.54c-1.63-0.1-2.3-0.95-2.29-2.38c0.01-1.35,0.74-2.14,2.05-2.17c1.42-0.03,2.31,0.8,2.34,2.21
			C222.81,602.62,221.91,603.37,220.67,603.54z"/>
		<path class="st11" d="M143.76,561.68c-0.23,1.41-1,2.38-2.52,2.34c-1.37-0.03-2.27-0.92-2.33-2.27c-0.06-1.49,0.87-2.46,2.34-2.51
			C142.74,559.2,143.55,560.18,143.76,561.68z"/>
		<path class="st82" d="M174.31,553.06c1.47-0.18,2.22,0.57,2.28,1.87c0.06,1.4-0.77,2.3-2.17,2.37c-1.41,0.07-2.33-0.77-2.37-2.16
			C172,553.69,172.89,552.97,174.31,553.06z"/>
		<path class="st86" d="M155.9,563.42c-2.45,0.33-3.63-0.61-3.18-3.18c1.12-1.26,2.42-1.27,3.49-0.12
			C157.17,561.17,157.12,562.42,155.9,563.42z"/>
		<path class="st29" d="M161.2,553.56c1.13-0.04,2.22,0.19,2.2,1.56c-0.02,1.4-0.95,2.23-2.36,2.2c-1.29-0.03-2.16-0.82-2.2-2.09
			C158.79,553.66,160.01,553.56,161.2,553.56z"/>
		<path class="st83" d="M150.2,555.31c-0.23,1.31-1.03,2.03-2.28,2.02c-1.22-0.01-2.32-0.67-2.2-1.96c0.15-1.59,1.67-1.03,2.67-1.18
			C149.29,554.05,150.13,554.12,150.2,555.31z"/>
		<path class="st82" d="M134.67,554.33c0.93,0.16,2.18-0.29,2.18,1.17c0,1.24-0.98,1.78-2.06,1.8c-1.2,0.03-2.27-0.53-2.21-1.89
			C132.64,553.98,133.95,554.54,134.67,554.33z"/>
		<path class="st17" d="M124.85,462.59c-0.14,1.35-0.86,2.28-2.23,2.36c-1.49,0.08-2.49-0.78-2.52-2.3
			c-0.03-1.36,0.81-2.31,2.19-2.39C123.81,460.16,124.61,461.11,124.85,462.59z"/>
		<path class="st8" d="M157.76,456.04c-0.21,1.46-1.03,2.31-2.4,2.26c-1.38-0.06-2.22-0.98-2.16-2.37c0.05-1.41,0.96-2.21,2.35-2.17
			C156.97,453.8,157.64,454.74,157.76,456.04z"/>
		<path class="st5" d="M131.37,455.93c-0.11,1.36-0.79,2.3-2.21,2.36c-1.41,0.06-2.32-0.78-2.39-2.17
			c-0.07-1.39,0.76-2.31,2.17-2.38C130.36,453.68,131.15,454.52,131.37,455.93z"/>
		<path class="st24" d="M163.81,449.73c0.11,1.31-0.64,2.01-1.8,2.01c-1.39,0-2.28-0.91-2.3-2.3c-0.03-1.4,0.86-2.37,2.23-2.33
			C163.46,447.15,163.76,448.44,163.81,449.73z"/>
		<path class="st8" d="M143.88,457.49c-0.93,0.27-1.62,1.74-2.84,0.55c-0.92-0.9-2.03-1.73-0.85-3.19c1.15-0.96,2.33-1.69,3.74-0.42
			l0,0C144.53,455.47,144.63,456.49,143.88,457.49z"/>
		<path class="st8" d="M134.62,460.7c1,0.09,2.24-0.68,2.81,0.88c0.33,0.92,0.61,1.76-0.29,2.54c-1.01,0.89-2.01,1.22-3.13,0.22
			C133.05,462.94,133.19,461.72,134.62,460.7z"/>
		<path class="st53" d="M143.93,454.44c-1.31-0.48-2.55-0.23-3.74,0.42C141.26,453.16,142.47,452.71,143.93,454.44z"/>
		<path class="st53" d="M143.88,457.49c0.02-1.02,0.03-2.04,0.05-3.06C145.24,455.48,145.47,456.5,143.88,457.49z"/>
		<path class="st53" d="M134.62,460.7c-1.08,1.07-0.79,2.37-0.61,3.65C132.49,462.85,132.55,461.61,134.62,460.7z"/>
		<path class="st91" d="M141.38,590.48c-1.48-0.15-2.47-0.96-2.48-2.43c0-1.46,0.96-2.42,2.46-2.4c1.37,0.01,2.28,0.91,2.35,2.26
			C143.79,589.4,142.85,590.23,141.38,590.48z"/>
		<path class="st21" d="M167.69,585.62c1.37,0.14,2.31,0.88,2.39,2.26c0.09,1.51-0.82,2.5-2.33,2.54c-1.38,0.04-2.33-0.82-2.42-2.21
			C165.24,586.69,166.19,585.86,167.69,585.62z"/>
		<path class="st26" d="M189.9,581.55c-0.23,1.3-0.95,2.22-2.34,2.23c-1.51,0.01-2.42-0.92-2.4-2.41c0.02-1.37,0.94-2.26,2.3-2.27
			C188.95,579.08,189.76,580.03,189.9,581.55z"/>
		<path class="st101" d="M150.3,594.6c-0.16,1.4-0.88,2.35-2.26,2.4c-1.5,0.06-2.47-0.86-2.48-2.35c-0.01-1.5,0.98-2.39,2.48-2.34
			C149.42,592.35,150.14,593.28,150.3,594.6z"/>
		<path class="st4" d="M156.83,588.13c-0.22,1.41-1.03,2.25-2.43,2.19c-1.41-0.06-2.24-0.99-2.17-2.38
			c0.07-1.39,0.97-2.24,2.39-2.17C156.02,585.83,156.74,586.76,156.83,588.13z"/>
		<path class="st22" d="M173.61,579.25c2.24-0.02,3.04,0.8,3.05,2.21c0.01,1.41-0.91,2.31-2.27,2.34c-1.51,0.04-2.47-0.9-2.44-2.42
			C171.98,579.95,172.93,579.25,173.61,579.25z"/>
		<path class="st24" d="M163.12,593.46c0.32,2.46-1.02,3.27-3.21,3.24c-1.39-0.95-2.08-2.25-0.77-3.55
			C160.36,591.94,161.91,591.79,163.12,593.46z"/>
		<path class="st24" d="M136.1,596.54c-2.07,0.36-3.38-0.35-3.6-2.58c0.7-1.67,1.98-2.21,3.45-1.25
			C137.55,593.77,137.47,595.2,136.1,596.54z"/>
		<path class="st29" d="M161.22,579.86c1.23-0.11,2.23,0.32,2.18,1.76c-0.04,1.26-0.91,2.06-2.18,2.11
			c-1.39,0.05-2.34-0.76-2.38-2.14C158.79,580.11,159.91,579.81,161.22,579.86z"/>
		<path class="st86" d="M147.8,580.48c1.1,0.14,2.45-0.27,2.32,1.39c-0.09,1.19-0.98,1.82-2.11,1.85c-1.24,0.03-2.24-0.59-2.3-1.92
			C145.63,580.14,147.06,580.71,147.8,580.48z"/>
		<path class="st5" d="M182.76,586.8c-0.02,0.67,0.06,1.37-0.09,2.01c-0.25,1.04-1.15,1.11-2.03,1.06
			c-1.02-0.05-1.53-0.64-1.58-1.62c-0.04-0.9,0.13-1.76,1.17-1.97c0.64-0.13,1.34-0.02,2.01-0.01
			C182.41,586.44,182.58,586.62,182.76,586.8z"/>
		<path class="st26" d="M89.46,511.19c-1.39-0.12-2.29-0.89-2.36-2.24c-0.07-1.5,0.86-2.47,2.34-2.47c1.47,0,2.41,0.96,2.35,2.47
			C91.74,510.31,90.83,511.06,89.46,511.19z"/>
		<path class="st4" d="M96.17,513.11c1.36,0.19,2.21,0.99,2.16,2.39c-0.05,1.39-0.94,2.26-2.35,2.2c-1.39-0.06-2.26-0.95-2.22-2.36
			C93.81,513.95,94.73,513.22,96.17,513.11z"/>
		<path class="st86" d="M82.81,513.11c1.46,0.17,2.35,0.94,2.34,2.34c-0.02,1.4-0.92,2.26-2.32,2.27c-1.43,0-2.26-0.94-2.26-2.31
			C80.57,514,81.5,513.27,82.81,513.11z"/>
		<path class="st102" d="M91.78,521.76c-0.12,1.48-0.66,2.62-2.09,2.64c-1.41,0.02-2.52-0.79-2.55-2.35
			c-0.03-1.4,0.85-2.28,2.24-2.33C90.79,519.67,91.54,520.56,91.78,521.76z"/>
		<path class="st92" d="M353.37,480.04c1.52,0.19,2.42,0.96,2.43,2.32c0.01,1.49-0.92,2.42-2.41,2.4c-1.36-0.02-2.26-0.91-2.29-2.28
			C351.07,480.97,352.08,480.24,353.37,480.04z"/>
		<path class="st101" d="M369.05,482.44c-0.18,1.39-0.94,2.31-2.31,2.33c-1.5,0.03-2.45-0.89-2.44-2.4c0.01-1.37,0.9-2.28,2.27-2.32
			C368.07,480.02,368.87,480.98,369.05,482.44z"/>
		<path class="st22" d="M362.45,489.1c-0.19,1.32-0.92,2.25-2.31,2.27c-1.51,0.02-2.48-0.9-2.45-2.4c0.03-1.49,1.03-2.4,2.54-2.31
			C361.6,486.74,362.31,487.7,362.45,489.1z"/>
		<path class="st32" d="M346.87,490.33c-1.18,0.04-2.33-0.02-2.31-1.43c0.02-1.37,0.94-2.21,2.32-2.19
			c1.23,0.02,2.18,0.73,2.24,2.01C349.2,490.35,347.83,490.19,346.87,490.33z"/>
		<path class="st95" d="M366.25,494.99c-0.62,0.01-1.43,0.1-1.4-0.7c0.03-1.01,0.93-1.36,1.8-1.43c0.64-0.05,1.19,0.36,1.21,1.04
			C367.91,495.09,366.89,494.81,366.25,494.99z"/>
		<path class="st14" d="M46.91,536.46c-0.05-2.09,0.53-3.56,3.06-3.13c1.39,0.87,1.85,2.09,0.74,3.35
			C49.5,538.07,48.1,537.98,46.91,536.46z"/>
		<path d="M44.37,542.64c-0.35,0.24-0.67,0.55-1.05,0.71c-1.05,0.47-2.03,0.37-2.73-0.65c-0.41-0.59-0.67-1.33-0.1-1.9
			c0.79-0.79,1.8-0.97,2.85-0.47c0.38,0.18,0.7,0.48,1.04,0.72C44.69,541.58,44.68,542.11,44.37,542.64z"/>
		<path class="st93" d="M129.04,519.68c1.44,0.21,2.4,0.9,2.34,2.35c-0.06,1.52-1,2.42-2.52,2.31c-1.39-0.1-2.19-1.07-2.12-2.45
			C126.81,520.49,127.74,519.78,129.04,519.68z"/>
		<path class="st103" d="M133.4,526.57c0.56,0.14,0.76,0.53,0.6,0.97c-0.27,0.79-0.49,1.76-1.48,1.89
			c-0.61,0.08-0.89-0.49-0.66-1.06C132.16,527.61,132.4,526.72,133.4,526.57z"/>
		<path class="st4" d="M151.15,436.33c-0.23,1.37-1.02,2.2-2.42,2.12c-1.4-0.08-2.21-0.98-2.13-2.37c0.08-1.38,0.97-2.21,2.38-2.13
			C150.39,434.02,151.06,434.96,151.15,436.33z"/>
		<path class="st104" d="M165.78,616.13c-1.07,0.97-2.45,2.43-3.67,1.17c-1.25-1.28-1.59-3.37-1.79-5.25
			c-0.02-0.2,0.95-0.59,1.5-0.77c2.13-0.68,4.28-1.28,6.41-1.98c1.47-0.48,2.83-1.21,4.2,0.35c0.65,0.73,1.28,0.4,1.6-0.67
			c0.92-3.06,4.2-3.81,6.36-1.65c6.1,6.1,6.49,13.77,5.84,21.61c-0.32,3.81-1.66,7.45-3.07,11.04c-2.99-1.79-2.93-4.71-3.38-7.37
			c-0.52-3.11-1.62-5.96-3.38-8.57c-0.1-0.14-0.19-0.29-0.27-0.44c-1.22-2.46-1.44-5.9-5.58-5.48c-0.63,0.06-1.45-0.54-1.74-1.37
			c-0.22-1.27,1.61-3.28-0.97-3.68C165.54,612.71,166.37,615.02,165.78,616.13z"/>
		<path class="st21" d="M165.78,616.13c-0.71-1.69-0.76-3.22,1.3-3.93c1.34-0.46,2.31,0.2,2.85,1.45c0.59,1.36-0.28,2.24-1.13,3.1
			C167.67,617.16,166.74,616.57,165.78,616.13z"/>
		<path class="st3" d="M413.4,582.89c-1.17,0.43-2.3,0.6-3.28-0.44c-0.19-1.48-0.1-2.96,1.87-2.81
			C414.23,579.8,413.75,581.44,413.4,582.89z"/>
		<path class="st5" d="M228.43,634.27c0.01,1.1-0.7,1.25-1.54,1.19c-0.86-0.05-1.52-0.42-1.44-1.38c0.08-0.95,0.83-1.16,1.66-1.18
			C228.09,632.87,228.51,633.34,228.43,634.27z"/>
		<path class="st82" d="M53.62,529.72c0.2-0.75,0.45-1.45,1.12-1.95c0.64-0.48,1.27-0.98,2.05-0.41c0.53,0.39,0.52,1.04,0.43,1.65
			c-0.14,0.96-0.81,1.29-1.65,1.21C54.91,530.16,54.27,529.89,53.62,529.72C53.62,529.71,53.62,529.72,53.62,529.72z"/>
		<path class="st66" d="M171.07,640.63c-1.84-2.59-2.72-5.57-3.92-8.41c-0.25-0.59-1.14-1.53-0.09-1.94
			c0.98-0.38,2.11-0.33,2.69,1.15C170.89,634.41,170.96,637.5,171.07,640.63z"/>
		<path class="st3" d="M397.14,580.1c2.78-0.93,3.32-0.55,3.34,2.34c-0.87,0.92-1.98,1.07-2.95,0.43
			C396.53,582.22,396.95,581.08,397.14,580.1z"/>
	</g>
</g>
</svg>
