<?xml version="1.0" encoding="UTF-8"?>
<svg xmlns="http://www.w3.org/2000/svg" width="201" height="39">
  <path fill-rule="evenodd" fill="#FFF" d="M195.75 30.36c-.83 0-1.54.43-1.54 1.23 0 .96 1.04 1.21 2.36 1.52 1.99.49 3.45 1.47 3.45 3.15 0 1.7-1.29 2.74-3.28 2.74-1.27 0-2.33-.55-2.97-1.38v1.27h-1.63v-3.04h1.63c.23 1.2 1.34 1.77 2.67 1.77 1.12 0 1.89-.52 1.89-1.36 0-.78-.69-1.3-2.04-1.59-2.13-.44-3.79-1.35-3.79-3.04 0-1.7 1.35-2.65 2.94-2.65 1.28 0 2.04.55 2.49 1.22v-1.11h1.63v3.05h-1.63c-.21-1.14-.93-1.78-2.18-1.78zm-8.16 6.79c-.57 1-1.59 1.85-3.09 1.85-2.38 0-3.42-1.55-3.42-3.69v-4.53l-1.36-.34.18-1.46 2.03.55 2.03-.55.18 1.46-1.36.34v3.99c0 1.67.74 2.73 2.22 2.73 1.95 0 2.59-1.83 2.59-3.7v-3.02l-1.36-.34.17-1.46 2.04.55 2.03-.55.18 1.46-1.35.34v6.65h1.35v1.46h-3.06v-1.74zm-5.49-24.67v7.82h-4.06v-7.82h-7.82v-3.7h7.82V.96h4.06v7.82h7.87l-.04 3.7h-7.83zm-14.79 20.31h-3.34v4.09l2.2.39-.18 1.62-2.91-.55-2.73.55-.18-1.62 2.02-.37V26.85h-2.02v-1.62h7.26c2.84 0 4.7 1.14 4.7 3.71 0 2.7-1.99 3.85-4.82 3.85zm.06-5.94h-3.4v4.37h3.43c1.73 0 2.91-.59 2.91-2.16 0-1.61-1.25-2.21-2.94-2.21zm-19.31 6.65l.94-8.07 4.32.67-1.42 12.55-13.6-2.31-16.16 2.31-.62-4.42 22.77-28.35v-.19H127.3v6.78h-4.83V1.26h28.03v4.43l-22.2 27.59 10-1.36 9.76 1.58zm-34.83-9.4c0 9.23-5.61 14.85-14.84 14.85S83.55 33.33 83.55 24.1V6.46l-6.04-1.07.5-4.43 7.97 1.5 7.97-1.5.49 4.43-6.03 1.07V24.1c0 6.33 3.62 10.18 9.98 10.18 6.35 0 9.98-3.85 9.98-10.18V6.46l-6.03-1.07.49-4.43 7.97 1.5 7.97-1.5.5 4.43-6.04 1.07V24.1zm-42.68 9.4l.94-8.07 4.31.67-1.4 12.55-13.61-2.31-16.16 2.31-.63-4.42L66.77 5.88v-.19H49.8v6.78h-4.85V1.26h28.03v4.43L50.79 33.28l10-1.36 9.76 1.58zm-34.83-9.4c0 9.23-5.61 14.85-14.84 14.85-9.24 0-14.85-5.62-14.85-14.85V6.46L0 5.39.5.96l7.96 1.5 7.97-1.5.5 4.43-6.03 1.07V24.1c0 6.33 3.62 10.18 9.98 10.18 6.35 0 9.98-3.85 9.98-10.18V6.46l-6.04-1.07.5-4.43 7.97 1.5 7.96-1.5.5 4.43-6.03 1.07V24.1zm141.23 12.95l1.86.38-.18 1.46-2.53-.55-2.54.55-.18-1.46 1.86-.38V26h-1.86v-1.46h3.57v12.51z"></path>
</svg>
