<?xml version="1.0" encoding="UTF-8"?>
<svg xmlns="http://www.w3.org/2000/svg" id="logo" data-name="logo" viewBox="0 0 353.1 67">
  <defs>
    <style>.cls-2{fill: #2d1508}</style>
  </defs>
  <g id="logo02" data-name="logo02">
    <path class="cls-2" d="M303.9 49.3c0 4.8-3.5 6.8-8.5 6.8h-6v7.2l3.9.7-.3 2.9-5.1-1-4.8 1-.3-2.9 3.6-.7V45.6h-3.6v-2.9h12.8c5 0 8.3 2 8.3 6.5zm-8.4 4c3 0 5.2-1 5.2-3.8s-2.2-4-5.2-4h-6v7.7h6zM312.4 63.6l3.3.7-.3 2.6-4.5-1-4.5 1-.3-2.6 3.3-.7V44.1H306v-2.6h6.3v22zM334.2 52.5v11.7h2.4v2.6h-5.4v-3c-1 1.8-2.8 3.3-5.4 3.3-4.2 0-6-2.7-6-6.5v-8l-2.4-.6.3-2.6 3.6 1 3.6-1 .3 2.6-2.4.6v7c0 3 1.3 4.8 4 4.8 3.4 0 4.6-3.2 4.6-6.5v-5.3L329 52l.3-2.6 3.6 1 3.6-1 .3 2.6-2.4.6zM353.1 62.2c0 3-2.3 4.8-5.8 4.8-2.2 0-4-1-5.3-2.4v2.2h-2.9v-5.4h3c.3 2.1 2.3 3.1 4.6 3.1 2 0 3.3-1 3.3-2.4s-1.2-2.3-3.6-2.8c-3.8-.8-6.7-2.4-6.7-5.4s2.4-4.7 5.2-4.7c2.3 0 3.6 1 4.4 2.2v-2h3v5.4h-3c-.4-2-1.6-3.1-3.8-3.1-1.5 0-2.7.8-2.7 2.2 0 1.7 1.8 2.1 4.2 2.7 3.5.8 6.1 2.6 6.1 5.5z"></path>
    <path d="M314.3 20.3h-13.8v-6.5h13.8V0h7.2v13.8h14v6.5h-13.9v13.8h-7.2V20.3z" fill="#ff7325"></path>
    <g>
      <path class="cls-2" d="M73.7 7.8L63 9.7v31.1C63 57.1 53 67 36.8 67s-26.2-9.9-26.2-26.2V9.7L0 7.8.9 0l14 2.6L29 0l.9 7.8-10.7 1.9v31.1c0 11.1 6.4 18 17.6 18s17.6-6.8 17.6-18V9.7L43.7 7.8l.9-7.8 14 2.6 14-2.6.9 7.8zM126.2 43.1l7.6 1.2-2.5 22.1-24-4-28.5 4-1-7.8 40.1-49.9v-.3h-30v12h-8.6V.5h49.5v7.8L89.6 56.9l17.7-2.4 17.2 2.8 1.7-14.2zM210.6 7.8l-10.7 1.9v31.1c0 16.3-10 26.2-26.2 26.2s-26.2-9.9-26.2-26.2V9.7l-10.7-1.9.9-7.8 14 2.6 14-2.6.9 7.8-10.7 1.9v31.1c0 11.1 6.4 18 17.6 18S191 52 191 40.8V9.7l-10.7-1.9.9-7.8 14 2.6 14-2.6.9 7.8zM263 43.1l7.7 1.2-2.5 22.1-24-4-28.5 4-1.1-7.8 40.2-50v-.3h-30v12h-8.6V.5h49.5v7.8l-39.2 48.6 17.7-2.4 17.2 2.8 1.7-14.2z"></path>
    </g>
  </g>
</svg>
